<?xml version="1.0" encoding="utf-8"?>
<!-- Generator: Adobe Illustrator 23.0.4, SVG Export Plug-In . SVG Version: 6.00 Build 0)  -->
<svg version="1.1" id="Layer_1" xmlns="http://www.w3.org/2000/svg" xmlns:xlink="http://www.w3.org/1999/xlink" x="0px" y="0px"
	 viewBox="0 0 512 512" style="enable-background:new 0 0 512 512;" xml:space="preserve">
<g transform="translate(0.000000,512.000000) scale(0.100000,-0.100000)">
	<path d="M390,5104c-30-8-79-27-110-42c-71-35-187-151-222-222c-62-126-58,27-58-2280S-4,406,58,280C93,209,209,93,280,58
		C406-4,253,0,2560,0s2154-4,2280,58c71,35,187,151,222,222c62,126,58-27,58,2280s4,2154-58,2280c-35,71-151,187-222,222
		c-126,62,28,58-2285,57C731,5119,438,5117,390,5104z M1293,4404c232-76,364-316,302-554c-64-248-331-396-576-320
		c-275,84-403,386-275,646c60,121,191,220,323,244C1129,4431,1232,4424,1293,4404z M3690,3090c249-72,455-247,570-484
		c90-185,84-116,87-1028l4-808h-386h-385v708c0,634-2,714-17,758c-47,139-161,238-305,264c-140,26-301-49-381-177
		c-58-93-57-74-57-845V770h-385h-385v1150v1150h385h385v-144v-144l93,92c116,117,246,192,402,232C3391,3126,3596,3117,3690,3090z
		 M1540,1920V770h-385H770v1150v1150h385h385V1920z"/>
</g>
</svg>
