<svg width="198" height="81" viewBox="0 0 198 81" fill="none" xmlns="http://www.w3.org/2000/svg">
<path d="M68.8404 43.6373C68.8404 55.4524 59.5825 65.0304 48.1622 65.0304C36.742 65.0304 27.484 55.4524 27.484 43.6373C27.484 31.8223 37.1661 27.7036 48.5864 27.7036C60.0066 27.7036 68.8404 31.8223 68.8404 43.6373Z" fill="#A5D63E" stroke="black" stroke-width="2.33293"/>
<path d="M62.2658 43.1687C62.2658 51.9629 55.3817 59.092 46.8897 59.092C38.3977 59.092 31.5136 51.9629 31.5136 43.1687C31.5136 34.3745 38.7131 31.3089 47.2051 31.3089C55.6971 31.3089 62.2658 34.3745 62.2658 43.1687Z" fill="#C1FF3D"/>
<ellipse cx="39.2547" cy="42.9736" rx="2.65105" ry="2.7571" fill="#010101"/>
<path d="M177.215 41.3021C177.215 52.767 168.242 62.0612 157.174 62.0612C146.105 62.0612 137.132 52.767 137.132 41.3021C137.132 29.8371 146.105 27.0673 157.174 27.0673C168.242 27.0673 177.215 29.8371 177.215 41.3021Z" fill="#A5D63E" stroke="black" stroke-width="2.33293"/>
<path d="M173.398 41.072C173.398 49.6186 166.704 56.547 158.446 56.547C150.188 56.547 143.494 49.6186 143.494 41.072C143.494 32.5254 150.188 30.4606 158.446 30.4606C166.704 30.4606 173.398 32.5254 173.398 41.072Z" fill="#C1FF3D"/>
<circle r="2.54501" transform="matrix(1 0 0 -1 167.46 40.4286)" fill="#010101"/>
<path d="M71.1734 38.4138C69.406 34.773 62.584 27.4915 49.4347 27.4915C36.2855 27.4915 26.2822 34.773 22.9242 38.4138" stroke="black" stroke-width="2.7571"/>
<path d="M131.829 31.7331C135.117 29.9657 144.661 26.431 156.537 26.431C168.414 26.431 177.251 29.9657 180.185 31.7331" stroke="black" stroke-width="2.7571"/>
<path opacity="0.2" d="M55.3045 68.8285C66.1316 64.1337 70.0747 53.9605 70.8382 48.8763C71.4049 54.423 69.7971 66.7865 58.8328 71.8667C47.8685 76.9469 37.3229 74.0831 33.4207 72.0162C36.1071 73.2995 44.4775 73.5234 55.3045 68.8285Z" fill="black"/>
<path opacity="0.2" d="M147.915 65.4657C135.861 60.0613 131.473 49.5626 130.624 44.3907C129.991 49.9462 131.778 62.5076 143.986 68.3089C156.193 74.1102 167.936 71.8785 172.281 70.0375C169.29 71.1641 159.97 70.8701 147.915 65.4657Z" fill="black"/>
<path opacity="0.3" d="M186.547 39.5801C190.959 71.1382 170.146 77.1897 159.188 76.2707C164.031 78.7096 175.943 81.0638 184.851 70.9686C193.758 60.8734 189.693 45.8366 186.547 39.5801Z" fill="black" fill-opacity="0.1"/>
<path opacity="0.3" d="M16.5856 43C12.3265 73.9014 32.4206 79.8269 43 78.927C38.3246 81.3152 26.8237 83.6204 18.2237 73.7353C9.62367 63.8501 13.5483 49.1263 16.5856 43Z" fill="black" fill-opacity="0.1"/>
<path d="M140.252 4.4927C131.218 5.12678 123.859 12.3578 121.309 15.894L131.411 15.3464C135.011 15.1512 148.902 12.3233 155.715 14.0288C162.529 15.7343 170.979 19.877 176.69 19.7479C181.259 19.6445 192.421 18.1734 197.431 17.4508C195.863 16.9043 191.496 15.6615 186.568 15.0626C180.408 14.314 171.128 5.97628 165.457 3.12632C159.785 0.276366 151.544 3.7001 140.252 4.4927Z" fill="white" stroke="black" stroke-width="2.33293"/>
<path d="M18.4655 12.4404C9.88961 16.1517 3.24855 18.6238 1 19.3959C21.5664 21.5436 32.6131 21.9419 38.4078 20.5646C44.2024 19.1873 55.6923 18.4046 64.8291 19.7364C72.1385 20.8017 79.686 22.1059 82.546 22.6249L79.9537 18.8613C73.2925 11.18 60.6691 7.50171 47.4855 6.12502C34.302 4.74832 29.1853 7.80129 18.4655 12.4404Z" fill="white" stroke="black" stroke-width="2.33293"/>
</svg>
