<svg width="347" height="610" viewBox="0 0 347 610" fill="none" xmlns="http://www.w3.org/2000/svg">
<mask id="mask0_201_1522" style="mask-type:alpha" maskUnits="userSpaceOnUse" x="134" y="441" width="191" height="169">
<rect x="184.4" y="441" width="161.701" height="100.8" transform="rotate(30 184.4 441)" fill="#C4C4C4"/>
</mask>
<g mask="url(#mask0_201_1522)">
<path d="M184.975 467.258C185.653 481.295 178.729 485.139 174.916 493.916L240.906 532.016L246.55 528.216L264.283 545.042L277.347 543.331L264.17 528.666L279.712 534.345L298.977 543.899L301.496 534.375L279.381 521.607L280.943 518.901L296.096 524.983L296.582 517.893L200.126 462.204C196.021 464.696 187.509 465.584 184.975 467.258Z" fill="#0D51FF" stroke="black" stroke-width="2.71653"/>
<path d="M295.08 518.594L273.906 506.369L270.613 504.468L271.173 507.301L274.52 512.37L265.724 508.86L259.053 512.537L269.522 518.581L261.928 521.411L249.93 514.484L250.792 521.412L240.57 520.373L236.292 527.783L240.762 530.364L246.677 526.094L264.912 543.68L274.791 542.326L263.274 529.403L264.429 527.403L280.156 533.033L298.059 541.958L299.758 534.94L277.408 522.036L280.193 517.213L294.874 523.024L295.08 518.594Z" fill="#C9A23D"/>
<path d="M295.315 518.73L270.613 504.468L271.105 507.418L292.717 519.426L292.513 519.779L278.673 514.14L276.125 515.022L274.699 517.492L269.811 521.885L293.119 535.028L292.712 535.734L268.923 524.509L260.068 523.004L258.773 526.334L266.317 538.531L265.42 539.268L248.61 523.29L244.873 522.7L243.175 525.641L236.242 527.598L240.947 530.314L246.777 526.466L264.727 543.73L275.026 542.462L263.392 529.471L264.614 527.354L279.97 533.083L298.059 541.958L299.758 534.94L277.526 522.104L280.242 517.399L294.992 523.092L295.315 518.73Z" fill="#E5C470"/>
<path d="M182.286 484.683C184.265 481.695 185.829 470.775 186.708 467.788C189.59 467.413 196.586 465.275 200.291 463.71C197.238 466.58 193.244 470.995 190.122 472.739C189.571 474.977 187.99 485.565 187.044 489.4C185.862 494.194 184.167 496.031 182.05 499.973C179.933 503.914 177.369 503.686 178.605 501.27C179.842 498.854 178.023 497.335 176.802 498.351C175.581 499.367 173.582 502.281 171.585 507.387C169.589 512.493 167.368 514.967 165.584 513.937C163.8 512.907 164.866 510.236 168.186 504.486C171.506 498.736 174.597 496.678 176.185 493.927C178.929 489.175 179.812 488.418 182.286 484.683Z" fill="#1B3255"/>
<ellipse rx="4.34645" ry="6.79133" transform="matrix(-0.866025 -0.5 -0.5 0.866025 157.079 519.378)" fill="#1B3255"/>
<ellipse rx="1.49409" ry="3.25984" transform="matrix(-0.866025 -0.5 -0.5 0.866025 176.151 507.804)" fill="#1B3255"/>
<path d="M225.433 511.005L184.615 487.44" stroke="#1B3255" stroke-width="2.44488"/>
<path d="M223.164 486.954L243.573 498.737" stroke="#1B3255" stroke-width="2.44488"/>
<path d="M209.213 487.212L187.334 474.58" stroke="#1B3255" stroke-width="2.44488"/>
<path d="M260.029 516.551L238.15 503.919" stroke="#1B3255" stroke-width="2.44488"/>
</g>
<mask id="mask1_201_1522" style="mask-type:alpha" maskUnits="userSpaceOnUse" x="0" y="0" width="347" height="317">
<rect y="142" width="284" height="201" transform="rotate(-30 0 142)" fill="#C4C4C4"/>
</mask>
<g mask="url(#mask1_201_1522)">
<path d="M182.5 146.958C204.779 142.604 216.524 130.932 219.612 125.641L222.915 142.543L222.542 172.268C221.334 178.266 213.532 191.315 191.992 195.525C170.451 199.735 151.13 183.249 144.163 174.48L136.151 139.95C142.318 144.1 160.221 151.312 182.5 146.958Z" fill="white" stroke="black" stroke-width="0.598272"/>
<path d="M65.8542 163.03C61.3061 168.271 56.7253 173.346 55.0034 175.228L66.7416 235.287L318.718 186.041L307.185 127.029C301.706 125.577 289.213 122.612 283.071 122.374C275.395 122.077 267.599 117.829 255.435 118.409C245.704 118.872 225.226 114.346 218.81 111.516C219.86 116.884 219.678 122.521 217.402 125.842C214.556 129.993 210.702 137.228 210.017 140.626C209.331 144.025 203.67 150.477 199.101 156.054C195.445 160.515 190.507 173.708 188.494 179.747C183.541 173.635 171.909 160.734 165.008 158.033C156.381 154.657 152.512 148.223 146.873 141.424C142.362 135.985 135.514 131.643 131.829 130.313C129.928 133.949 118.269 135.849 111.139 140.129C104.008 144.408 93.005 145.802 83.2513 148.465C73.4975 151.128 71.5393 156.478 65.8542 163.03Z" fill="#FF5C00" stroke="black" stroke-width="0.598272"/>
<path d="M132.285 129.079L127.713 129.973C123.415 130.618 118.025 134.688 115.867 136.642L121.811 151.461L140.476 151.383L138.745 158.122C141.706 159.982 149.401 163.764 156.486 164.016C163.572 164.269 180.614 174.294 188.25 179.275C186.971 172.732 176.609 164.046 173.137 160.762C169.665 157.479 162.068 154.478 157.205 151.205C152.341 147.932 146.399 138.469 141.801 133.882C138.123 130.211 133.924 129.151 132.285 129.079Z" fill="#FF5C00" stroke="black" stroke-width="0.598272"/>
<path d="M220.444 109.29L224.988 108.402C229.184 107.378 235.698 109.25 238.431 110.314L238.649 126.932L221.468 134.012L225.642 139.87C223.633 142.805 218.013 149.414 211.598 152.375C205.183 155.335 193.365 171.57 188.258 179.317C186.925 172.496 193.118 160.118 195.049 155.609C196.981 151.1 202.812 145.285 206.026 140.253C209.241 135.222 211.074 123.787 213.54 117.585C215.513 112.623 218.965 109.988 220.444 109.29Z" fill="#FF5C00" stroke="black" stroke-width="0.598272"/>
<path d="M188.5 179.661C189.479 182.445 191.411 189.212 191.303 194.005C191.195 198.798 193.4 206.963 194.516 210.446" stroke="black" stroke-width="0.598272"/>
<path d="M239.504 176.524L239.821 178.143C239.945 178.78 239.978 179.348 239.92 179.848C239.866 180.347 239.731 180.778 239.516 181.14C239.304 181.502 239.024 181.794 238.676 182.018C238.328 182.242 237.927 182.398 237.473 182.487C237.108 182.558 236.758 182.578 236.423 182.547C236.088 182.511 235.773 182.421 235.48 182.276C235.189 182.127 234.924 181.922 234.683 181.661C234.443 181.401 234.235 181.079 234.059 180.697C233.882 180.31 233.744 179.861 233.644 179.35L233.328 177.731C233.203 177.09 233.167 176.522 233.222 176.027C233.28 175.527 233.417 175.096 233.633 174.734C233.848 174.372 234.13 174.079 234.478 173.855C234.826 173.631 235.227 173.475 235.682 173.386C236.047 173.315 236.395 173.297 236.726 173.334C237.061 173.365 237.376 173.455 237.67 173.604C237.964 173.749 238.229 173.952 238.465 174.213C238.705 174.473 238.914 174.797 239.091 175.184C239.266 175.566 239.404 176.013 239.504 176.524ZM237.819 178.793L237.402 176.663C237.347 176.379 237.282 176.135 237.209 175.931C237.139 175.725 237.059 175.555 236.97 175.421C236.885 175.286 236.791 175.182 236.688 175.11C236.585 175.033 236.474 174.985 236.357 174.966C236.243 174.942 236.121 174.943 235.991 174.968C235.829 175 235.689 175.063 235.573 175.157C235.46 175.247 235.373 175.373 235.312 175.537C235.252 175.7 235.221 175.908 235.219 176.161C235.222 176.413 235.258 176.716 235.327 177.069L235.744 179.199C235.8 179.487 235.863 179.735 235.934 179.945C236.007 180.149 236.087 180.321 236.173 180.46C236.263 180.594 236.359 180.7 236.463 180.776C236.565 180.849 236.675 180.895 236.793 180.914C236.91 180.933 237.034 180.93 237.164 180.905C237.322 180.874 237.458 180.814 237.571 180.724C237.684 180.635 237.771 180.508 237.831 180.345C237.895 180.176 237.926 179.966 237.923 179.714C237.923 179.457 237.888 179.15 237.819 178.793ZM246.235 175.209L246.551 176.827C246.675 177.464 246.709 178.033 246.651 178.533C246.596 179.032 246.462 179.462 246.246 179.825C246.035 180.186 245.755 180.479 245.407 180.703C245.059 180.926 244.658 181.083 244.203 181.171C243.838 181.243 243.488 181.263 243.154 181.231C242.818 181.196 242.504 181.106 242.21 180.961C241.92 180.811 241.654 180.606 241.414 180.346C241.174 180.085 240.965 179.764 240.79 179.381C240.613 178.995 240.475 178.546 240.375 178.035L240.058 176.416C239.933 175.775 239.898 175.207 239.953 174.712C240.011 174.212 240.148 173.781 240.363 173.419C240.579 173.056 240.861 172.763 241.209 172.54C241.557 172.316 241.958 172.159 242.412 172.071C242.777 171.999 243.125 171.982 243.457 172.018C243.791 172.05 244.106 172.14 244.4 172.289C244.694 172.433 244.959 172.636 245.195 172.898C245.436 173.158 245.644 173.482 245.821 173.868C245.997 174.251 246.135 174.698 246.235 175.209ZM244.549 177.478L244.133 175.348C244.077 175.064 244.013 174.82 243.939 174.615C243.869 174.41 243.79 174.24 243.701 174.106C243.615 173.971 243.521 173.867 243.419 173.794C243.315 173.718 243.205 173.67 243.087 173.651C242.973 173.627 242.851 173.627 242.721 173.653C242.559 173.685 242.42 173.748 242.303 173.842C242.19 173.931 242.103 174.058 242.043 174.221C241.982 174.385 241.951 174.593 241.95 174.846C241.953 175.098 241.989 175.401 242.058 175.753L242.474 177.883C242.53 178.171 242.594 178.42 242.664 178.629C242.738 178.834 242.818 179.006 242.904 179.145C242.993 179.279 243.09 179.384 243.193 179.461C243.296 179.534 243.406 179.58 243.523 179.599C243.641 179.618 243.764 179.615 243.894 179.589C244.052 179.558 244.188 179.498 244.301 179.409C244.414 179.319 244.501 179.193 244.562 179.029C244.626 178.861 244.656 178.651 244.653 178.399C244.654 178.142 244.619 177.835 244.549 177.478ZM252.965 173.893L253.282 175.512C253.406 176.149 253.439 176.717 253.381 177.217C253.327 177.716 253.192 178.147 252.977 178.509C252.765 178.871 252.485 179.163 252.137 179.387C251.789 179.611 251.388 179.767 250.934 179.856C250.569 179.927 250.219 179.947 249.884 179.916C249.549 179.88 249.234 179.79 248.941 179.645C248.65 179.496 248.385 179.291 248.144 179.03C247.904 178.77 247.696 178.448 247.52 178.066C247.343 177.679 247.205 177.23 247.105 176.719L246.789 175.101C246.664 174.46 246.628 173.892 246.683 173.396C246.741 172.897 246.878 172.466 247.094 172.103C247.309 171.741 247.591 171.448 247.939 171.224C248.287 171 248.688 170.844 249.143 170.755C249.508 170.684 249.856 170.666 250.187 170.703C250.522 170.734 250.837 170.824 251.131 170.973C251.425 171.118 251.69 171.321 251.926 171.582C252.166 171.843 252.375 172.166 252.552 172.553C252.727 172.935 252.865 173.382 252.965 173.893ZM251.28 176.162L250.863 174.033C250.808 173.749 250.743 173.504 250.67 173.3C250.6 173.094 250.52 172.924 250.431 172.79C250.346 172.655 250.252 172.552 250.149 172.479C250.046 172.402 249.935 172.354 249.818 172.335C249.704 172.311 249.582 172.312 249.452 172.337C249.29 172.369 249.15 172.432 249.034 172.526C248.921 172.616 248.834 172.742 248.773 172.906C248.713 173.069 248.682 173.278 248.681 173.53C248.683 173.783 248.719 174.085 248.788 174.438L249.205 176.568C249.261 176.856 249.324 177.105 249.395 177.314C249.468 177.519 249.548 177.69 249.634 177.829C249.724 177.964 249.82 178.069 249.924 178.146C250.026 178.218 250.136 178.264 250.254 178.283C250.371 178.302 250.495 178.299 250.625 178.274C250.783 178.243 250.919 178.183 251.032 178.093C251.145 178.004 251.232 177.877 251.292 177.714C251.356 177.546 251.387 177.335 251.384 177.083C251.384 176.826 251.349 176.519 251.28 176.162ZM259.696 172.578L260.012 174.197C260.137 174.833 260.17 175.402 260.112 175.902C260.058 176.401 259.923 176.832 259.707 177.194C259.496 177.555 259.216 177.848 258.868 178.072C258.52 178.296 258.119 178.452 257.664 178.541C257.299 178.612 256.949 178.632 256.615 178.6C256.279 178.565 255.965 178.475 255.671 178.33C255.381 178.18 255.115 177.975 254.875 177.715C254.635 177.454 254.426 177.133 254.251 176.75C254.074 176.364 253.936 175.915 253.836 175.404L253.519 173.785C253.394 173.144 253.359 172.576 253.414 172.081C253.472 171.581 253.609 171.15 253.824 170.788C254.04 170.426 254.322 170.133 254.67 169.909C255.018 169.685 255.419 169.529 255.873 169.44C256.238 169.368 256.586 169.351 256.918 169.387C257.253 169.419 257.567 169.509 257.861 169.658C258.155 169.802 258.42 170.005 258.656 170.267C258.897 170.527 259.105 170.851 259.282 171.237C259.458 171.62 259.596 172.067 259.696 172.578ZM258.01 174.847L257.594 172.717C257.538 172.433 257.474 172.189 257.4 171.984C257.331 171.779 257.251 171.609 257.162 171.475C257.076 171.34 256.982 171.236 256.88 171.164C256.776 171.087 256.666 171.039 256.548 171.02C256.434 170.996 256.312 170.997 256.182 171.022C256.02 171.054 255.881 171.117 255.764 171.211C255.651 171.3 255.564 171.427 255.504 171.59C255.443 171.754 255.412 171.962 255.411 172.215C255.414 172.467 255.45 172.77 255.519 173.123L255.935 175.252C255.991 175.54 256.055 175.789 256.125 175.999C256.199 176.203 256.279 176.375 256.365 176.514C256.454 176.648 256.551 176.754 256.654 176.83C256.757 176.903 256.867 176.949 256.984 176.968C257.102 176.987 257.225 176.984 257.355 176.959C257.513 176.928 257.649 176.867 257.762 176.778C257.875 176.688 257.962 176.562 258.023 176.398C258.087 176.23 258.117 176.02 258.114 175.768C258.115 175.511 258.08 175.204 258.01 174.847ZM264.16 167.814L264.489 167.75L264.804 169.362L264.694 169.384C264.301 169.46 263.942 169.587 263.619 169.764C263.3 169.94 263.032 170.165 262.816 170.439C262.603 170.708 262.457 171.025 262.377 171.391C262.3 171.755 262.307 172.165 262.395 172.619L262.699 174.171C262.754 174.455 262.827 174.697 262.917 174.899C263.007 175.1 263.114 175.26 263.238 175.379C263.362 175.498 263.502 175.578 263.658 175.619C263.817 175.66 263.992 175.661 264.183 175.624C264.341 175.593 264.48 175.528 264.6 175.429C264.719 175.33 264.815 175.204 264.886 175.051C264.961 174.897 265.008 174.726 265.026 174.537C265.044 174.348 265.032 174.148 264.991 173.937C264.946 173.71 264.878 173.511 264.785 173.34C264.693 173.168 264.582 173.03 264.452 172.925C264.325 172.815 264.182 172.741 264.023 172.705C263.868 172.664 263.705 172.66 263.534 172.693C263.275 172.744 263.065 172.846 262.906 172.999C262.749 173.148 262.642 173.32 262.584 173.517C262.529 173.713 262.52 173.902 262.556 174.085L261.965 173.682C261.91 173.44 261.907 173.18 261.958 172.9C262.008 172.621 262.113 172.35 262.273 172.087C262.432 171.824 262.65 171.594 262.927 171.397C263.205 171.199 263.544 171.061 263.946 170.983C264.351 170.904 264.723 170.911 265.062 171.005C265.404 171.098 265.708 171.262 265.973 171.496C266.242 171.73 266.467 172.021 266.649 172.369C266.83 172.717 266.963 173.105 267.047 173.535C267.132 173.97 267.134 174.388 267.053 174.792C266.975 175.19 266.825 175.554 266.603 175.884C266.381 176.214 266.096 176.493 265.749 176.72C265.402 176.948 265.001 177.107 264.547 177.195C264.081 177.287 263.633 177.292 263.205 177.211C262.779 177.126 262.389 176.96 262.033 176.714C261.681 176.463 261.378 176.132 261.126 175.723C260.877 175.312 260.698 174.827 260.589 174.267L260.442 173.519C260.294 172.76 260.286 172.06 260.417 171.42C260.553 170.778 260.796 170.211 261.146 169.717C261.499 169.218 261.935 168.807 262.453 168.482C262.97 168.158 263.54 167.935 264.16 167.814Z" fill="black"/>
</g>
</svg>
