<?xml version="1.0" standalone="no"?>
<!DOCTYPE svg PUBLIC "-//W3C//DTD SVG 20010904//EN"
 "http://www.w3.org/TR/2001/REC-SVG-20010904/DTD/svg10.dtd">
<svg version="1.0" xmlns="http://www.w3.org/2000/svg"
 width="260.000000pt" height="260.000000pt" viewBox="0 0 260.000000 260.000000"
 preserveAspectRatio="xMidYMid meet">
<metadata>
Created by potrace 1.14, written by Peter Selinger 2001-2017
</metadata>
<g transform="translate(0.000000,260.000000) scale(0.100000,-0.100000)"
fill="#000000" stroke="none">
<path d="M1246 2330 c-248 -30 -438 -184 -514 -415 -26 -76 -52 -204 -52 -249
0 -28 -3 -33 -18 -29 -10 2 -25 -3 -32 -12 -15 -18 -8 -60 24 -158 l15 -48
-77 7 c-42 3 -95 10 -117 15 -43 9 -59 -2 -51 -33 2 -10 -1 -21 -6 -25 -7 -3
-8 -1 -4 5 4 7 3 12 -2 12 -10 0 -26 -29 -24 -42 1 -5 -3 -8 -9 -8 -6 0 -9 6
-6 14 6 14 -12 26 -39 26 -9 0 -13 -4 -9 -10 3 -5 11 -7 18 -4 7 2 13 -4 14
-15 1 -15 -7 -23 -35 -31 -20 -5 -42 -10 -48 -10 -25 0 -57 -54 -104 -177 -52
-139 -61 -187 -34 -197 20 -8 142 -8 172 0 20 6 22 12 22 76 0 127 50 169 103
86 14 -23 25 -28 58 -28 60 0 107 23 114 57 11 50 14 53 43 53 26 0 30 5 39
43 l9 42 14 -57 c17 -73 44 -118 70 -118 17 0 20 -7 20 -42 0 -64 26 -227 43
-274 15 -40 15 -42 -8 -52 -12 -6 -38 -30 -56 -54 -56 -71 -153 -161 -214
-197 -54 -33 -64 -35 -179 -42 -134 -9 -180 -17 -304 -56 l-82 -25 0 -179 0
-179 427 2 427 3 18 60 c33 112 33 144 0 221 -57 135 -86 330 -59 396 13 30
51 59 61 46 2 -1 18 -25 36 -52 102 -152 289 -331 495 -475 52 -36 54 -39 31
-45 -34 -9 -78 -48 -121 -109 -36 -50 -35 -49 31 20 59 61 115 97 128 82 2 -2
21 -38 42 -79 l38 -75 13 69 c7 38 15 71 17 73 10 10 59 -12 84 -38 25 -27
207 -107 218 -97 2 3 -35 19 -84 37 -48 18 -100 46 -117 62 -16 15 -43 33 -58
38 -16 6 -27 14 -25 19 23 45 114 235 143 297 l36 80 21 -25 c33 -40 86 -159
105 -235 9 -38 33 -116 52 -172 l36 -103 303 0 302 0 0 53 0 53 -72 23 c-40
13 -127 47 -193 76 -66 29 -165 67 -220 84 -55 18 -113 42 -130 53 -53 37
-126 112 -161 166 -32 49 -34 58 -28 100 4 29 21 68 45 102 21 31 43 69 49 85
17 44 40 161 40 201 0 30 3 34 28 34 15 0 35 7 44 14 16 11 53 85 72 140 5 16
13 18 54 13 26 -4 92 -7 147 -8 l99 -2 13 52 c20 77 9 91 -72 91 -35 0 -67 -5
-70 -10 -5 -9 -91 -5 -102 4 -1 1 4 24 12 51 22 71 19 137 -6 169 -11 14 -26
26 -33 26 -9 0 -15 27 -19 93 -20 285 -174 518 -405 612 -115 47 -312 71 -446
55z m359 -45 c121 -35 207 -85 286 -165 74 -75 137 -188 164 -295 25 -98 38
-246 26 -292 -11 -41 -74 -133 -91 -133 -6 0 -10 25 -10 55 0 57 -27 144 -59
184 -18 23 -18 25 7 95 34 96 35 193 4 258 -31 63 -150 175 -196 183 -35 7
-67 -4 -170 -62 -92 -50 -241 -44 -429 18 -92 31 -150 36 -190 18 -28 -13 -77
-85 -103 -154 -23 -61 -26 -190 -5 -254 14 -39 13 -44 -2 -53 -24 -13 -49 -64
-62 -126 l-11 -54 -37 56 -38 57 12 87 c45 348 229 556 534 606 17 2 86 3 155
1 98 -3 145 -9 215 -30z m148 -129 c49 -21 145 -120 169 -172 28 -65 26 -151
-6 -248 l-26 -76 29 -40 c39 -54 55 -126 47 -207 l-7 -64 61 67 c34 37 64 80
67 97 7 35 29 45 51 23 21 -20 21 -112 1 -171 l-14 -40 -59 -3 -59 -3 42 47
c22 26 41 51 41 56 0 6 -18 -13 -40 -40 -21 -28 -43 -53 -48 -56 -5 -3 -7 -25
-5 -49 3 -23 1 -59 -5 -80 -12 -42 -6 -50 8 -11 8 20 14 24 33 18 12 -3 23 -8
25 -9 1 -1 -7 -28 -18 -58 -22 -59 -59 -97 -93 -97 -18 0 -19 5 -14 45 4 24 3
46 -2 49 -4 3 -11 -43 -14 -102 -12 -198 -48 -284 -172 -407 -140 -140 -270
-179 -467 -141 -151 29 -211 65 -249 150 -7 14 -16 23 -20 20 -12 -7 -103 135
-125 194 -9 26 -21 51 -26 57 -5 5 -2 -9 6 -31 33 -93 87 -180 179 -286 38
-44 63 -62 106 -79 140 -53 312 -61 418 -21 55 21 127 68 184 119 l37 34 -5
-43 c-7 -49 -149 -373 -186 -421 -14 -18 -30 -59 -37 -91 l-12 -59 -37 73
c-25 49 -47 78 -67 88 -38 20 -255 192 -322 256 -126 120 -253 293 -276 376
-21 75 -37 233 -32 322 2 40 2 54 -1 31 -5 -49 -25 -72 -47 -53 -15 12 -39 77
-51 137 -6 32 -6 32 23 23 l30 -8 4 50 c2 34 -1 53 -11 61 -8 7 -25 35 -37 62
-13 28 -24 44 -24 37 0 -7 7 -27 16 -43 17 -35 14 -44 -13 -35 -33 11 -80 204
-54 220 12 8 60 -48 105 -122 36 -59 60 -87 35 -40 -15 27 -6 115 16 159 9 19
28 43 41 55 24 20 24 21 9 57 -40 96 -25 231 38 335 54 91 95 99 237 53 129
-43 197 -54 302 -49 88 4 98 7 181 51 48 26 92 47 98 47 5 0 24 -6 42 -14z
m-1293 -778 c-11 -18 -20 -40 -20 -49 0 -9 -7 -20 -16 -23 -8 -3 -12 -2 -9 4
3 6 -3 10 -14 10 -17 0 -13 7 22 45 50 52 64 57 37 13z m153 15 c-13 -2 -35
-2 -50 0 -16 2 -5 4 22 4 28 0 40 -2 28 -4z m3 -36 c-3 -12 -6 -39 -6 -59 0
-36 -2 -38 -32 -38 -18 0 -50 3 -70 6 l-38 7 0 52 c0 28 2 54 4 56 2 2 37 2
76 1 68 -4 72 -5 66 -25z m67 26 c-7 -2 -21 -2 -30 0 -10 3 -4 5 12 5 17 0 24
-2 18 -5z m75 -10 c2 -9 -7 -13 -27 -13 -21 0 -31 5 -31 16 0 19 51 16 58 -3z
m-70 -25 c-7 -20 -48 -23 -48 -4 0 11 9 16 26 16 16 0 24 -5 22 -12z m67 -8
c-3 -5 -17 -10 -31 -10 -13 0 -24 5 -24 10 0 6 14 10 31 10 17 0 28 -4 24 -10z
m-75 -30 c0 -5 -12 -10 -26 -10 -14 0 -23 4 -19 10 3 6 15 10 26 10 10 0 19
-4 19 -10z m63 3 c-7 -2 -21 -2 -30 0 -10 3 -4 5 12 5 17 0 24 -2 18 -5z
m1604 0 c-20 -2 -52 -2 -70 0 -17 2 0 4 38 4 39 0 53 -2 32 -4z m-39 -19 c39
-4 72 -10 72 -15 0 -11 -51 -11 -233 -2 -106 5 -137 9 -142 21 -5 12 11 14
112 8 65 -4 151 -9 191 -12z m-1633 -14 c-3 -5 -15 -10 -26 -10 -10 0 -19 5
-19 10 0 6 12 10 26 10 14 0 23 -4 19 -10z m-217 -22 c3 -15 75 -28 163 -28
49 0 50 -11 3 -32 -32 -15 -39 -15 -51 -2 -15 14 -104 20 -116 7 -4 -3 -1 -13
6 -22 7 -9 18 -28 25 -43 10 -25 9 -28 -7 -28 -30 0 -43 25 -38 72 6 56 0 68
-32 68 -15 0 -35 6 -44 13 -15 10 -9 12 35 12 40 -1 54 -5 56 -17z m1810 -14
c56 -4 102 -11 102 -15 0 -5 -10 -7 -22 -4 -13 2 -87 6 -165 7 -79 2 -143 6
-143 10 0 3 -8 9 -17 12 -18 5 48 2 245 -10z m-1605 -1 c-7 -2 -19 -2 -25 0
-7 3 -2 5 12 5 14 0 19 -2 13 -5z m1677 -34 c23 -6 -2 -7 -74 -4 -60 3 -136 5
-168 5 -37 0 -57 4 -53 10 7 12 239 3 295 -11z m-1779 -19 c23 -13 25 -52 4
-70 -9 -7 -17 -11 -18 -9 -1 2 -10 14 -20 26 -15 17 -16 25 -7 42 12 24 14 25
41 11z m-96 -98 c-3 -3 -11 0 -18 7 -9 10 -8 11 6 5 10 -3 15 -9 12 -12z"/>
<path d="M1165 1885 c110 -31 333 -43 460 -27 28 4 -35 7 -145 8 -145 0 -214
4 -270 17 -89 20 -116 21 -45 2z"/>
<path d="M1159 1814 c96 -30 369 -45 475 -26 21 4 -53 7 -165 7 -157 1 -220 5
-272 18 -81 20 -100 21 -38 1z"/>
<path d="M1148 1744 c24 -7 77 -18 118 -24 81 -11 334 -12 372 -2 13 4 -68 7
-180 7 -157 1 -219 5 -271 18 -80 20 -100 21 -39 1z"/>
<path d="M983 1637 c-34 -12 -65 -25 -68 -29 -11 -11 86 -23 170 -21 44 2 107
-4 140 -11 33 -8 62 -12 65 -9 3 3 -12 20 -33 38 -67 58 -167 69 -274 32z"/>
<path d="M1580 1640 c-58 -6 -88 -18 -111 -46 -13 -16 -9 -17 61 -12 59 5 86
2 125 -13 51 -19 165 -26 165 -10 0 5 -15 11 -32 15 -18 4 -49 19 -68 35 -42
34 -68 39 -140 31z"/>
<path d="M1073 1495 c-50 -49 -92 -105 -79 -105 4 0 21 7 37 16 17 8 32 14 33
12 1 -2 7 -16 14 -31 10 -23 18 -28 40 -25 16 2 31 12 37 26 12 26 22 28 47 5
10 -9 18 -11 18 -5 0 24 -32 91 -46 96 -8 3 -22 18 -31 33 l-18 28 -52 -50z
m72 -95 c0 -27 -29 -40 -48 -21 -9 9 -8 14 3 21 13 9 13 11 0 20 -12 8 -8 10
15 8 25 -2 30 -8 30 -28z"/>
<path d="M1567 1460 c-63 -60 -70 -75 -32 -66 21 5 25 3 25 -17 0 -29 18 -47
45 -47 27 0 45 18 45 47 0 27 1 27 45 9 57 -24 46 9 -31 89 l-39 41 -58 -56z
m60 -67 c-20 -5 -17 -30 3 -25 6 1 10 -3 8 -10 -11 -33 -68 -14 -68 23 0 15 7
19 38 18 20 -1 29 -3 19 -6z"/>
<path d="M1263 1462 c37 -42 42 -61 37 -132 -3 -50 -47 -187 -76 -236 -13 -23
-20 -45 -16 -49 4 -3 1 -5 -7 -3 -13 3 -91 -123 -91 -147 0 -5 16 19 35 54 44
82 51 89 59 57 3 -13 16 -28 29 -32 12 -4 37 -20 55 -35 38 -34 70 -37 105 -9
14 11 36 20 49 20 38 0 68 27 68 62 l0 31 20 -26 c11 -14 33 -54 50 -89 16
-34 30 -57 30 -50 0 22 -59 130 -91 167 -36 41 -59 47 -35 9 23 -34 17 -65
-16 -84 -27 -14 -29 -14 -58 18 -28 31 -33 33 -90 31 -46 -2 -65 2 -78 14 -15
16 -15 20 2 65 86 223 88 338 6 391 -19 12 -16 6 13 -27z"/>
<path d="M1441 1441 c-7 -16 -11 -42 -8 -57 4 -28 4 -28 6 4 0 18 6 42 12 54
6 11 9 22 6 24 -2 3 -10 -9 -16 -25z"/>
<path d="M1001 1328 c6 -11 19 -28 30 -39 10 -10 19 -24 19 -30 0 -6 9 -22 20
-36 11 -14 20 -37 20 -52 0 -14 5 -33 10 -41 7 -11 10 -7 10 18 0 33 46 112
74 129 14 8 36 45 36 60 0 4 -52 8 -115 9 -110 1 -114 0 -104 -18z"/>
<path d="M1501 1308 c6 -12 16 -25 20 -28 21 -14 69 -126 70 -164 l1 -41 8 46
c8 46 52 129 69 129 5 0 18 15 29 34 l20 33 -82 0 c-44 0 -96 3 -114 8 -33 7
-33 6 -21 -17z"/>
<path d="M1433 1245 c0 -27 2 -38 4 -22 2 15 2 37 0 50 -2 12 -4 0 -4 -28z"/>
<path d="M880 944 c0 -23 25 -66 53 -92 14 -13 30 -44 37 -70 19 -76 32 -114
35 -110 2 2 -5 35 -15 73 -10 38 -17 71 -15 73 2 2 34 -27 72 -65 39 -38 92
-81 120 -95 41 -20 49 -28 41 -41 -7 -14 -2 -13 27 4 48 28 138 22 187 -12 21
-15 28 -17 19 -6 -15 19 -17 19 72 35 32 6 70 20 85 30 15 11 56 32 92 47 91
38 128 62 145 96 14 26 14 29 0 29 -8 0 -41 -13 -72 -30 -68 -36 -117 -38
-215 -9 -65 20 -73 20 -117 6 -59 -19 -127 -14 -177 12 -30 17 -57 21 -123 21
-97 0 -148 20 -212 82 -26 25 -39 33 -39 22z"/>
<path d="M1350 853 c0 -43 5 -41 13 5 4 18 2 32 -3 32 -6 0 -10 -16 -10 -37z"/>
<path d="M1132 475 c2 -3 48 -14 102 -25 65 -13 118 -31 160 -55 54 -30 72
-35 122 -34 l59 2 -67 7 c-46 4 -78 14 -105 32 -46 30 -84 43 -188 63 -90 17
-90 17 -83 10z"/>
<path d="M492 1348 c3 -8 26 -14 56 -16 42 -2 52 0 52 12 0 13 -12 16 -56 16
-40 0 -55 -4 -52 -12z"/>
<path d="M480 1301 c0 -13 27 -21 76 -21 34 0 42 3 38 15 -5 11 -21 15 -60 15
-30 0 -54 -4 -54 -9z"/>
</g>
</svg>
