<svg width="275" height="337" viewBox="0 0 275 337" fill="none" xmlns="http://www.w3.org/2000/svg">
<g clip-path="url(#clip0_76_3964)">
<rect width="275" height="336.101" fill="#0D51FF"/>
<rect x="7.62939e-05" width="275" height="336.101" fill="#0D51FF"/>
<rect x="7.62939e-05" width="275" height="336.101" fill="black" fill-opacity="0.2"/>
<path fill-rule="evenodd" clip-rule="evenodd" d="M85.8964 186.951C86.2706 190.959 87.3186 200.425 88.5163 206.227C88.6376 206.814 88.753 207.419 88.8722 208.044C89.7316 212.547 90.7878 218.081 95.6441 225.532C94.2304 249.067 89.0223 250.327 82.215 251.975C80.2515 252.45 78.1549 252.957 75.978 254.04C71.0325 256.502 61.1209 257.246 51.0751 258C40.8784 258.766 30.5434 259.542 25.1231 262.134C20.9157 264.146 15.8925 267.973 11.0475 271.664C5.97965 275.524 1.10687 279.236 -2.43304 280.567V338.58H277.199V280.567C275.605 280.534 272.985 279.452 269.635 278.069C265.049 276.175 259.096 273.717 252.543 272.614C238.367 270.228 229.619 266.953 221.057 262.134C217.369 260.058 212.891 258.877 208.528 257.726C202.763 256.204 197.198 254.736 193.922 251.327C190.481 247.746 184.09 240.928 180.86 236.436C180.961 233.488 181.247 231.225 181.474 229.432C181.73 227.41 181.91 225.985 181.664 224.847C185.392 220.855 192.612 208.135 191.676 189.197C190.741 170.259 194.437 158.413 196.402 154.857L194.624 123.418C193.49 106.108 188.261 74.6215 136.049 74.6215C92.9608 74.6215 77.8026 106.154 78.1301 123.418L78.4108 156.261L85.8964 186.951Z" fill="#ACC27E"/>
<path d="M88.5163 206.227L88.9287 206.141L88.5163 206.227ZM85.8964 186.951L86.3156 186.912L86.3127 186.881L86.3054 186.852L85.8964 186.951ZM88.8722 208.044L88.4586 208.122L88.8722 208.044ZM95.6441 225.532L96.0644 225.557L96.0728 225.419L95.9969 225.302L95.6441 225.532ZM82.215 251.975L82.116 251.565H82.116L82.215 251.975ZM75.978 254.04L76.1656 254.417L75.978 254.04ZM51.0751 258L51.1066 258.42L51.0751 258ZM25.1231 262.134L24.9414 261.754L25.1231 262.134ZM11.0475 271.664L10.7924 271.329H10.7924L11.0475 271.664ZM-2.43304 280.567L-2.58128 280.173L-2.85411 280.276V280.567H-2.43304ZM-2.43304 338.58H-2.85411V339.001H-2.43304V338.58ZM277.199 338.58V339.001H277.62V338.58H277.199ZM277.199 280.567H277.62V280.155L277.207 280.146L277.199 280.567ZM269.635 278.069L269.474 278.458L269.635 278.069ZM252.543 272.614L252.473 273.029L252.543 272.614ZM221.057 262.134L221.264 261.767L221.057 262.134ZM208.528 257.726L208.636 257.318L208.528 257.726ZM193.922 251.327L194.226 251.035L193.922 251.327ZM180.86 236.436L180.439 236.421L180.434 236.565L180.518 236.682L180.86 236.436ZM181.474 229.432L181.892 229.485L181.474 229.432ZM181.664 224.847L181.357 224.56L181.206 224.72L181.253 224.936L181.664 224.847ZM191.676 189.197L192.097 189.176L191.676 189.197ZM196.402 154.857L196.77 155.061L196.829 154.954L196.822 154.833L196.402 154.857ZM194.624 123.418L195.044 123.394L195.044 123.39L194.624 123.418ZM78.1301 123.418L78.5512 123.414L78.5511 123.41L78.1301 123.418ZM78.4108 156.261L77.9898 156.264L77.9902 156.313L78.0017 156.36L78.4108 156.261ZM88.9287 206.141C87.7361 200.365 86.6898 190.919 86.3156 186.912L85.4771 186.99C85.8515 190.999 86.9011 200.486 88.1039 206.312L88.9287 206.141ZM89.2858 207.965C89.1667 207.34 89.0507 206.732 88.9287 206.141L88.1039 206.312C88.2244 206.895 88.3393 207.497 88.4586 208.122L89.2858 207.965ZM95.9969 225.302C91.1853 217.92 90.1417 212.449 89.2858 207.965L88.4586 208.122C89.3215 212.644 90.3903 218.242 95.2914 225.762L95.9969 225.302ZM82.3141 252.384C85.713 251.561 88.8719 250.808 91.3015 247.196C93.6996 243.632 95.3572 237.331 96.0644 225.557L95.2238 225.507C94.5173 237.268 92.864 243.365 90.6028 246.726C88.3731 250.041 85.5244 250.741 82.116 251.565L82.3141 252.384ZM76.1656 254.417C78.2946 253.358 80.3476 252.86 82.3141 252.384L82.116 251.565C80.1555 252.04 78.0153 252.556 75.7904 253.664L76.1656 254.417ZM51.1066 258.42C56.1262 258.043 61.1289 257.668 65.4956 257.078C69.8512 256.489 73.6258 255.681 76.1656 254.417L75.7904 253.664C73.3847 254.861 69.7308 255.656 65.3828 256.243C61.0458 256.829 56.0698 257.203 51.0436 257.58L51.1066 258.42ZM25.3048 262.514C27.9515 261.248 31.8341 260.412 36.3644 259.799C40.8854 259.188 46.0051 258.803 51.1066 258.42L51.0436 257.58C45.9484 257.963 40.8022 258.349 36.2515 258.965C31.7101 259.579 27.715 260.428 24.9414 261.754L25.3048 262.514ZM11.3027 271.999C16.1607 268.298 21.1453 264.503 25.3048 262.514L24.9414 261.754C20.6861 263.79 15.6242 267.648 10.7924 271.329L11.3027 271.999ZM-2.28481 280.961C-0.46469 280.277 1.67325 278.991 3.97277 277.411C6.27705 275.827 8.77083 273.927 11.3027 271.999L10.7924 271.329C8.25633 273.26 5.77979 275.147 3.49574 276.717C1.20692 278.29 -0.861484 279.526 -2.58128 280.173L-2.28481 280.961ZM-2.01198 338.58V280.567H-2.85411V338.58H-2.01198ZM277.199 338.159H-2.43304V339.001H277.199V338.159ZM276.778 280.567V338.58H277.62V280.567H276.778ZM269.474 278.458C271.146 279.148 272.65 279.77 273.936 280.222C275.212 280.671 276.321 280.97 277.19 280.988L277.207 280.146C276.483 280.131 275.485 279.874 274.215 279.427C272.955 278.984 271.474 278.373 269.795 277.68L269.474 278.458ZM252.473 273.029C258.973 274.123 264.884 276.563 269.474 278.458L269.795 277.68C265.213 275.787 259.22 273.311 252.613 272.199L252.473 273.029ZM220.851 262.501C229.46 267.347 238.255 270.636 252.473 273.029L252.613 272.199C238.479 269.82 229.778 266.559 221.264 261.767L220.851 262.501ZM208.421 258.133C212.796 259.287 217.218 260.457 220.851 262.501L221.264 261.767C217.52 259.66 212.986 258.467 208.636 257.318L208.421 258.133ZM193.618 251.619C195.316 253.386 197.59 254.632 200.138 255.626C202.686 256.62 205.543 257.373 208.421 258.133L208.636 257.318C205.747 256.556 202.939 255.815 200.444 254.842C197.95 253.869 195.803 252.677 194.226 251.035L193.618 251.619ZM180.518 236.682C183.769 241.202 190.181 248.042 193.618 251.619L194.226 251.035C190.781 247.45 184.411 240.653 181.202 236.19L180.518 236.682ZM181.056 229.379C180.829 231.174 180.541 233.453 180.439 236.421L181.281 236.45C181.381 233.523 181.665 231.277 181.892 229.485L181.056 229.379ZM181.253 224.936C181.48 225.987 181.316 227.327 181.056 229.379L181.892 229.485C182.144 227.493 182.34 225.983 182.076 224.758L181.253 224.936ZM191.256 189.218C192.186 208.048 185.003 220.654 181.357 224.56L181.972 225.134C185.781 221.055 193.038 208.223 192.097 189.176L191.256 189.218ZM196.033 154.653C194.018 158.3 190.318 170.231 191.256 189.218L192.097 189.176C191.164 170.286 194.855 158.526 196.77 155.061L196.033 154.653ZM194.203 123.442L195.981 154.881L196.822 154.833L195.044 123.394L194.203 123.442ZM136.049 75.0425C162.067 75.0425 176.288 82.883 184.161 92.7902C192.052 102.719 193.638 114.806 194.204 123.445L195.044 123.39C194.476 114.72 192.881 102.408 184.821 92.2663C176.743 82.103 162.244 74.2004 136.049 74.2004V75.0425ZM78.5511 123.41C78.2275 106.351 93.2262 75.0425 136.049 75.0425V74.2004C92.6955 74.2004 77.3778 105.957 77.7091 123.426L78.5511 123.41ZM78.8319 156.257L78.5512 123.414L77.7091 123.421L77.9898 156.264L78.8319 156.257ZM86.3054 186.852L78.8199 156.161L78.0017 156.36L85.4873 187.051L86.3054 186.852Z" fill="black"/>
<path d="M120.33 246.087C124.868 248.333 138.192 247.556 143.956 251.187C151.161 255.725 155.98 256.005 161.968 254.321" stroke="black" stroke-width="1.02926"/>
<path d="M91.9785 207.349C93.3352 212.698 100.877 226.531 110.271 234.204" stroke="black" stroke-width="1.02926"/>
<path d="M191.676 182.413C191.817 188.901 191.527 203.691 189.244 210.952C186.39 220.028 174.834 237.993 157.851 243.748C140.868 249.502 119.301 243.233 115.464 240.146C111.628 237.058 106.809 229.572 104.423 220.262C102.514 212.814 96.766 205.681 94.1305 203.045" stroke="black" stroke-width="0.935692"/>
<path d="M199.957 146.81C197.674 151.451 194.702 156.354 193.501 158.226C192.051 160.378 189.684 168.041 191.817 181.478V189.057C193.08 189.291 196.196 189.253 198.554 187.232C201.501 184.706 202.811 176.659 204.917 171.326C207.022 165.992 210.811 159.489 211.373 150.46C211.934 141.43 208.566 138.904 206.32 138.904C204.074 138.904 202.811 141.009 199.957 146.81Z" fill="#ACC27E" stroke="black" stroke-width="1.02926"/>
<path d="M196.495 177.454C197.634 174.382 199.228 167.134 196.495 162.717C198.429 160.799 202.839 155.727 205.01 150.787" stroke="black" stroke-width="0.935692"/>
<path d="M188.882 168.94C188.973 163.264 189.87 159.741 190.307 158.689C193.077 156.073 194.751 163.535 193.84 168.689C192.928 173.844 193.235 177.114 191.677 178.858C190.118 180.602 188.768 176.036 188.882 168.94Z" fill="#ACC27E"/>
<path d="M164.728 130.623C154.108 132.541 128.854 135.226 112.798 130.623" stroke="black" stroke-width="1.02926"/>
<path d="M164.728 123.886C154.108 125.804 128.854 128.489 112.798 123.886" stroke="black" stroke-width="1.02926"/>
<path d="M164.728 117.149C154.108 119.067 128.854 121.752 112.798 117.149" stroke="black" stroke-width="1.02926"/>
<path d="M83.8379 189.431C86.9818 189.131 86.8321 184.94 86.3643 182.881C87.4497 176.893 84.2278 163.076 82.4812 156.916C81.3427 155.122 78.1395 150.319 74.4342 145.453C69.8025 139.371 67.8843 140.447 66.9954 142.178C66.1065 143.909 66.7615 147.886 69.4282 153.36C72.095 158.834 73.2178 165.337 75.1827 172.495L75.2211 172.635C77.1836 179.784 79.9335 189.803 83.8379 189.431Z" fill="#ACC27E" stroke="black" stroke-width="1.02926"/>
<path d="M82.9958 168.939C81.7981 163.624 81.8729 160.144 82.0601 159.068C84.1654 156.027 87.4871 162.623 87.7678 167.629C88.0485 172.635 88.0953 175.957 86.9725 177.922C85.8496 179.887 84.4929 175.583 82.9958 168.939Z" fill="#ACC27E"/>
<path d="M73.826 153.22C74.4966 155.918 76.9232 162.006 81.2648 164.775C80.7033 165.883 79.9174 169.351 81.2648 174.366" stroke="black" stroke-width="0.935692"/>
<path d="M120.517 274.158C122.839 274.167 129.868 275.45 129.681 279.016C129.494 282.581 132.26 284.731 132.338 285.151" stroke="black" stroke-width="0.935692"/>
<path d="M154.389 274.017C152.132 274.026 145.698 275.45 145.88 279.015C146.062 282.581 143.845 284.686 143.769 285.105" stroke="black" stroke-width="0.935692"/>
<path d="M38.9247 335.773C40.2191 333.122 43.0605 326.791 44.071 322.673" stroke="black" stroke-width="0.935692"/>
<path d="M241.754 337.904C240.7 334.454 238.591 326.106 238.583 320.309" stroke="black" stroke-width="0.935692"/>
<ellipse cx="185.351" cy="181.601" rx="3.60242" ry="4.93132" transform="rotate(9.12393 185.351 181.601)" fill="#96AB6B"/>
<ellipse cx="90.7193" cy="118.016" rx="3.60242" ry="4.93132" transform="rotate(-5.7001 90.7193 118.016)" fill="#96AB6B"/>
<ellipse cx="92.1987" cy="129.585" rx="1.58668" ry="2.172" transform="rotate(-5.7001 92.1987 129.585)" fill="#96AB6B"/>
<path d="M186.261 193.314C186.13 194.127 185.773 194.808 185.322 195.255C184.871 195.702 184.351 195.895 183.865 195.817C183.378 195.738 182.945 195.393 182.656 194.827C182.368 194.261 182.242 193.503 182.372 192.689C182.503 191.876 182.86 191.195 183.311 190.748C183.762 190.301 184.282 190.108 184.769 190.187C185.256 190.265 185.689 190.611 185.977 191.176C186.266 191.742 186.392 192.5 186.261 193.314Z" stroke="#96AB6B" stroke-width="0.842123"/>
<path d="M115.885 207.256C119.332 198.512 123.605 192.035 125.804 188.963L124.353 193.595L124.541 196.542L126.272 198.18L130.529 199.069L131.324 200.379L133.991 202.952C134.365 203.264 135.694 203.878 138.014 203.841C140.335 203.803 143.317 200.737 144.518 199.209C147.605 199.911 151.161 198.18 152.003 195.232C152.677 192.874 151.286 190.07 150.506 188.963V188.355C152.346 190.257 156.625 194.905 159.021 198.273C162.015 202.484 164.775 212.776 162.576 207.583C160.817 203.429 156.666 198.148 154.623 195.7C153.687 200.341 148.525 202.375 146.108 202.484C145.562 204.62 142.964 208.828 136.938 208.566C130.913 208.304 128.845 204.152 128.564 202.11C126.243 202.035 124.572 200.768 124.026 200.145C121.078 202.39 113.359 213.665 115.885 207.256Z" fill="black" fill-opacity="0.2"/>
<path d="M139.278 206.227C139.48 207.521 139.764 210.587 139.278 212.496" stroke="black" stroke-width="1.02926"/>
<path d="M123.137 149.617C126.604 151.273 133.37 155.864 131.758 166.533C129.743 179.869 126.37 188.302 124.917 192.151C123.465 196 123.934 198.864 130.587 199.177C131.321 200.788 133.744 203.965 137.568 203.786C141.391 203.607 143.752 200.639 144.455 199.177C146.188 199.699 150.086 199.884 151.811 196.447C153.535 193.01 150.561 189.436 148.859 188.079" stroke="black" stroke-width="1.02926"/>
<path d="M126.318 187.934C124.525 190.039 119.881 197.02 115.651 208.098" stroke="black" stroke-width="0.842123"/>
<path d="M149.477 187.793C153.126 189.883 159.432 197.291 162.951 206.461" stroke="black" stroke-width="0.842123"/>
<path d="M145.687 151.161C144.829 151.66 143.151 154.417 143.301 161.454C143.451 168.49 144.58 175.053 145.126 177.454" stroke="black" stroke-width="0.842123"/>
<path d="M115.745 340.873V263.117L157.711 274.532L194.764 261.058L208.847 340.873H115.745Z" fill="white" stroke="black" stroke-width="0.935692"/>
<path d="M93.1951 242.391C87.2815 233.933 89.733 227.451 91.698 225.268C89.1716 225.455 87.6745 228.449 83.651 234.578C79.6275 240.707 66.9957 252.31 59.1827 253.994C51.3696 255.678 41.9192 253.994 25.2638 260.731C11.9396 266.12 2.2302 268.029 -1.87125 269.667V337.504H137.126C132.837 326.791 123.034 302.191 118.131 289.503C112.003 273.643 100.587 252.965 93.1951 242.391Z" fill="#CC1BDB" stroke="black" stroke-width="0.935692"/>
<path d="M188.916 275.936C185.398 265.231 183.068 246.243 181.618 238.555C185.766 242.859 194.231 250.569 200.706 254.462C208.8 259.327 215.677 257.643 234.625 265.269C249.783 271.37 268.793 274.735 275.936 275.187V337.317H205.572C204.792 334.011 202.727 324.536 200.706 313.083C198.18 298.767 193.314 289.316 188.916 275.936Z" fill="#CC1BDB" stroke="black" stroke-width="0.935692"/>
<path d="M125.476 254.929C113.125 246.62 99.9633 230.788 94.9261 223.911C88.9845 223.911 87.4406 229.572 88.0488 235.841C88.657 242.11 99.3239 257.549 106.388 268.216C112.04 276.75 119.223 297.16 122.108 306.299C125.024 305.02 132.653 299.44 139.839 287.351C147.025 275.262 155.465 270.368 158.787 269.433C152.83 268.06 137.828 263.238 125.476 254.929Z" fill="white" stroke="black" stroke-width="0.935692"/>
<path d="M180.916 238.508C172.27 259.842 162.171 268.107 158.085 269.433C166.207 270.818 173.212 277.62 175.817 280.988L196.168 294.135L188.074 272.146C186.091 259.645 182.476 244.512 180.916 238.508Z" fill="white" stroke="black" stroke-width="0.935692"/>
<path d="M143.067 282.532C147.297 274.822 155.122 270.555 158.506 269.386C166.329 270.322 173.15 277.542 175.583 281.035L169.173 293.012C178.343 295.024 182.522 328.007 183.349 339.61H156.027C153.204 332.264 147.793 316.301 148.728 309.153C149.664 302.004 151.224 295.585 153.267 293.012L143.067 282.532Z" fill="#1EA153" stroke="black" stroke-width="0.935692"/>
<path d="M80.8907 154.422C78.6451 150.977 73.7483 144.672 71.5806 141.95C71.5806 129.478 71.5806 71.0192 136.284 71.0192C200.987 71.0192 204.355 130.599 204.355 139.797C204.355 147.154 197.057 154.587 193.408 157.384C195.878 143.314 188.823 133.665 184.986 130.599C196.074 101.123 182.039 93.5861 173.15 86.4974C164.261 79.4088 157.196 87.6191 150.834 91.4774C144.471 95.3358 127.629 96.9958 110.786 91.4774C97.3121 87.0627 91.7604 90.954 90.6687 93.4515C78.9539 110.679 84.1345 127.309 88.1891 133.471C80.9656 136.593 80.3137 148.74 80.8907 154.422Z" fill="#FF7A00" stroke="black" stroke-width="0.935692"/>
<path fill-rule="evenodd" clip-rule="evenodd" d="M115.383 154.015C123.941 154.015 127.408 156.033 127.692 159.351C128.017 163.16 125.722 164.951 122.953 167.111C121.355 168.358 119.6 169.728 118.098 171.681C114.936 175.794 99.8375 175.94 98.1815 167.376C98.1674 167.303 98.1539 167.23 98.1412 167.158C97.5869 167.07 96.8377 167.018 95.8814 167.068C93.3756 167.197 92.9799 165.999 94.7603 165.999C95.776 165.999 97.042 165.648 97.9679 165.321C97.9633 164.841 97.9924 164.376 98.0536 163.925C97.347 163.807 96.3839 163.679 95.3011 163.535C94.909 163.483 94.5012 163.429 94.0842 163.372C90.8712 162.936 90.4819 161.814 93.1953 162.062C94.7766 162.207 97.2573 162.024 98.5835 161.879C100.586 156.787 107.252 154.015 115.383 154.015Z" fill="#76884F"/>
<path d="M127.692 159.351L127.225 159.39V159.39L127.692 159.351ZM122.953 167.111L122.666 166.742L122.953 167.111ZM118.098 171.681L117.727 171.396L118.098 171.681ZM98.1815 167.376L98.6408 167.288H98.6408L98.1815 167.376ZM98.1412 167.158L98.6021 167.077L98.5444 166.748L98.2143 166.696L98.1412 167.158ZM95.8814 167.068L95.9055 167.535L95.8814 167.068ZM97.9679 165.321L98.1236 165.762L98.4389 165.651L98.4357 165.316L97.9679 165.321ZM98.0536 163.925L98.5172 163.988L98.5782 163.538L98.1306 163.464L98.0536 163.925ZM95.3011 163.535L95.3628 163.071L95.3011 163.535ZM94.0842 163.372L94.0213 163.835L94.0842 163.372ZM93.1953 162.062L93.2379 161.596H93.2379L93.1953 162.062ZM98.5835 161.879L98.6344 162.344L98.9155 162.313L99.0189 162.05L98.5835 161.879ZM128.158 159.311C127.999 157.457 126.934 155.992 124.838 155.015C122.773 154.052 119.685 153.547 115.383 153.547V154.483C119.639 154.483 122.563 154.987 124.442 155.863C126.29 156.724 127.1 157.926 127.225 159.39L128.158 159.311ZM123.241 167.48C124.613 166.41 125.935 165.383 126.86 164.127C127.804 162.845 128.331 161.333 128.158 159.311L127.225 159.39C127.378 161.178 126.921 162.466 126.106 163.572C125.273 164.704 124.063 165.652 122.666 166.742L123.241 167.48ZM118.469 171.966C119.929 170.067 121.64 168.73 123.241 167.48L122.666 166.742C121.071 167.987 119.27 169.39 117.727 171.396L118.469 171.966ZM97.7222 167.465C98.61 172.056 103.079 174.22 107.52 174.747C109.76 175.013 112.052 174.875 113.995 174.402C115.92 173.935 117.582 173.12 118.469 171.966L117.727 171.396C117.033 172.298 115.622 173.044 113.774 173.493C111.946 173.938 109.766 174.072 107.63 173.818C103.317 173.306 99.409 171.26 98.6408 167.288L97.7222 167.465ZM97.6804 167.239C97.6936 167.314 97.7075 167.389 97.7222 167.465L98.6408 167.288C98.6272 167.217 98.6143 167.147 98.6021 167.077L97.6804 167.239ZM95.9055 167.535C96.8329 167.487 97.5493 167.538 98.0682 167.62L98.2143 166.696C97.6245 166.602 96.8425 166.55 95.8572 166.601L95.9055 167.535ZM94.7603 165.531C94.2817 165.531 93.8665 165.609 93.5816 165.789C93.4347 165.882 93.2844 166.028 93.2226 166.241C93.157 166.467 93.2165 166.681 93.3246 166.842C93.5174 167.13 93.8878 167.306 94.2808 167.408C94.6998 167.517 95.2442 167.569 95.9055 167.535L95.8572 166.601C95.2657 166.631 94.8208 166.582 94.5165 166.503C94.1863 166.417 94.0992 166.317 94.1024 166.322C94.1157 166.342 94.1474 166.411 94.1212 166.502C94.0989 166.579 94.0551 166.597 94.0824 166.579C94.1458 166.539 94.3488 166.467 94.7603 166.467V165.531ZM97.8121 164.88C96.8971 165.203 95.6931 165.531 94.7603 165.531V166.467C95.8589 166.467 97.187 166.093 98.1236 165.762L97.8121 164.88ZM97.59 163.862C97.5257 164.336 97.4953 164.824 97.5 165.325L98.4357 165.316C98.4314 164.859 98.4591 164.416 98.5172 163.988L97.59 163.862ZM98.1306 163.464C97.4146 163.344 96.4424 163.215 95.3628 163.071L95.2394 163.999C96.3253 164.143 97.2794 164.27 97.9765 164.387L98.1306 163.464ZM95.3628 163.071C94.9706 163.019 94.5634 162.965 94.1472 162.908L94.0213 163.835C94.439 163.892 94.8474 163.947 95.2394 163.999L95.3628 163.071ZM94.1472 162.908C93.3662 162.802 92.7741 162.657 92.3686 162.509C92.1652 162.435 92.0196 162.364 91.9239 162.304C91.817 162.237 91.8141 162.21 91.8315 162.243C91.8441 162.267 91.8649 162.32 91.8581 162.394C91.8509 162.471 91.818 162.527 91.7903 162.559C91.7501 162.605 91.7383 162.584 91.856 162.553C92.072 162.497 92.4922 162.467 93.1527 162.528L93.2379 161.596C92.5417 161.532 91.993 161.55 91.6193 161.648C91.4421 161.694 91.2302 161.777 91.0836 161.946C91.0027 162.039 90.94 162.161 90.9264 162.307C90.913 162.451 90.9506 162.578 91.0032 162.678C91.1005 162.863 91.2701 162.998 91.4272 163.097C91.5955 163.202 91.8054 163.299 92.048 163.388C92.5343 163.565 93.1957 163.723 94.0213 163.835L94.1472 162.908ZM93.1527 162.528C94.7842 162.677 97.3049 162.489 98.6344 162.344L98.5327 161.414C97.2098 161.559 94.7691 161.736 93.2379 161.596L93.1527 162.528ZM115.383 153.547C111.269 153.547 107.5 154.248 104.492 155.612C101.483 156.975 99.2062 159.017 98.1481 161.708L99.0189 162.05C99.9631 159.649 102.02 157.759 104.878 156.464C107.736 155.168 111.366 154.483 115.383 154.483V153.547Z" fill="black"/>
<path d="M105.359 176.331C99.5206 174.834 97.3747 172.058 97.0317 170.857C97.7334 173.431 100.718 178.624 107.044 178.811C113.369 178.998 116.853 175.707 117.804 174.039C116.089 175.427 111.198 177.828 105.359 176.331Z" fill="#76884F"/>
<path opacity="0.4" d="M99.7173 183.272C110.666 182.388 116.637 177.361 118.255 174.958C118.179 176.485 117.004 179.993 112.905 181.814C108.805 183.636 102.405 183.545 99.7173 183.272Z" fill="#76884F"/>
<path d="M168.853 176.887C175.376 175.392 177.773 172.619 178.156 171.419C177.372 173.99 174.038 179.178 166.972 179.365C159.906 179.552 156.014 176.264 154.951 174.597C156.867 175.984 162.331 178.383 168.853 176.887Z" fill="#76884F"/>
<path d="M115.374 155.325C122.64 155.325 125.937 156.858 126.178 159.582C126.615 164.516 121.163 165.449 117.68 169.83C114.994 173.208 102.175 173.328 100.769 166.296C99.363 159.264 106.292 155.325 115.374 155.325Z" fill="black"/>
<path fill-rule="evenodd" clip-rule="evenodd" d="M159.135 154.015C150.847 154.015 147.489 156.033 147.214 159.351C146.899 163.16 149.121 164.951 151.803 167.111C153.351 168.358 155.052 169.728 156.506 171.681C159.569 175.794 174.567 175.94 176.171 167.376C176.26 166.897 176.319 166.43 176.348 165.974C176.374 165.962 176.4 165.949 176.426 165.936C177.405 165.427 178.444 165.817 179.64 166.266L179.64 166.266C179.894 166.361 180.155 166.459 180.425 166.552C181.96 167.08 182.917 166.42 182.714 165.539C182.618 165.125 182.093 165.11 181.265 165.087C180.333 165.061 179.017 165.024 177.498 164.395C176.999 164.188 176.588 163.979 176.251 163.775C176.184 163.36 176.09 162.958 175.971 162.569C177.221 162.263 178.559 161.839 177.594 161.688C176.886 161.577 176.099 161.417 175.458 161.276C173.146 156.569 166.695 154.015 159.135 154.015Z" fill="#76884F"/>
<path d="M147.214 159.351L147.681 159.389L147.214 159.351ZM151.803 167.111L152.097 166.747L151.803 167.111ZM156.506 171.681L156.881 171.401L156.506 171.681ZM176.171 167.376L175.711 167.29L176.171 167.376ZM176.348 165.974L175.882 165.944L175.899 165.672L176.145 165.553L176.348 165.974ZM176.426 165.936L176.21 165.52L176.21 165.52L176.426 165.936ZM179.64 166.266L179.482 166.706L179.475 166.704L179.64 166.266ZM179.64 166.266L179.798 165.825L179.804 165.828L179.64 166.266ZM180.425 166.552L180.272 166.994H180.272L180.425 166.552ZM182.714 165.539L182.258 165.644H182.258L182.714 165.539ZM181.265 165.087L181.278 164.62H181.278L181.265 165.087ZM177.498 164.395L177.319 164.827H177.319L177.498 164.395ZM176.251 163.775L176.008 164.175L175.823 164.063L175.789 163.849L176.251 163.775ZM175.971 162.569L175.523 162.706L175.378 162.232L175.859 162.114L175.971 162.569ZM177.594 161.688L177.667 161.226L177.594 161.688ZM175.458 161.276L175.358 161.733L175.138 161.685L175.039 161.483L175.458 161.276ZM146.748 159.312C146.901 157.465 147.929 155.998 149.967 155.017C151.971 154.052 154.967 153.547 159.135 153.547V154.483C155.015 154.483 152.188 154.987 150.373 155.86C148.591 156.718 147.802 157.918 147.681 159.389L146.748 159.312ZM151.51 167.476C150.181 166.406 148.9 165.377 148.004 164.121C147.09 162.839 146.581 161.33 146.748 159.312L147.681 159.389C147.532 161.181 147.977 162.472 148.766 163.578C149.573 164.709 150.743 165.657 152.097 166.747L151.51 167.476ZM156.131 171.96C154.717 170.061 153.061 168.725 151.51 167.476L152.097 166.747C153.641 167.991 155.387 169.395 156.881 171.401L156.131 171.96ZM176.63 167.463C175.77 172.054 171.339 174.219 166.941 174.747C164.722 175.013 162.453 174.875 160.533 174.402C158.632 173.934 156.993 173.118 156.131 171.96L156.881 171.401C157.55 172.3 158.934 173.045 160.757 173.493C162.561 173.938 164.716 174.072 166.83 173.818C171.097 173.306 174.967 171.262 175.711 167.29L176.63 167.463ZM176.815 166.004C176.785 166.479 176.724 166.966 176.63 167.463L175.711 167.29C175.797 166.829 175.854 166.38 175.882 165.944L176.815 166.004ZM176.641 166.351C176.611 166.366 176.581 166.381 176.552 166.396L176.145 165.553C176.167 165.543 176.188 165.532 176.21 165.52L176.641 166.351ZM179.475 166.704C178.867 166.475 178.352 166.284 177.874 166.203C177.411 166.125 177.016 166.157 176.641 166.351L176.21 165.52C176.815 165.206 177.43 165.179 178.03 165.281C178.614 165.38 179.217 165.608 179.804 165.828L179.475 166.704ZM179.482 166.706L179.482 166.706L179.798 165.825L179.798 165.825L179.482 166.706ZM180.272 166.994C179.996 166.899 179.729 166.799 179.475 166.704L179.804 165.828C180.059 165.923 180.314 166.019 180.577 166.109L180.272 166.994ZM183.17 165.434C183.321 166.093 183.022 166.687 182.435 166.99C181.879 167.277 181.114 167.284 180.272 166.994L180.577 166.109C181.271 166.348 181.752 166.289 182.007 166.158C182.232 166.042 182.309 165.866 182.258 165.644L183.17 165.434ZM181.278 164.62C181.672 164.631 182.067 164.639 182.372 164.711C182.531 164.749 182.705 164.812 182.854 164.931C183.015 165.058 183.122 165.23 183.17 165.434L182.258 165.644C182.257 165.642 182.263 165.656 182.273 165.664C182.273 165.664 182.266 165.659 182.247 165.65C182.227 165.642 182.198 165.632 182.156 165.622C181.967 165.577 181.686 165.567 181.252 165.555L181.278 164.62ZM177.677 163.963C179.111 164.557 180.352 164.594 181.278 164.62L181.252 165.555C180.314 165.529 178.923 165.492 177.319 164.827L177.677 163.963ZM176.493 163.375C176.808 163.565 177.197 163.764 177.677 163.963L177.319 164.827C176.801 164.613 176.368 164.393 176.008 164.175L176.493 163.375ZM176.418 162.431C176.544 162.842 176.643 163.265 176.713 163.701L175.789 163.849C175.726 163.456 175.637 163.075 175.523 162.706L176.418 162.431ZM175.859 162.114C176.486 161.961 177.096 161.786 177.425 161.642C177.506 161.606 177.548 161.581 177.565 161.57C177.573 161.564 177.56 161.571 177.541 161.594C177.524 161.614 177.475 161.677 177.46 161.78C177.443 161.901 177.482 162.01 177.54 162.085C177.588 162.147 177.637 162.171 177.644 162.175C177.657 162.181 177.63 162.167 177.522 162.15L177.667 161.226C177.8 161.246 177.943 161.278 178.062 161.338C178.161 161.387 178.436 161.563 178.387 161.912C178.367 162.048 178.301 162.145 178.253 162.201C178.204 162.259 178.149 162.303 178.104 162.334C178.013 162.398 177.906 162.452 177.802 162.498C177.389 162.68 176.705 162.87 176.082 163.023L175.859 162.114ZM177.522 162.15C176.8 162.037 176.003 161.875 175.358 161.733L175.559 160.819C176.195 160.96 176.972 161.117 177.667 161.226L177.522 162.15ZM159.135 153.547C166.75 153.547 173.444 156.116 175.878 161.07L175.039 161.483C172.847 157.022 166.639 154.483 159.135 154.483V153.547Z" fill="black"/>
<path d="M159.144 155.325C152.107 155.325 149.256 156.982 149.022 159.706C148.6 164.639 153.538 165.449 156.911 169.83C159.512 173.208 171.928 173.328 173.29 166.296C174.652 159.264 167.941 155.325 159.144 155.325Z" fill="black"/>
<path d="M129.916 163.61C129.328 164.375 126.442 170.233 120.982 172.822" stroke="black" stroke-width="0.842123"/>
<path d="M154.998 175.63C157.056 177.875 163.091 182.329 170.764 182.179C166.959 183.458 158.478 183.939 154.998 175.63Z" fill="#96AB6B"/>
<path d="M153.895 146.301C149.909 146.581 146.662 149.771 145.537 151.331L149.994 151.09C151.583 151.003 157.711 149.756 160.717 150.508C163.723 151.261 167.451 153.088 169.971 153.031C171.986 152.986 176.911 152.337 179.121 152.018C178.43 151.777 176.503 151.229 174.329 150.964C171.611 150.634 167.517 146.956 165.015 145.698C162.512 144.441 158.877 145.951 153.895 146.301Z" fill="#FFE81D" stroke="black" stroke-width="1.02926"/>
<path d="M100.164 149.808C96.3802 151.445 93.4503 152.536 92.4582 152.876C101.532 153.824 106.406 154 108.962 153.392C111.519 152.784 116.588 152.439 120.619 153.027C123.844 153.497 127.174 154.072 128.435 154.301L127.292 152.64C124.353 149.252 118.784 147.629 112.967 147.021C107.151 146.414 104.893 147.761 100.164 149.808Z" fill="#FFE81D" stroke="black" stroke-width="1.02926"/>
<path d="M126.365 231.397C127.3 229.245 130.887 226.718 137.754 226.718C144.62 226.718 148.43 229.245 149.477 231.397" stroke="black" stroke-width="1.02926"/>
<path d="M133.056 225.362C127.84 225.181 122.911 218.304 121.968 215.911C123.153 215.589 127.507 214.964 127.769 214.554C129.173 215.464 133.271 217.238 138.436 217.056C143.601 216.874 146.92 215.312 147.933 214.554L154.623 216.379C153.194 218.847 147.226 225.362 144.378 225.362C140.818 225.362 139.575 225.588 133.056 225.362Z" fill="black" fill-opacity="0.2"/>
<path d="M133.19 221.864C127.974 221.715 124.783 217.74 123.839 215.771C125.024 215.506 127.46 214.891 127.722 214.554C129.126 215.303 133.224 216.763 138.389 216.613C143.554 216.463 146.873 215.178 147.886 214.554L152.191 215.771C150.761 217.802 147.189 221.864 144.341 221.864C140.781 221.864 139.709 222.05 133.19 221.864Z" fill="#7DB1FF" stroke="black" stroke-width="1.02926"/>
<path d="M117.102 215.847C119.814 215.879 125.734 215.665 127.721 214.554C128.891 215.24 132.671 216.613 138.426 216.613C144.18 216.613 147.132 215.24 147.888 214.554C149.63 215.416 154.799 216.881 161.548 215.847" stroke="black" stroke-width="1.02926"/>
<mask id="path-54-outside-1_76_3964" maskUnits="userSpaceOnUse" x="60.1623" y="153.512" width="21.9691" height="21.2668" fill="black">
<rect fill="white" x="60.1623" y="153.512" width="21.9691" height="21.2668"/>
<path fill-rule="evenodd" clip-rule="evenodd" d="M79.0468 165.745C79.8626 165.44 80.3096 164.912 80.4862 164.7L78.0481 162.669C77.9731 162.76 77.9603 162.764 77.9406 162.771C77.9396 162.772 77.9386 162.772 77.9376 162.773L77.9372 162.773C77.9198 162.779 77.6827 162.868 77.0538 162.67C76.6698 162.549 76.2768 162.35 75.7372 162.078C75.7088 162.063 75.6799 162.049 75.6507 162.034C75.1295 161.771 74.4353 161.423 73.6924 161.247C72.8947 161.058 71.9688 161.047 71.0241 161.51C70.1202 161.953 69.3811 162.742 68.7422 163.785C68.2211 164.636 67.4221 164.869 66.774 164.741C66.1354 164.615 65.6305 164.15 65.5752 163.342C65.5154 162.468 64.7583 161.808 63.8843 161.868C63.0102 161.927 62.3501 162.684 62.4099 163.559C62.5716 165.922 64.2391 167.473 66.1582 167.853C68.0676 168.231 70.2113 167.46 71.4476 165.442C71.9071 164.692 72.2499 164.443 72.4203 164.359C72.5499 164.296 72.6907 164.27 72.9613 164.334C73.2866 164.411 73.6622 164.584 74.2212 164.866C74.2649 164.888 74.3101 164.911 74.3566 164.935C74.8364 165.178 75.4556 165.492 76.0992 165.695C77.2416 166.056 78.2234 166.052 79.0468 165.745Z"/>
</mask>
<path fill-rule="evenodd" clip-rule="evenodd" d="M79.0468 165.745C79.8626 165.44 80.3096 164.912 80.4862 164.7L78.0481 162.669C77.9731 162.76 77.9603 162.764 77.9406 162.771C77.9396 162.772 77.9386 162.772 77.9376 162.773L77.9372 162.773C77.9198 162.779 77.6827 162.868 77.0538 162.67C76.6698 162.549 76.2768 162.35 75.7372 162.078C75.7088 162.063 75.6799 162.049 75.6507 162.034C75.1295 161.771 74.4353 161.423 73.6924 161.247C72.8947 161.058 71.9688 161.047 71.0241 161.51C70.1202 161.953 69.3811 162.742 68.7422 163.785C68.2211 164.636 67.4221 164.869 66.774 164.741C66.1354 164.615 65.6305 164.15 65.5752 163.342C65.5154 162.468 64.7583 161.808 63.8843 161.868C63.0102 161.927 62.3501 162.684 62.4099 163.559C62.5716 165.922 64.2391 167.473 66.1582 167.853C68.0676 168.231 70.2113 167.46 71.4476 165.442C71.9071 164.692 72.2499 164.443 72.4203 164.359C72.5499 164.296 72.6907 164.27 72.9613 164.334C73.2866 164.411 73.6622 164.584 74.2212 164.866C74.2649 164.888 74.3101 164.911 74.3566 164.935C74.8364 165.178 75.4556 165.492 76.0992 165.695C77.2416 166.056 78.2234 166.052 79.0468 165.745Z" fill="#FF7697"/>
<path d="M80.4862 164.7L80.8823 164.224L81.3581 164.62L80.962 165.096L80.4862 164.7ZM79.0468 165.745L78.8304 165.165L79.0468 165.745ZM78.0481 162.669L77.5724 162.273L77.9685 161.798L78.4442 162.194L78.0481 162.669ZM77.9406 162.771L78.1531 163.353L78.1531 163.353L77.9406 162.771ZM77.9376 162.773L77.7205 162.193L77.7211 162.193L77.9376 162.773ZM77.9372 162.773L77.7197 162.193L77.7201 162.193L77.9372 162.773ZM77.0538 162.67L76.8676 163.26L76.8676 163.26L77.0538 162.67ZM75.7372 162.078L75.4581 162.63L75.4581 162.63L75.7372 162.078ZM75.6507 162.034L75.9296 161.481L75.9296 161.481L75.6507 162.034ZM73.6924 161.247L73.5497 161.849L73.6924 161.247ZM71.0241 161.51L70.7517 160.954L70.7517 160.954L71.0241 161.51ZM68.7422 163.785L68.2143 163.462L68.7422 163.785ZM66.774 164.741L66.6538 165.348L66.6538 165.348L66.774 164.741ZM65.5752 163.342L66.1928 163.3L66.1928 163.3L65.5752 163.342ZM63.8843 161.868L63.9265 162.485L63.8843 161.868ZM62.4099 163.559L63.0275 163.516L63.0275 163.516L62.4099 163.559ZM66.1582 167.853L66.038 168.46L66.1582 167.853ZM71.4476 165.442L71.9755 165.766L71.9755 165.766L71.4476 165.442ZM72.4203 164.359L72.1478 163.803L72.4203 164.359ZM72.9613 164.334L72.8187 164.937L72.8187 164.937L72.9613 164.334ZM74.2212 164.866L74.5001 164.314L74.5001 164.314L74.2212 164.866ZM74.3566 164.935L74.0765 165.487L74.0765 165.487L74.3566 164.935ZM76.0992 165.695L75.9129 166.286L75.9129 166.286L76.0992 165.695ZM80.962 165.096C80.7657 165.331 80.2336 165.963 79.2633 166.325L78.8304 165.165C79.4917 164.918 79.8536 164.492 80.0105 164.303L80.962 165.096ZM78.4442 162.194L80.8823 164.224L80.0901 165.175L77.652 163.145L78.4442 162.194ZM77.7281 162.19C77.7346 162.188 77.6968 162.2 77.6543 162.224C77.6108 162.248 77.5801 162.273 77.5629 162.288C77.5478 162.302 77.5407 162.31 77.545 162.305C77.5485 162.301 77.5569 162.292 77.5724 162.273L78.5238 163.066C78.4858 163.111 78.4378 163.167 78.3843 163.215C78.3521 163.243 78.3098 163.276 78.256 163.306C78.2033 163.335 78.1564 163.352 78.1531 163.353L77.7281 162.19ZM77.7211 162.193C77.7244 162.191 77.7274 162.19 77.7281 162.19L78.1531 163.353C78.1519 163.353 78.1528 163.353 78.154 163.352L77.7211 162.193ZM77.7201 162.193L77.7205 162.193L78.1547 163.352L78.1543 163.352L77.7201 162.193ZM77.2401 162.079C77.5089 162.164 77.6646 162.178 77.7325 162.179C77.766 162.179 77.7778 162.177 77.7714 162.178C77.7683 162.178 77.7611 162.18 77.7505 162.183C77.7451 162.184 77.7393 162.186 77.7331 162.188C77.73 162.189 77.7271 162.19 77.7243 162.191C77.7217 162.192 77.7195 162.193 77.7197 162.193L78.1547 163.352C77.9775 163.419 77.594 163.489 76.8676 163.26L77.2401 162.079ZM76.0163 161.525C76.5703 161.805 76.9142 161.977 77.2401 162.079L76.8676 163.26C76.4254 163.121 75.9833 162.895 75.4581 162.63L76.0163 161.525ZM75.9296 161.481C75.959 161.496 75.9879 161.511 76.0163 161.525L75.4581 162.63C75.4297 162.616 75.4009 162.601 75.3718 162.587L75.9296 161.481ZM73.835 160.645C74.659 160.84 75.4147 161.221 75.9296 161.481L75.3718 162.587C74.8443 162.32 74.2116 162.006 73.5497 161.849L73.835 160.645ZM70.7517 160.954C71.8558 160.413 72.9351 160.431 73.835 160.645L73.5497 161.849C72.8543 161.685 72.0817 161.681 71.2965 162.066L70.7517 160.954ZM68.2143 163.462C68.8882 162.362 69.7045 161.468 70.7517 160.954L71.2965 162.066C70.5359 162.439 69.8741 163.122 69.2701 164.108L68.2143 163.462ZM66.8941 164.134C67.295 164.213 67.8322 164.085 68.2143 163.462L69.2701 164.108C68.61 165.186 67.5492 165.525 66.6538 165.348L66.8941 164.134ZM66.1928 163.3C66.2119 163.579 66.3037 163.76 66.4127 163.879C66.5246 164.002 66.686 164.092 66.8941 164.134L66.6538 165.348C66.2234 165.263 65.813 165.058 65.499 164.715C65.1821 164.368 64.9938 163.914 64.9576 163.384L66.1928 163.3ZM63.842 161.25C65.0572 161.167 66.1096 162.085 66.1928 163.3L64.9576 163.384C64.9211 162.851 64.4595 162.449 63.9265 162.485L63.842 161.25ZM61.7923 163.601C61.7092 162.386 62.6269 161.333 63.842 161.25L63.9265 162.485C63.3936 162.522 62.9911 162.983 63.0275 163.516L61.7923 163.601ZM66.038 168.46C63.8707 168.032 61.9748 166.269 61.7923 163.601L63.0275 163.516C63.1683 165.574 64.6075 166.915 66.2783 167.246L66.038 168.46ZM71.9755 165.766C70.5995 168.012 68.1932 168.887 66.038 168.46L66.2783 167.246C67.9421 167.575 69.8232 166.909 70.9198 165.119L71.9755 165.766ZM72.6927 164.915C72.6652 164.929 72.3998 165.073 71.9755 165.766L70.9198 165.119C71.4144 164.311 71.8346 163.957 72.1478 163.803L72.6927 164.915ZM72.8187 164.937C72.7223 164.914 72.6861 164.916 72.6838 164.916C72.6838 164.916 72.688 164.916 72.6937 164.914C72.699 164.913 72.6996 164.912 72.6927 164.915L72.1478 163.803C72.4342 163.663 72.7274 163.643 73.104 163.732L72.8187 164.937ZM73.9422 165.419C73.374 165.132 73.0618 164.994 72.8187 164.937L73.104 163.732C73.5115 163.828 73.9503 164.036 74.5001 164.314L73.9422 165.419ZM74.0765 165.487C74.0299 165.463 73.9853 165.441 73.9422 165.419L74.5001 164.314C74.5445 164.336 74.5903 164.359 74.6367 164.383L74.0765 165.487ZM75.9129 166.286C75.2134 166.065 74.5504 165.727 74.0765 165.487L74.6367 164.383C75.1225 164.629 75.6978 164.92 76.2855 165.105L75.9129 166.286ZM79.2633 166.325C78.2816 166.691 77.1541 166.677 75.9129 166.286L76.2855 165.105C77.3291 165.434 78.1653 165.413 78.8304 165.165L79.2633 166.325Z" fill="black" mask="url(#path-54-outside-1_76_3964)"/>
<path d="M73.8055 164.82C74.2933 164.283 74.9471 162.315 74.1604 161.051" stroke="black" stroke-width="0.619053"/>
<path d="M75.707 165.889C76.5578 165.282 77.661 164.164 77.1322 162.355" stroke="black" stroke-width="0.619053"/>
<path d="M78.6033 166.153C79.0912 165.615 79.3534 163.832 78.5667 162.568" stroke="black" stroke-width="0.619053"/>
<path d="M72.4517 164.787C72.5843 164.074 71.2402 162.087 69.8517 161.908" stroke="black" stroke-width="0.619053"/>
<path d="M70.2181 167.186C70.4981 166.179 69.3744 164.058 67.8915 164.188" stroke="black" stroke-width="0.619053"/>
<path d="M65.8227 168.085C66.3488 167.585 67.4402 165.703 66.7488 164.385" stroke="black" stroke-width="0.619053"/>
<path d="M62.5018 165.225C63.2274 165.199 65.5222 164.607 65.8773 163.162" stroke="black" stroke-width="0.619053"/>
<mask id="path-63-outside-2_76_3964" maskUnits="userSpaceOnUse" x="195.857" y="152.828" width="27.4278" height="23.9575" fill="black">
<rect fill="white" x="195.857" y="152.828" width="27.4278" height="23.9575"/>
<path fill-rule="evenodd" clip-rule="evenodd" d="M199.101 163.588C198.106 163.244 197.551 162.617 197.331 162.366L200.221 159.842C200.314 159.949 200.329 159.954 200.354 159.962C200.355 159.963 200.356 159.963 200.357 159.964L200.358 159.964C200.379 159.971 200.668 160.072 201.423 159.814C201.883 159.657 202.353 159.406 202.997 159.061C203.031 159.043 203.066 159.024 203.1 159.006C203.723 158.673 204.552 158.232 205.445 157.999C206.404 157.748 207.523 157.708 208.678 158.241C209.783 158.751 210.699 159.683 211.502 160.925C212.295 162.155 212.542 163.485 212.668 164.571C212.724 165.053 212.757 165.454 212.786 165.812C212.833 166.383 212.872 166.849 212.981 167.375C213.127 168.082 213.352 168.529 213.739 168.876C214.154 169.248 214.968 169.693 216.658 169.942C217.706 170.097 218.431 171.071 218.277 172.119C218.122 173.167 217.148 173.892 216.099 173.738C213.976 173.425 212.349 172.783 211.178 171.732C209.977 170.656 209.471 169.346 209.224 168.152C209.072 167.416 208.995 166.531 208.932 165.811C208.906 165.508 208.883 165.235 208.857 165.014C208.751 164.103 208.588 163.485 208.278 163.006C207.702 162.113 207.28 161.821 207.072 161.725C206.913 161.652 206.742 161.625 206.417 161.71C206.026 161.812 205.577 162.032 204.909 162.389C204.857 162.417 204.803 162.446 204.748 162.476C204.174 162.783 203.435 163.181 202.663 163.445C201.292 163.913 200.105 163.936 199.101 163.588Z"/>
</mask>
<path fill-rule="evenodd" clip-rule="evenodd" d="M199.101 163.588C198.106 163.244 197.551 162.617 197.331 162.366L200.221 159.842C200.314 159.949 200.329 159.954 200.354 159.962C200.355 159.963 200.356 159.963 200.357 159.964L200.358 159.964C200.379 159.971 200.668 160.072 201.423 159.814C201.883 159.657 202.353 159.406 202.997 159.061C203.031 159.043 203.066 159.024 203.1 159.006C203.723 158.673 204.552 158.232 205.445 157.999C206.404 157.748 207.523 157.708 208.678 158.241C209.783 158.751 210.699 159.683 211.502 160.925C212.295 162.155 212.542 163.485 212.668 164.571C212.724 165.053 212.757 165.454 212.786 165.812C212.833 166.383 212.872 166.849 212.981 167.375C213.127 168.082 213.352 168.529 213.739 168.876C214.154 169.248 214.968 169.693 216.658 169.942C217.706 170.097 218.431 171.071 218.277 172.119C218.122 173.167 217.148 173.892 216.099 173.738C213.976 173.425 212.349 172.783 211.178 171.732C209.977 170.656 209.471 169.346 209.224 168.152C209.072 167.416 208.995 166.531 208.932 165.811C208.906 165.508 208.883 165.235 208.857 165.014C208.751 164.103 208.588 163.485 208.278 163.006C207.702 162.113 207.28 161.821 207.072 161.725C206.913 161.652 206.742 161.625 206.417 161.71C206.026 161.812 205.577 162.032 204.909 162.389C204.857 162.417 204.803 162.446 204.748 162.476C204.174 162.783 203.435 163.181 202.663 163.445C201.292 163.913 200.105 163.936 199.101 163.588Z" fill="#FF91D9"/>
<path d="M197.331 162.366L196.839 161.802L196.275 162.294L196.768 162.858L197.331 162.366ZM199.101 163.588L199.346 162.881L199.101 163.588ZM200.221 159.842L200.784 159.35L200.292 158.786L199.728 159.278L200.221 159.842ZM200.354 159.962L200.594 159.253L200.594 159.253L200.354 159.962ZM200.357 159.964L200.604 159.257L200.602 159.256L200.357 159.964ZM200.358 159.964L200.604 159.257L200.604 159.257L200.358 159.964ZM201.423 159.814L201.665 160.523L201.665 160.523L201.423 159.814ZM202.997 159.061L203.35 159.721L203.35 159.721L202.997 159.061ZM203.1 159.006L202.748 158.345L202.748 158.345L203.1 159.006ZM205.445 157.999L205.635 158.723L205.635 158.723L205.445 157.999ZM208.678 158.241L208.992 157.561L208.678 158.241ZM211.502 160.925L210.873 161.331L211.502 160.925ZM212.668 164.571L211.924 164.658L211.924 164.658L212.668 164.571ZM212.786 165.812L212.04 165.874L212.04 165.874L212.786 165.812ZM212.981 167.375L213.714 167.223L213.714 167.223L212.981 167.375ZM213.739 168.876L213.239 169.433L213.239 169.433L213.739 168.876ZM216.658 169.942L216.767 169.202L216.767 169.202L216.658 169.942ZM218.277 172.119L217.536 172.01L217.536 172.01L218.277 172.119ZM216.099 173.738L215.99 174.478L216.099 173.738ZM211.178 171.732L210.678 172.29L210.678 172.29L211.178 171.732ZM209.224 168.152L208.491 168.304L208.491 168.304L209.224 168.152ZM208.932 165.811L209.678 165.746L209.678 165.746L208.932 165.811ZM208.857 165.014L208.113 165.1L208.113 165.1L208.857 165.014ZM208.278 163.006L207.65 163.412L208.278 163.006ZM207.072 161.725L206.758 162.404L207.072 161.725ZM206.417 161.71L206.606 162.434L206.606 162.434L206.417 161.71ZM204.909 162.389L204.556 161.729L204.556 161.729L204.909 162.389ZM204.748 162.476L204.393 161.816L204.393 161.816L204.748 162.476ZM202.663 163.445L202.905 164.153L202.905 164.153L202.663 163.445ZM196.768 162.858C197.011 163.138 197.673 163.886 198.856 164.296L199.346 162.881C198.54 162.602 198.09 162.097 197.895 161.873L196.768 162.858ZM199.728 159.278L196.839 161.802L197.824 162.93L200.713 160.406L199.728 159.278ZM200.594 159.253C200.586 159.251 200.632 159.265 200.684 159.292C200.737 159.32 200.775 159.349 200.796 159.367C200.815 159.383 200.824 159.393 200.818 159.387C200.814 159.383 200.804 159.372 200.784 159.35L199.657 160.334C199.704 160.389 199.764 160.455 199.83 160.511C199.87 160.544 199.922 160.583 199.988 160.618C200.052 160.652 200.109 160.67 200.113 160.671L200.594 159.253ZM200.602 159.256C200.598 159.255 200.595 159.254 200.594 159.253L200.113 160.671C200.115 160.672 200.114 160.671 200.112 160.671L200.602 159.256ZM200.604 159.257L200.604 159.257L200.111 160.67L200.111 160.671L200.604 159.257ZM201.181 159.106C200.858 159.216 200.67 159.237 200.588 159.24C200.548 159.242 200.533 159.239 200.541 159.24C200.545 159.24 200.554 159.242 200.567 159.245C200.573 159.247 200.58 159.249 200.588 159.251C200.592 159.253 200.595 159.254 200.598 159.255C200.602 159.256 200.604 159.257 200.604 159.257L200.111 160.671C200.327 160.746 200.793 160.82 201.665 160.523L201.181 159.106ZM202.644 158.401C201.982 158.755 201.572 158.972 201.181 159.106L201.665 160.523C202.195 160.341 202.723 160.057 203.35 159.721L202.644 158.401ZM202.748 158.345C202.713 158.364 202.678 158.383 202.644 158.401L203.35 159.721C203.384 159.703 203.419 159.684 203.453 159.666L202.748 158.345ZM205.256 157.274C204.265 157.534 203.363 158.017 202.748 158.345L203.453 159.666C204.083 159.329 204.839 158.931 205.635 158.723L205.256 157.274ZM208.992 157.561C207.642 156.939 206.337 156.991 205.256 157.274L205.635 158.723C206.471 158.504 207.405 158.478 208.365 158.921L208.992 157.561ZM212.13 160.519C211.284 159.209 210.272 158.152 208.992 157.561L208.365 158.921C209.295 159.35 210.114 160.157 210.873 161.331L212.13 160.519ZM213.411 164.485C213.281 163.364 213.019 161.896 212.13 160.519L210.873 161.331C211.572 162.415 211.802 163.606 211.924 164.658L213.411 164.485ZM213.532 165.751C213.503 165.392 213.469 164.981 213.411 164.485L211.924 164.658C211.979 165.126 212.011 165.515 212.04 165.874L213.532 165.751ZM213.714 167.223C213.615 166.749 213.58 166.327 213.532 165.751L212.04 165.874C212.087 166.439 212.128 166.95 212.247 167.527L213.714 167.223ZM214.238 168.318C214.01 168.114 213.84 167.835 213.714 167.223L212.247 167.527C212.414 168.33 212.694 168.945 213.239 169.433L214.238 168.318ZM216.767 169.202C215.162 168.965 214.506 168.558 214.238 168.318L213.239 169.433C213.801 169.937 214.774 170.421 216.549 170.683L216.767 169.202ZM219.017 172.228C219.232 170.771 218.224 169.416 216.767 169.202L216.549 170.683C217.188 170.777 217.63 171.371 217.536 172.01L219.017 172.228ZM215.99 174.478C217.447 174.693 218.803 173.685 219.017 172.228L217.536 172.01C217.442 172.649 216.848 173.091 216.208 172.997L215.99 174.478ZM210.678 172.29C211.997 173.473 213.783 174.153 215.99 174.478L216.208 172.997C214.17 172.697 212.701 172.093 211.677 171.175L210.678 172.29ZM208.491 168.304C208.757 169.592 209.318 171.071 210.678 172.29L211.677 171.175C210.636 170.241 210.184 169.1 209.957 168L208.491 168.304ZM208.187 165.875C208.248 166.585 208.328 167.516 208.491 168.304L209.957 168C209.815 167.316 209.742 166.477 209.678 165.746L208.187 165.875ZM208.113 165.1C208.138 165.308 208.16 165.569 208.187 165.875L209.678 165.746C209.652 165.447 209.628 165.162 209.601 164.928L208.113 165.1ZM207.65 163.412C207.864 163.744 208.011 164.223 208.113 165.1L209.601 164.928C209.491 163.984 209.311 163.226 208.907 162.6L207.65 163.412ZM206.758 162.404C206.792 162.42 207.117 162.587 207.65 163.412L208.907 162.6C208.286 161.638 207.768 161.222 207.385 161.045L206.758 162.404ZM206.606 162.434C206.722 162.404 206.766 162.405 206.769 162.406C206.769 162.406 206.764 162.405 206.757 162.403C206.75 162.402 206.75 162.401 206.758 162.404L207.385 161.045C207.035 160.883 206.68 160.867 206.227 160.986L206.606 162.434ZM205.262 163.049C205.941 162.686 206.314 162.51 206.606 162.434L206.227 160.986C205.737 161.114 205.213 161.378 204.556 161.729L205.262 163.049ZM205.102 163.135C205.157 163.105 205.211 163.076 205.262 163.049L204.556 161.729C204.503 161.757 204.449 161.786 204.393 161.816L205.102 163.135ZM202.905 164.153C203.744 163.866 204.536 163.439 205.102 163.135L204.393 161.816C203.813 162.128 203.126 162.495 202.421 162.736L202.905 164.153ZM198.856 164.296C200.053 164.71 201.416 164.662 202.905 164.153L202.421 162.736C201.169 163.164 200.157 163.162 199.346 162.881L198.856 164.296Z" fill="black" mask="url(#path-63-outside-2_76_3964)"/>
<path d="M205.411 162.321C204.805 161.685 203.959 159.326 204.874 157.776" stroke="black" stroke-width="0.748554"/>
<path d="M203.143 163.667C202.097 162.958 200.731 161.638 201.319 159.436" stroke="black" stroke-width="0.748554"/>
<path d="M199.649 164.069C199.044 163.433 198.676 161.285 199.591 159.734" stroke="black" stroke-width="0.748554"/>
<path d="M207.046 162.243C206.865 161.384 208.433 158.944 210.107 158.689" stroke="black" stroke-width="0.748554"/>
<path d="M208.494 164.703C208.716 163.458 211.05 161.734 212.599 162.652" stroke="black" stroke-width="0.748554"/>
<path d="M208.566 166.656C209.254 166.111 211.693 165.126 213.154 166.178" stroke="black" stroke-width="0.748554"/>
<path d="M210.063 171.271C210.418 170.468 212.111 168.156 213.894 168.406" stroke="black" stroke-width="0.748554"/>
<path d="M214.081 173.8C213.966 172.929 214.21 170.074 215.862 169.36" stroke="black" stroke-width="0.748554"/>
<mask id="path-73-outside-3_76_3964" maskUnits="userSpaceOnUse" x="196.225" y="159.563" width="21.9057" height="12.0776" fill="black">
<rect fill="white" x="196.225" y="159.563" width="21.9057" height="12.0776"/>
<path fill-rule="evenodd" clip-rule="evenodd" d="M199.035 162.524C198.174 162.385 197.522 162.624 197.263 162.721L198.38 165.699C198.49 165.658 198.504 165.66 198.524 165.664C198.525 165.664 198.526 165.664 198.528 165.664L198.528 165.664C198.546 165.667 198.797 165.707 199.247 166.192C199.521 166.488 199.765 166.856 200.1 167.361C200.118 167.388 200.136 167.414 200.154 167.442C200.477 167.93 200.91 168.577 201.47 169.099C202.071 169.659 202.872 170.127 203.925 170.193C204.932 170.255 205.967 169.935 207.041 169.343C208.104 168.757 208.807 167.883 209.326 167.14C209.556 166.81 209.738 166.53 209.9 166.28C210.159 165.882 210.37 165.557 210.656 165.216C211.041 164.757 211.381 164.519 211.8 164.418C212.249 164.31 213.019 164.305 214.35 164.787C215.176 165.087 216.088 164.66 216.387 163.834C216.687 163.008 216.26 162.096 215.434 161.797C213.761 161.19 212.321 161.02 211.053 161.326C209.753 161.64 208.869 162.397 208.219 163.172C207.819 163.649 207.415 164.265 207.086 164.767C206.948 164.977 206.823 165.167 206.718 165.318C206.283 165.942 205.92 166.329 205.506 166.557C204.734 166.982 204.312 167.03 204.122 167.018C203.977 167.009 203.842 166.961 203.638 166.771C203.393 166.543 203.151 166.206 202.804 165.683C202.777 165.642 202.749 165.6 202.72 165.556C202.423 165.106 202.039 164.525 201.579 164.029C200.762 163.149 199.905 162.665 199.035 162.524Z"/>
</mask>
<path fill-rule="evenodd" clip-rule="evenodd" d="M199.035 162.524C198.174 162.385 197.522 162.624 197.263 162.721L198.38 165.699C198.49 165.658 198.504 165.66 198.524 165.664C198.525 165.664 198.526 165.664 198.528 165.664L198.528 165.664C198.546 165.667 198.797 165.707 199.247 166.192C199.521 166.488 199.765 166.856 200.1 167.361C200.118 167.388 200.136 167.414 200.154 167.442C200.477 167.93 200.91 168.577 201.47 169.099C202.071 169.659 202.872 170.127 203.925 170.193C204.932 170.255 205.967 169.935 207.041 169.343C208.104 168.757 208.807 167.883 209.326 167.14C209.556 166.81 209.738 166.53 209.9 166.28C210.159 165.882 210.37 165.557 210.656 165.216C211.041 164.757 211.381 164.519 211.8 164.418C212.249 164.31 213.019 164.305 214.35 164.787C215.176 165.087 216.088 164.66 216.387 163.834C216.687 163.008 216.26 162.096 215.434 161.797C213.761 161.19 212.321 161.02 211.053 161.326C209.753 161.64 208.869 162.397 208.219 163.172C207.819 163.649 207.415 164.265 207.086 164.767C206.948 164.977 206.823 165.167 206.718 165.318C206.283 165.942 205.92 166.329 205.506 166.557C204.734 166.982 204.312 167.03 204.122 167.018C203.977 167.009 203.842 166.961 203.638 166.771C203.393 166.543 203.151 166.206 202.804 165.683C202.777 165.642 202.749 165.6 202.72 165.556C202.423 165.106 202.039 164.525 201.579 164.029C200.762 163.149 199.905 162.665 199.035 162.524Z" fill="#FF7697"/>
<path d="M197.263 162.721L196.682 162.939L196.464 162.358L197.045 162.14L197.263 162.721ZM199.035 162.524L199.135 161.912L199.035 162.524ZM198.38 165.699L198.598 166.28L198.017 166.498L197.799 165.917L198.38 165.699ZM198.524 165.664L198.421 166.276L198.421 166.276L198.524 165.664ZM198.528 165.664L198.429 166.277L198.428 166.277L198.528 165.664ZM198.528 165.664L198.43 166.277L198.429 166.277L198.528 165.664ZM199.247 166.192L198.792 166.614L198.792 166.614L199.247 166.192ZM200.1 167.361L200.617 167.018L200.617 167.018L200.1 167.361ZM200.154 167.442L200.671 167.099L200.671 167.099L200.154 167.442ZM201.47 169.099L201.893 168.645L201.47 169.099ZM203.925 170.193L203.963 169.573L203.925 170.193ZM207.041 169.343L206.742 168.799L206.742 168.799L207.041 169.343ZM209.326 167.14L209.835 167.495L209.835 167.495L209.326 167.14ZM209.9 166.28L209.38 165.942L209.38 165.942L209.9 166.28ZM210.656 165.216L211.132 165.615L210.656 165.216ZM211.8 164.418L211.654 163.815L211.654 163.815L211.8 164.418ZM214.35 164.787L214.562 164.204L214.35 164.787ZM216.387 163.834L215.804 163.623L216.387 163.834ZM215.434 161.797L215.646 161.213L215.434 161.797ZM211.053 161.326L211.199 161.929L211.053 161.326ZM208.219 163.172L207.744 162.773L207.744 162.773L208.219 163.172ZM207.086 164.767L207.605 165.107L207.605 165.107L207.086 164.767ZM206.718 165.318L206.209 164.963L206.209 164.963L206.718 165.318ZM205.506 166.557L205.806 167.1L205.506 166.557ZM204.122 167.018L204.16 166.398L204.16 166.398L204.122 167.018ZM203.638 166.771L204.061 166.317L204.061 166.317L203.638 166.771ZM202.804 165.683L202.287 166.026L202.287 166.026L202.804 165.683ZM202.72 165.556L202.202 165.898L202.202 165.898L202.72 165.556ZM201.579 164.029L201.124 164.451L201.124 164.451L201.579 164.029ZM197.045 162.14C197.333 162.032 198.11 161.746 199.135 161.912L198.936 163.137C198.238 163.024 197.711 163.216 197.481 163.302L197.045 162.14ZM197.799 165.917L196.682 162.939L197.844 162.503L198.961 165.481L197.799 165.917ZM198.421 166.276C198.414 166.275 198.454 166.282 198.502 166.283C198.552 166.283 198.591 166.277 198.614 166.272C198.634 166.268 198.644 166.264 198.638 166.266C198.633 166.268 198.621 166.272 198.598 166.28L198.162 165.118C198.218 165.097 198.288 165.072 198.358 165.057C198.4 165.048 198.453 165.041 198.515 165.041C198.575 165.042 198.624 165.051 198.628 165.052L198.421 166.276ZM198.428 166.277C198.425 166.276 198.422 166.276 198.421 166.276L198.627 165.052L198.627 165.052L198.428 166.277ZM198.429 166.277L198.429 166.277L198.627 165.052L198.627 165.052L198.429 166.277ZM198.792 166.614C198.599 166.407 198.471 166.317 198.412 166.283C198.383 166.266 198.371 166.263 198.377 166.265C198.38 166.266 198.387 166.268 198.398 166.271C198.404 166.272 198.41 166.273 198.416 166.275C198.419 166.275 198.422 166.276 198.425 166.276C198.428 166.277 198.43 166.277 198.43 166.277L198.626 165.051C198.813 165.081 199.182 165.21 199.702 165.77L198.792 166.614ZM199.583 167.704C199.239 167.185 199.024 166.865 198.792 166.614L199.702 165.77C200.018 166.111 200.291 166.526 200.617 167.018L199.583 167.704ZM199.637 167.785C199.618 167.758 199.6 167.731 199.583 167.704L200.617 167.018C200.635 167.045 200.653 167.071 200.671 167.099L199.637 167.785ZM201.046 169.553C200.425 168.974 199.956 168.267 199.637 167.785L200.671 167.099C200.998 167.592 201.394 168.18 201.893 168.645L201.046 169.553ZM203.887 170.812C202.656 170.736 201.725 170.185 201.046 169.553L201.893 168.645C202.417 169.133 203.088 169.519 203.963 169.573L203.887 170.812ZM207.341 169.886C206.208 170.51 205.053 170.884 203.887 170.812L203.963 169.573C204.811 169.626 205.726 169.359 206.742 168.799L207.341 169.886ZM209.835 167.495C209.299 168.262 208.53 169.231 207.341 169.886L206.742 168.799C207.678 168.283 208.315 167.504 208.817 166.784L209.835 167.495ZM210.421 166.618C210.258 166.869 210.072 167.156 209.835 167.495L208.817 166.784C209.041 166.464 209.217 166.192 209.38 165.942L210.421 166.618ZM211.132 165.615C210.874 165.922 210.682 166.216 210.421 166.618L209.38 165.942C209.636 165.548 209.867 165.191 210.181 164.817L211.132 165.615ZM211.945 165.021C211.698 165.081 211.464 165.218 211.132 165.615L210.181 164.817C210.618 164.296 211.064 163.957 211.654 163.815L211.945 165.021ZM214.139 165.371C212.874 164.912 212.235 164.951 211.945 165.021L211.654 163.815C212.263 163.668 213.163 163.697 214.562 164.204L214.139 165.371ZM216.971 164.046C216.555 165.194 215.287 165.787 214.139 165.371L214.562 164.204C215.065 164.386 215.621 164.126 215.804 163.623L216.971 164.046ZM215.646 161.213C216.794 161.629 217.387 162.897 216.971 164.046L215.804 163.623C215.986 163.119 215.726 162.563 215.223 162.38L215.646 161.213ZM210.907 160.723C212.335 160.378 213.907 160.583 215.646 161.213L215.223 162.38C213.616 161.798 212.307 161.662 211.199 161.929L210.907 160.723ZM207.744 162.773C208.444 161.937 209.436 161.078 210.907 160.723L211.199 161.929C210.071 162.202 209.293 162.857 208.695 163.571L207.744 162.773ZM206.567 164.426C206.891 163.932 207.315 163.284 207.744 162.773L208.695 163.571C208.322 164.015 207.939 164.598 207.605 165.107L206.567 164.426ZM206.209 164.963C206.308 164.821 206.427 164.639 206.567 164.426L207.605 165.107C207.469 165.315 207.339 165.513 207.227 165.674L206.209 164.963ZM205.207 166.013C205.494 165.855 205.79 165.564 206.209 164.963L207.227 165.674C206.776 166.32 206.347 166.802 205.806 167.1L205.207 166.013ZM204.16 166.398C204.191 166.4 204.494 166.406 205.207 166.013L205.806 167.1C204.974 167.559 204.432 167.659 204.083 167.637L204.16 166.398ZM204.061 166.317C204.133 166.385 204.166 166.401 204.168 166.402C204.168 166.402 204.164 166.4 204.158 166.399C204.153 166.397 204.152 166.398 204.16 166.398L204.083 167.637C203.764 167.618 203.499 167.49 203.215 167.225L204.061 166.317ZM203.321 165.34C203.674 165.872 203.878 166.147 204.061 166.317L203.215 167.225C202.908 166.939 202.628 166.541 202.287 166.026L203.321 165.34ZM203.238 165.214C203.267 165.258 203.294 165.3 203.321 165.34L202.287 166.026C202.259 165.985 202.231 165.942 202.202 165.898L203.238 165.214ZM202.034 163.607C202.534 164.146 202.944 164.77 203.238 165.214L202.202 165.898C201.901 165.443 201.544 164.904 201.124 164.451L202.034 163.607ZM199.135 161.912C200.171 162.079 201.147 162.65 202.034 163.607L201.124 164.451C200.378 163.647 199.639 163.251 198.936 163.137L199.135 161.912Z" fill="black" mask="url(#path-73-outside-3_76_3964)"/>
<path d="M203.144 165.93C202.452 166.156 200.906 167.546 200.965 169.037" stroke="black" stroke-width="0.620648"/>
<path d="M202.017 164.056C200.975 164.162 199.459 164.589 199.022 166.428" stroke="black" stroke-width="0.620648"/>
<path d="M199.624 162.389C198.933 162.615 197.82 164.039 197.878 165.53" stroke="black" stroke-width="0.620648"/>
<path d="M204.307 166.63C203.837 167.186 204.023 169.583 205.144 170.428" stroke="black" stroke-width="0.620648"/>
<path d="M206.33 165.403C206.003 166.399 207.03 168.575 208.521 168.514" stroke="black" stroke-width="0.620648"/>
<path d="M207.151 164.006C207.439 164.674 208.832 166.352 210.312 166.158" stroke="black" stroke-width="0.620648"/>
<path d="M210.058 161.225C210.001 161.951 210.329 164.304 211.728 164.823" stroke="black" stroke-width="0.620648"/>
<path d="M213.985 160.958C213.559 161.548 212.615 163.728 213.541 164.899" stroke="black" stroke-width="0.620648"/>
<mask id="path-83-outside-4_76_3964" maskUnits="userSpaceOnUse" x="63.6518" y="164.01" width="18" height="16" fill="black">
<rect fill="white" x="63.6518" y="164.01" width="18" height="16"/>
<path fill-rule="evenodd" clip-rule="evenodd" d="M78.8314 165.133C79.7484 164.887 80.4799 165.074 80.7709 165.151L79.8906 168.496C79.7669 168.463 79.7526 168.467 79.7305 168.473C79.7294 168.474 79.7282 168.474 79.7271 168.474L79.7267 168.474C79.707 168.48 79.4402 168.551 79.0074 169.125C78.743 169.475 78.5197 169.9 78.213 170.483C78.1968 170.514 78.1805 170.545 78.1638 170.577C77.8675 171.14 77.4712 171.888 76.9229 172.515C76.3341 173.187 75.5187 173.782 74.387 173.969C73.3042 174.147 72.149 173.915 70.9218 173.393C69.9207 172.967 69.0634 173.265 68.5691 173.789C68.0821 174.305 67.9275 175.037 68.3898 175.789C68.8897 176.603 68.6353 177.668 67.8213 178.168C67.0074 178.668 65.9423 178.414 65.4423 177.6C64.0907 175.399 64.5895 172.966 66.0533 171.415C67.5097 169.872 69.9007 169.2 72.2753 170.209C73.1579 170.585 73.62 170.589 73.8242 170.556C73.9796 170.53 74.1208 170.464 74.3205 170.236C74.5606 169.961 74.7847 169.57 75.1025 168.966C75.1274 168.919 75.153 168.87 75.1794 168.82C75.4514 168.3 75.8025 167.629 76.2455 167.042C77.0319 165.999 77.9059 165.381 78.8314 165.133Z"/>
</mask>
<path fill-rule="evenodd" clip-rule="evenodd" d="M78.8314 165.133C79.7484 164.887 80.4799 165.074 80.7709 165.151L79.8906 168.496C79.7669 168.463 79.7526 168.467 79.7305 168.473C79.7294 168.474 79.7282 168.474 79.7271 168.474L79.7267 168.474C79.707 168.48 79.4402 168.551 79.0074 169.125C78.743 169.475 78.5197 169.9 78.213 170.483C78.1968 170.514 78.1805 170.545 78.1638 170.577C77.8675 171.14 77.4712 171.888 76.9229 172.515C76.3341 173.187 75.5187 173.782 74.387 173.969C73.3042 174.147 72.149 173.915 70.9218 173.393C69.9207 172.967 69.0634 173.265 68.5691 173.789C68.0821 174.305 67.9275 175.037 68.3898 175.789C68.8897 176.603 68.6353 177.668 67.8213 178.168C67.0074 178.668 65.9423 178.414 65.4423 177.6C64.0907 175.399 64.5895 172.966 66.0533 171.415C67.5097 169.872 69.9007 169.2 72.2753 170.209C73.1579 170.585 73.62 170.589 73.8242 170.556C73.9796 170.53 74.1208 170.464 74.3205 170.236C74.5606 169.961 74.7847 169.57 75.1025 168.966C75.1274 168.919 75.153 168.87 75.1794 168.82C75.4514 168.3 75.8025 167.629 76.2455 167.042C77.0319 165.999 77.9059 165.381 78.8314 165.133Z" fill="#FF91D9"/>
<path d="M80.7709 165.151L81.4236 165.322L81.5954 164.67L80.9427 164.498L80.7709 165.151ZM78.8314 165.133L79.0062 165.785V165.785L78.8314 165.133ZM79.8906 168.496L79.7188 169.149L80.3715 169.32L80.5433 168.668L79.8906 168.496ZM79.7305 168.473L79.5514 167.823L79.5514 167.823L79.7305 168.473ZM79.7271 168.474L79.9008 169.127L79.9018 169.126L79.7271 168.474ZM79.7267 168.474L79.9003 169.127L79.9003 169.127L79.7267 168.474ZM79.0074 169.125L78.4685 168.718L78.4685 168.718L79.0074 169.125ZM78.213 170.483L77.6156 170.169L77.6155 170.169L78.213 170.483ZM78.1638 170.577L77.5665 170.263L77.5665 170.263L78.1638 170.577ZM76.9229 172.515L77.4306 172.959V172.959L76.9229 172.515ZM74.387 173.969L74.2772 173.303L74.387 173.969ZM70.9218 173.393L70.6577 174.014L70.9218 173.393ZM68.5691 173.789L68.0782 173.326H68.0782L68.5691 173.789ZM68.3898 175.789L67.8147 176.143L68.3898 175.789ZM67.8213 178.168L68.1746 178.743L67.8213 178.168ZM65.4423 177.6L66.0174 177.247L65.4423 177.6ZM66.0533 171.415L66.5442 171.878H66.5442L66.0533 171.415ZM72.2753 170.209L72.5394 169.588L72.2753 170.209ZM73.8242 170.556L73.934 171.222L73.8242 170.556ZM74.3205 170.236L74.8283 170.68H74.8283L74.3205 170.236ZM75.1025 168.966L75.6999 169.281L75.6999 169.281L75.1025 168.966ZM75.1794 168.82L74.5814 168.507L74.5814 168.507L75.1794 168.82ZM76.2455 167.042L75.7066 166.636V166.636L76.2455 167.042ZM80.9427 164.498C80.6193 164.413 79.7473 164.189 78.6567 164.481L79.0062 165.785C79.7495 165.586 80.3405 165.735 80.5991 165.803L80.9427 164.498ZM80.5433 168.668L81.4236 165.322L80.1182 164.979L79.2378 168.324L80.5433 168.668ZM79.9096 169.124C79.9169 169.122 79.8752 169.135 79.8226 169.141C79.7688 169.147 79.7258 169.144 79.7009 169.141C79.679 169.139 79.6675 169.136 79.6743 169.138C79.6798 169.139 79.6933 169.142 79.7188 169.149L80.0623 167.843C79.9996 167.827 79.9215 167.807 79.8439 167.799C79.7973 167.794 79.7388 167.792 79.6722 167.799C79.6069 167.806 79.5551 167.822 79.5514 167.823L79.9096 169.124ZM79.9018 169.126C79.9055 169.125 79.9088 169.124 79.9096 169.124L79.5514 167.823C79.5499 167.823 79.551 167.823 79.5524 167.822L79.9018 169.126ZM79.9003 169.127L79.9008 169.127L79.5534 167.822L79.553 167.822L79.9003 169.127ZM79.5463 169.531C79.7313 169.286 79.8607 169.175 79.9204 169.131C79.9499 169.11 79.9621 169.105 79.9558 169.108C79.9526 169.109 79.9454 169.112 79.934 169.116C79.9283 169.118 79.922 169.12 79.9151 169.122C79.9117 169.124 79.9085 169.124 79.9054 169.125C79.9024 169.126 79.9 169.127 79.9003 169.127L79.5531 167.822C79.3537 167.875 78.9685 168.055 78.4685 168.718L79.5463 169.531ZM78.8104 170.797C79.1253 170.199 79.3219 169.829 79.5463 169.531L78.4685 168.718C78.1641 169.122 77.9141 169.601 77.6156 170.169L78.8104 170.797ZM78.7612 170.891C78.7778 170.859 78.7943 170.828 78.8104 170.797L77.6155 170.169C77.5994 170.2 77.5831 170.231 77.5665 170.263L78.7612 170.891ZM77.4306 172.959C78.0388 172.265 78.4684 171.448 78.7612 170.891L77.5665 170.263C77.2666 170.833 76.9036 171.512 76.4151 172.07L77.4306 172.959ZM74.4968 174.635C75.8195 174.417 76.7664 173.718 77.4306 172.959L76.4151 172.07C75.9018 172.656 75.2178 173.148 74.2772 173.303L74.4968 174.635ZM70.6577 174.014C71.952 174.564 73.2424 174.841 74.4968 174.635L74.2772 173.303C73.3659 173.453 72.346 173.265 71.1859 172.772L70.6577 174.014ZM69.06 174.253C69.3658 173.928 69.9235 173.702 70.6577 174.014L71.1859 172.772C69.9179 172.233 68.7611 172.602 68.0782 173.326L69.06 174.253ZM68.9649 175.436C68.8054 175.176 68.7721 174.957 68.7934 174.783C68.8154 174.603 68.9013 174.421 69.06 174.253L68.0782 173.326C67.7499 173.674 67.5151 174.115 67.4535 174.619C67.3914 175.127 67.5119 175.65 67.8147 176.143L68.9649 175.436ZM68.1746 178.743C69.3062 178.048 69.66 176.568 68.9649 175.436L67.8147 176.143C68.1195 176.639 67.9643 177.288 67.4681 177.593L68.1746 178.743ZM64.8672 177.953C65.5623 179.085 67.0431 179.438 68.1746 178.743L67.4681 177.593C66.9718 177.898 66.3223 177.743 66.0174 177.247L64.8672 177.953ZM65.5624 170.952C63.9092 172.704 63.3411 175.469 64.8672 177.953L66.0174 177.247C64.8402 175.33 65.2697 173.229 66.5442 171.878L65.5624 170.952ZM72.5394 169.588C69.8964 168.465 67.2063 169.21 65.5624 170.952L66.5442 171.878C67.8132 170.534 69.905 169.935 72.0112 170.831L72.5394 169.588ZM73.7144 169.89C73.6814 169.895 73.3543 169.935 72.5394 169.588L72.0112 170.831C72.9614 171.235 73.5587 171.283 73.934 171.222L73.7144 169.89ZM73.8128 169.791C73.7416 169.872 73.708 169.893 73.7059 169.894C73.7059 169.894 73.7099 169.892 73.716 169.89C73.7217 169.888 73.7227 169.888 73.7144 169.89L73.934 171.222C74.2771 171.165 74.5504 170.998 74.8283 170.68L73.8128 169.791ZM74.5052 168.652C74.1821 169.266 73.9922 169.586 73.8128 169.791L74.8283 170.68C75.1291 170.337 75.3872 169.875 75.6999 169.281L74.5052 168.652ZM74.5814 168.507C74.555 168.557 74.5297 168.605 74.5052 168.652L75.6999 169.281C75.7251 169.232 75.7511 169.183 75.7773 169.133L74.5814 168.507ZM75.7066 166.636C75.2251 167.274 74.8501 167.993 74.5814 168.507L75.7773 169.133C76.0528 168.607 76.3799 167.985 76.7844 167.448L75.7066 166.636ZM78.6567 164.481C77.5533 164.777 76.5609 165.503 75.7066 166.636L76.7844 167.448C77.5028 166.496 78.2586 165.986 79.0062 165.785L78.6567 164.481Z" fill="black" mask="url(#path-83-outside-4_76_3964)"/>
<path d="M74.7623 169.27C75.5356 169.439 77.3608 170.772 77.4621 172.392" stroke="black" stroke-width="0.674953"/>
<path d="M75.7747 167.119C76.9137 167.119 78.601 167.414 79.276 169.354" stroke="black" stroke-width="0.674953"/>
<path d="M78.1792 165.052C78.9526 165.22 80.3138 166.638 80.415 168.258" stroke="black" stroke-width="0.674953"/>
<path d="M73.5811 170.156C74.1505 170.706 74.2138 173.32 73.0941 174.357" stroke="black" stroke-width="0.674952"/>
<path d="M70.0798 169.439C70.9657 170.156 71.31 172.75 69.911 173.573" stroke="black" stroke-width="0.674953"/>
<path d="M65.6082 171.422C66.3919 171.533 68.5517 172.513 68.7721 174.121" stroke="black" stroke-width="0.674953"/>
<path d="M64.4693 176.062C65.1302 175.626 67.542 174.7 68.7721 175.759" stroke="black" stroke-width="0.674952"/>
</g>
<defs>
<clipPath id="clip0_76_3964">
<rect width="275" height="336.101" fill="white"/>
</clipPath>
</defs>
</svg>
