<svg width="275" height="337" viewBox="0 0 275 337" fill="none" xmlns="http://www.w3.org/2000/svg">
<g clip-path="url(#clip0_76_4418)">
<rect width="275" height="336.101" fill="#0D51FF"/>
<rect x="0.000152588" width="275" height="336.101" fill="#FF1010"/>
<path fill-rule="evenodd" clip-rule="evenodd" d="M85.8969 186.951C86.2712 190.959 87.3192 200.425 88.5169 206.227C88.6381 206.814 88.7536 207.419 88.8728 208.044C89.7321 212.547 90.7884 218.081 95.6448 225.532C94.231 249.067 89.023 250.327 82.2157 251.975C80.2522 252.45 78.1556 252.957 75.9786 254.04C71.0332 256.502 61.1216 257.246 51.0757 258C40.879 258.766 30.5441 259.542 25.1238 262.134C20.9164 264.146 15.8931 267.973 11.0482 271.664C5.9803 275.524 1.10753 279.236 -2.43239 280.567V338.58H277.199V280.567C275.606 280.534 272.985 279.452 269.635 278.069C265.049 276.175 259.097 273.717 252.544 272.614C238.368 270.228 229.619 266.953 221.058 262.134C217.37 260.058 212.892 258.877 208.529 257.726C202.763 256.204 197.198 254.736 193.923 251.327C190.482 247.746 184.091 240.928 180.86 236.436C180.962 233.488 181.248 231.225 181.475 229.432C181.73 227.41 181.91 225.985 181.665 224.847C185.392 220.855 192.613 208.135 191.677 189.197C190.741 170.259 194.437 158.413 196.402 154.857L194.624 123.418C193.491 106.108 188.262 74.6215 136.05 74.6215C92.9614 74.6215 77.8032 106.154 78.1307 123.418L78.4114 156.261L85.8969 186.951Z" fill="#BEC0C1"/>
<path d="M88.5169 206.227L88.9292 206.141L88.5169 206.227ZM85.8969 186.951L86.3162 186.912L86.3133 186.881L86.306 186.852L85.8969 186.951ZM88.8728 208.044L88.4592 208.122L88.8728 208.044ZM95.6448 225.532L96.0651 225.558L96.0734 225.419L95.9975 225.302L95.6448 225.532ZM82.2157 251.975L82.1167 251.565L82.2157 251.975ZM75.9786 254.04L76.1662 254.417L75.9786 254.04ZM51.0757 258L51.1073 258.42L51.0757 258ZM25.1238 262.134L24.9421 261.754H24.9421L25.1238 262.134ZM11.0482 271.664L10.793 271.329L11.0482 271.664ZM-2.43239 280.567L-2.58062 280.173L-2.85345 280.276V280.567H-2.43239ZM-2.43239 338.58H-2.85345V339.001H-2.43239V338.58ZM277.199 338.58V339.001H277.62V338.58H277.199ZM277.199 280.567H277.62V280.155L277.208 280.146L277.199 280.567ZM269.635 278.069L269.475 278.458L269.635 278.069ZM252.544 272.614L252.474 273.029L252.544 272.614ZM221.058 262.134L221.264 261.767L221.058 262.134ZM208.529 257.726L208.636 257.318L208.529 257.726ZM193.923 251.327L194.226 251.035L193.923 251.327ZM180.86 236.436L180.44 236.421L180.435 236.565L180.519 236.681L180.86 236.436ZM181.475 229.432L181.057 229.379V229.379L181.475 229.432ZM181.665 224.847L181.357 224.56L181.207 224.72L181.253 224.936L181.665 224.847ZM191.677 189.197L191.256 189.218L191.677 189.197ZM196.402 154.857L196.771 155.061L196.829 154.954L196.823 154.833L196.402 154.857ZM194.624 123.418L195.045 123.394L195.045 123.39L194.624 123.418ZM78.1307 123.418L78.5518 123.414L78.5517 123.41L78.1307 123.418ZM78.4114 156.261L77.9903 156.264L77.9908 156.313L78.0023 156.36L78.4114 156.261ZM88.9292 206.141C87.7366 200.365 86.6903 190.919 86.3162 186.912L85.4777 186.99C85.8521 190.999 86.9017 200.486 88.1045 206.312L88.9292 206.141ZM89.2864 207.965C89.1673 207.34 89.0512 206.732 88.9292 206.141L88.1045 206.312C88.225 206.895 88.3399 207.497 88.4592 208.122L89.2864 207.965ZM95.9975 225.302C91.1859 217.92 90.1422 212.449 89.2864 207.965L88.4592 208.122C89.322 212.644 90.3909 218.243 95.292 225.762L95.9975 225.302ZM82.3147 252.384C85.7136 251.561 88.8726 250.808 91.3022 247.196C93.7003 243.632 95.3578 237.331 96.0651 225.558L95.2245 225.507C94.518 237.268 92.8646 243.365 90.6034 246.726C88.3737 250.041 85.525 250.741 82.1167 251.565L82.3147 252.384ZM76.1662 254.417C78.2953 253.358 80.3482 252.86 82.3147 252.384L82.1167 251.565C80.1561 252.04 78.0159 252.556 75.791 253.664L76.1662 254.417ZM51.1073 258.42C56.1269 258.043 61.1296 257.668 65.4962 257.078C69.8518 256.489 73.6265 255.681 76.1662 254.417L75.791 253.664C73.3853 254.861 69.7315 255.656 65.3835 256.243C61.0465 256.829 56.0704 257.203 51.0442 257.58L51.1073 258.42ZM25.3054 262.514C27.9521 261.248 31.8347 260.412 36.3651 259.799C40.8861 259.188 46.0058 258.803 51.1073 258.42L51.0442 257.58C45.949 257.963 40.8028 258.349 36.2521 258.965C31.7107 259.579 27.7157 260.428 24.9421 261.754L25.3054 262.514ZM11.3033 271.999C16.1614 268.298 21.146 264.503 25.3054 262.514L24.9421 261.754C20.6868 263.79 15.6249 267.648 10.793 271.329L11.3033 271.999ZM-2.28416 280.961C-0.464034 280.277 1.67391 278.991 3.97342 277.411C6.2777 275.827 8.77148 273.927 11.3033 271.999L10.793 271.329C8.25699 273.26 5.78045 275.147 3.4964 276.717C1.20758 278.29 -0.860828 279.526 -2.58062 280.173L-2.28416 280.961ZM-2.01133 338.58V280.567H-2.85345V338.58H-2.01133ZM277.199 338.159H-2.43239V339.001H277.199V338.159ZM276.778 280.567V338.58H277.62V280.567H276.778ZM269.475 278.458C271.146 279.148 272.65 279.77 273.936 280.222C275.213 280.671 276.321 280.97 277.191 280.988L277.208 280.146C276.484 280.131 275.485 279.874 274.216 279.427C272.956 278.984 271.474 278.373 269.796 277.68L269.475 278.458ZM252.474 273.029C258.974 274.123 264.885 276.563 269.475 278.458L269.796 277.68C265.214 275.787 259.22 273.311 252.614 272.199L252.474 273.029ZM220.851 262.501C229.46 267.347 238.256 270.636 252.474 273.029L252.614 272.199C238.48 269.82 229.778 266.559 221.264 261.767L220.851 262.501ZM208.421 258.133C212.797 259.287 217.219 260.457 220.851 262.501L221.264 261.767C217.521 259.66 212.987 258.467 208.636 257.318L208.421 258.133ZM193.619 251.619C195.317 253.386 197.591 254.632 200.139 255.626C202.687 256.62 205.544 257.373 208.421 258.133L208.636 257.318C205.748 256.556 202.94 255.815 200.445 254.842C197.951 253.869 195.804 252.677 194.226 251.035L193.619 251.619ZM180.519 236.681C183.769 241.202 190.182 248.042 193.619 251.619L194.226 251.035C190.781 247.45 184.412 240.653 181.202 236.19L180.519 236.681ZM181.057 229.379C180.83 231.174 180.542 233.453 180.44 236.421L181.281 236.45C181.382 233.523 181.666 231.277 181.892 229.485L181.057 229.379ZM181.253 224.936C181.48 225.987 181.316 227.327 181.057 229.379L181.892 229.485C182.144 227.493 182.341 225.983 182.077 224.758L181.253 224.936ZM191.256 189.218C192.187 208.048 185.003 220.654 181.357 224.56L181.973 225.134C185.781 221.055 193.039 208.223 192.097 189.176L191.256 189.218ZM196.034 154.653C194.019 158.3 190.318 170.231 191.256 189.218L192.097 189.176C191.164 170.286 194.856 158.526 196.771 155.061L196.034 154.653ZM194.204 123.442L195.982 154.881L196.823 154.833L195.045 123.394L194.204 123.442ZM136.05 75.0425C162.067 75.0425 176.288 82.883 184.162 92.7902C192.053 102.719 193.639 114.806 194.204 123.445L195.045 123.39C194.477 114.72 192.881 102.408 184.821 92.2663C176.744 82.103 162.244 74.2004 136.05 74.2004V75.0425ZM78.5517 123.41C78.2281 106.351 93.2268 75.0425 136.05 75.0425V74.2004C92.696 74.2004 77.3783 105.957 77.7097 123.426L78.5517 123.41ZM78.8324 156.257L78.5517 123.414L77.7096 123.421L77.9903 156.264L78.8324 156.257ZM86.306 186.852L78.8205 156.161L78.0023 156.36L85.4879 187.051L86.306 186.852Z" fill="black"/>
<path d="M120.33 246.087C124.868 248.333 138.193 247.556 143.956 251.187C151.161 255.725 155.98 256.005 161.969 254.321" stroke="black" stroke-width="1.02926"/>
<path d="M91.9787 207.349C93.3354 212.698 100.877 226.531 110.271 234.204" stroke="black" stroke-width="1.02926"/>
<path d="M191.677 182.413C191.817 188.901 191.527 203.691 189.244 210.952C186.39 220.028 174.834 237.993 157.851 243.748C140.869 249.502 119.301 243.233 115.465 240.146C111.628 237.058 106.809 229.572 104.423 220.262C102.515 212.814 96.7663 205.681 94.1308 203.045" stroke="black" stroke-width="0.935692"/>
<path d="M199.958 146.81C197.675 151.451 194.702 156.354 193.501 158.226C192.051 160.378 189.684 168.041 191.817 181.478V189.057C193.08 189.291 196.196 189.253 198.554 187.232C201.502 184.706 202.812 176.659 204.917 171.326C207.022 165.992 210.812 159.489 211.373 150.46C211.935 141.43 208.566 138.904 206.32 138.904C204.075 138.904 202.812 141.009 199.958 146.81Z" fill="#BEC0C1" stroke="black" stroke-width="1.02926"/>
<path d="M196.496 177.454C197.634 174.382 199.228 167.134 196.496 162.717C198.429 160.799 202.84 155.727 205.01 150.787" stroke="black" stroke-width="0.935692"/>
<path d="M188.882 168.94C188.973 163.264 189.87 159.741 190.307 158.689C193.077 156.073 194.751 163.535 193.84 168.689C192.929 173.844 193.235 177.114 191.677 178.858C190.118 180.602 188.768 176.036 188.882 168.94Z" fill="#BEC0C1"/>
<path d="M164.729 130.623C154.109 132.541 128.854 135.226 112.798 130.623" stroke="black" stroke-width="1.02926"/>
<path d="M164.729 123.886C154.109 125.804 128.854 128.489 112.798 123.886" stroke="black" stroke-width="1.02926"/>
<path d="M164.729 117.149C154.109 119.067 128.854 121.752 112.798 117.149" stroke="black" stroke-width="1.02926"/>
<path d="M83.8381 189.431C86.982 189.131 86.8323 184.94 86.3645 182.881C87.4499 176.893 84.228 163.076 82.4813 156.916C81.3429 155.122 78.1397 150.319 74.4344 145.453C69.8027 139.371 67.8845 140.447 66.9956 142.178C66.1067 143.909 66.7617 147.886 69.4284 153.36C72.0951 158.834 73.218 165.337 75.1829 172.495L75.2213 172.635C77.1838 179.784 79.9337 189.803 83.8381 189.431Z" fill="#BEC0C1" stroke="black" stroke-width="1.02926"/>
<path d="M82.9959 168.939C81.7983 163.624 81.8731 160.144 82.0603 159.068C84.1656 156.027 87.4873 162.623 87.768 167.629C88.0487 172.635 88.0955 175.957 86.9726 177.922C85.8498 179.887 84.4931 175.583 82.9959 168.939Z" fill="#BEC0C1"/>
<path d="M73.8262 153.22C74.4967 155.918 76.9233 162.006 81.2649 164.775C80.7035 165.883 79.9175 169.351 81.2649 174.366" stroke="black" stroke-width="0.935692"/>
<path d="M120.518 274.158C122.839 274.167 129.869 275.45 129.682 279.016C129.495 282.581 132.26 284.731 132.338 285.151" stroke="black" stroke-width="0.935692"/>
<path d="M154.39 274.017C152.132 274.026 145.698 275.45 145.88 279.015C146.062 282.581 143.845 284.686 143.769 285.105" stroke="black" stroke-width="0.935692"/>
<path d="M38.925 335.773C40.2194 333.122 43.0608 326.791 44.0713 322.673" stroke="black" stroke-width="0.935692"/>
<path d="M241.754 337.904C240.701 334.454 238.591 326.106 238.584 320.309" stroke="black" stroke-width="0.935692"/>
<path d="M115.886 207.256C119.332 198.512 123.605 192.035 125.804 188.963L124.354 193.595L124.541 196.542L126.272 198.18L130.529 199.069L131.325 200.379L133.991 202.952C134.366 203.264 135.694 203.878 138.015 203.841C140.335 203.803 143.317 200.737 144.518 199.209C147.606 199.911 151.161 198.18 152.003 195.232C152.677 192.874 151.286 190.07 150.506 188.963V188.355C152.347 190.257 156.626 194.905 159.021 198.273C162.015 202.484 164.776 212.776 162.577 207.583C160.818 203.429 156.666 198.148 154.623 195.7C153.688 200.341 148.526 202.375 146.109 202.484C145.563 204.62 142.965 208.828 136.939 208.566C130.913 208.304 128.845 204.152 128.564 202.11C126.244 202.035 124.572 200.768 124.026 200.145C121.079 202.39 113.359 213.665 115.886 207.256Z" fill="black" fill-opacity="0.2"/>
<path d="M139.278 206.227C139.481 207.521 139.765 210.587 139.278 212.496" stroke="black" stroke-width="1.02926"/>
<path d="M123.137 149.617C126.604 151.273 133.37 155.864 131.758 166.533C129.743 179.869 126.37 188.302 124.918 192.151C123.465 196 123.934 198.864 130.587 199.177C131.321 200.788 133.745 203.965 137.568 203.786C141.391 203.607 143.752 200.639 144.455 199.177C146.189 199.699 150.087 199.884 151.811 196.447C153.535 193.01 150.561 189.436 148.859 188.079" stroke="black" stroke-width="1.02926"/>
<path d="M126.319 187.934C124.525 190.039 119.881 197.02 115.652 208.098" stroke="black" stroke-width="0.842123"/>
<path d="M149.477 187.793C153.126 189.883 159.433 197.291 162.951 206.461" stroke="black" stroke-width="0.842123"/>
<path d="M145.688 151.161C144.83 151.66 143.152 154.417 143.302 161.454C143.451 168.49 144.58 175.053 145.126 177.454" stroke="black" stroke-width="0.842123"/>
<path d="M115.745 340.873V263.117L157.711 274.532L194.764 261.058L208.847 340.873H115.745Z" fill="white" stroke="black" stroke-width="0.935692"/>
<path d="M93.1951 242.391C87.2815 233.933 89.733 227.451 91.6979 225.268C89.1716 225.455 87.6745 228.449 83.651 234.578C79.6275 240.707 66.9957 252.31 59.1826 253.994C51.3696 255.678 41.9191 253.994 25.2638 260.731C11.9395 266.12 2.23016 268.029 -1.87129 269.667V337.504H137.126C132.837 326.791 123.034 302.191 118.131 289.503C112.002 273.643 100.587 252.965 93.1951 242.391Z" fill="#1F1F1F" stroke="black" stroke-width="0.935692"/>
<path d="M188.916 275.936C185.398 265.231 183.068 246.243 181.618 238.555C185.766 242.859 194.231 250.569 200.706 254.462C208.8 259.327 215.677 257.643 234.625 265.269C249.783 271.37 268.793 274.735 275.936 275.187V337.317H205.572C204.792 334.011 202.727 324.536 200.706 313.083C198.18 298.767 193.314 289.316 188.916 275.936Z" fill="#1F1F1F" stroke="black" stroke-width="0.935692"/>
<path d="M125.477 254.929C113.125 246.62 99.9633 230.788 94.9262 223.911C88.9845 223.911 87.4406 229.572 88.0488 235.841C88.657 242.11 99.3239 257.549 106.388 268.216C112.04 276.75 119.223 297.16 122.108 306.299C125.024 305.02 132.653 299.44 139.839 287.351C147.025 275.262 155.465 270.368 158.787 269.433C152.83 268.06 137.828 263.238 125.477 254.929Z" fill="white" stroke="black" stroke-width="0.935692"/>
<path d="M180.916 238.508C172.27 259.842 162.171 268.107 158.085 269.433C166.207 270.818 173.212 277.62 175.817 280.988L196.168 294.135L188.074 272.146C186.091 259.645 182.476 244.512 180.916 238.508Z" fill="white" stroke="black" stroke-width="0.935692"/>
<path d="M143.067 282.532C147.297 274.822 155.122 270.555 158.506 269.386C166.329 270.322 173.15 277.542 175.583 281.035L169.173 293.012C178.343 295.024 182.522 328.007 183.349 339.61H156.027C153.204 332.264 147.793 316.301 148.728 309.153C149.664 302.004 151.224 295.585 153.267 293.012L143.067 282.532Z" fill="#1F1F1F" stroke="black" stroke-width="0.935692"/>
<path d="M124.854 102.084C116.096 96.2453 99.1533 96.8754 91.777 97.9202C84.6501 88.267 96.9701 64.4692 136.597 64.4692C189.563 64.4692 197.931 107.885 195.498 128.377C189.66 134.403 189.103 142.88 176.471 142.88C141.57 142.6 135.801 109.382 124.854 102.084Z" fill="black" stroke="black" stroke-width="0.561415"/>
<path d="M136.812 124.562C134.585 115.285 129.375 106.069 126.374 102.584L135.92 105.978C137.345 108.748 140.697 116.506 142.7 125.384C144.702 134.263 154.621 141.181 159.33 143.53C152.25 142.378 139.597 136.157 136.812 124.562Z" fill="black"/>
<path d="M90.3735 85.8966C96.3294 83.0428 96.3135 96.0228 91.0896 97.9671C78.7709 102.552 80.9373 112.096 86.0225 125.055C77.2881 125.57 79.7209 145.126 78.3174 150.085C77.4441 145.984 74.5135 128.873 75.6363 114.95C76.7592 101.027 85.929 89.7798 90.3735 85.8966Z" fill="black" stroke="black" stroke-width="0.561415"/>
<path d="M126.365 231.397C127.3 229.245 130.887 226.718 137.754 226.718C144.62 226.718 148.43 229.245 149.477 231.397" stroke="black" stroke-width="1.02926"/>
<path d="M133.056 225.362C127.84 225.181 122.911 218.304 121.968 215.911C123.153 215.589 127.507 214.964 127.769 214.554C129.173 215.464 133.271 217.238 138.436 217.056C143.601 216.874 146.919 215.312 147.933 214.554L154.623 216.379C153.194 218.847 147.226 225.362 144.378 225.362C140.817 225.362 139.575 225.588 133.056 225.362Z" fill="black" fill-opacity="0.2"/>
<path d="M133.189 221.864C127.974 221.715 124.783 217.74 123.839 215.771C125.024 215.506 127.46 214.891 127.722 214.554C129.126 215.303 133.224 216.763 138.389 216.613C143.554 216.463 146.873 215.178 147.886 214.554L152.191 215.771C150.761 217.802 147.189 221.864 144.341 221.864C140.781 221.864 139.709 222.05 133.189 221.864Z" fill="#F27DCA" stroke="black" stroke-width="1.02926"/>
<path d="M117.102 215.847C119.814 215.879 125.734 215.665 127.721 214.554C128.891 215.24 132.671 216.613 138.426 216.613C144.18 216.613 147.132 215.24 147.888 214.554C149.63 215.416 154.799 216.881 161.547 215.847" stroke="black" stroke-width="1.02926"/>
<path d="M133.281 205.852C134.229 205.852 136.457 206.332 137.453 206.572V216.745L135.599 217.33L135.341 216.745L133.281 217.466L133.538 216.745L131.787 217.33L130.087 216.745L128.697 217.466L128.233 216.745L126.121 217.736L125.915 216.385C125.572 216.625 124.936 216.862 125.142 215.89C125.348 214.918 126.052 213.024 126.379 212.199C126.035 212.529 125.39 212.991 125.554 212.199C125.719 211.407 126.413 209.498 126.739 208.643L126.121 209.048C126.087 208.148 126.162 206.347 126.739 206.347C127.316 206.347 127.975 206.497 128.233 206.572C127.993 206.332 127.841 205.888 129.16 206.032C130.479 206.176 132.216 206.302 132.92 206.347C132.646 206.182 132.333 205.852 133.281 205.852Z" fill="black" stroke="black" stroke-width="0.561415"/>
<path d="M141.445 205.946C140.389 205.946 137.907 206.426 136.798 206.666V216.839L138.863 217.424L139.15 216.839L141.445 217.559L141.158 216.839L143.108 217.424L145.001 216.839L146.55 217.559L147.066 216.839L149.418 217.829L149.648 216.479C150.03 216.719 150.738 216.956 150.508 215.984C150.279 215.011 149.495 213.118 149.131 212.293C149.514 212.623 150.233 213.085 150.049 212.293C149.866 211.5 149.093 209.592 148.73 208.737L149.418 209.142C149.456 208.242 149.372 206.441 148.73 206.441C148.087 206.441 147.353 206.591 147.066 206.666C147.334 206.426 147.502 205.982 146.034 206.126C144.565 206.27 142.63 206.396 141.846 206.441C142.152 206.276 142.5 205.946 141.445 205.946Z" fill="black" stroke="black" stroke-width="0.561415"/>
<path d="M117.57 159.155C117.57 161.381 115.831 163.185 113.687 163.185C111.542 163.185 109.804 161.381 109.804 159.155C109.804 156.93 111.542 156.354 113.687 156.354C115.831 156.354 117.57 156.93 117.57 159.155Z" fill="#18C8FF" stroke="black" stroke-width="1.02926"/>
<circle cx="113.687" cy="159.068" r="1.2164" fill="#010101"/>
<path d="M163.793 158.949C163.793 161.34 161.929 163.279 159.629 163.279C157.33 163.279 155.465 161.34 155.465 158.949C155.465 156.558 157.33 155.98 159.629 155.98C161.929 155.98 163.793 156.558 163.793 158.949Z" fill="#18C8FF" stroke="black" stroke-width="1.02926"/>
<circle cx="159.629" cy="158.881" r="1.2164" fill="#010101"/>
<path d="M123.418 161.267C122.638 159.66 119.628 156.448 113.827 156.448C108.026 156.448 103.612 159.66 102.131 161.267" stroke="black" stroke-width="1.2164"/>
<path d="M150.179 158.319C151.629 157.54 155.84 155.98 161.08 155.98C166.319 155.98 170.218 157.54 171.513 158.319" stroke="black" stroke-width="1.2164"/>
<path opacity="0.2" d="M114.803 172.766C120.338 171.082 122.823 166.737 123.476 164.522C123.445 166.989 121.977 172.383 116.354 174.232C110.731 176.081 105.752 174.441 103.965 173.39C105.203 174.052 109.268 174.45 114.803 172.766Z" fill="black"/>
<path opacity="0.2" d="M158.196 173.466C152.341 170.927 150.113 166.212 149.647 163.904C149.406 166.365 150.407 171.969 156.339 174.685C162.272 177.402 167.89 176.543 169.958 175.774C168.533 176.24 164.05 176.004 158.196 173.466Z" fill="black"/>
<path d="M153.895 146.301C149.909 146.581 146.662 149.771 145.537 151.331L149.994 151.09C151.583 151.003 157.711 149.756 160.717 150.508C163.723 151.261 167.451 153.088 169.971 153.031C171.986 152.986 176.911 152.337 179.121 152.018C178.43 151.777 176.503 151.229 174.329 150.964C171.611 150.634 167.517 146.956 165.015 145.698C162.512 144.441 158.877 145.951 153.895 146.301Z" fill="black" stroke="black" stroke-width="1.02926"/>
<path d="M100.164 149.808C96.3803 151.445 93.4504 152.536 92.4583 152.876C101.532 153.824 106.406 154 108.962 153.392C111.519 152.784 116.588 152.439 120.619 153.027C123.844 153.497 127.174 154.072 128.436 154.301L127.292 152.64C124.353 149.252 118.784 147.629 112.967 147.021C107.151 146.414 104.893 147.761 100.164 149.808Z" fill="black" stroke="black" stroke-width="1.02926"/>
</g>
<defs>
<clipPath id="clip0_76_4418">
<rect width="275" height="336.101" fill="white"/>
</clipPath>
</defs>
</svg>
