<svg width="275" height="337" viewBox="0 0 275 337" fill="none" xmlns="http://www.w3.org/2000/svg">
<g clip-path="url(#clip0_76_4356)">
<rect width="275" height="336.101" transform="translate(-6.10352e-05 0.192993)" fill="#0D51FF"/>
<rect x="-0.000198364" y="0.192993" width="275" height="336.101" fill="#B800E6"/>
<path fill-rule="evenodd" clip-rule="evenodd" d="M85.8965 187.144C86.2708 191.152 87.3188 200.618 88.5165 206.42C88.6377 207.007 88.7532 207.612 88.8724 208.237C89.7317 212.74 90.788 218.274 95.6443 225.725C94.2306 249.26 89.0225 250.52 82.2152 252.168C80.2517 252.643 78.1551 253.15 75.9782 254.233C71.0327 256.695 61.1211 257.439 51.0753 258.193C40.8786 258.959 30.5436 259.735 25.1233 262.327C20.9159 264.339 15.8927 268.166 11.0477 271.857C5.97985 275.717 1.10707 279.429 -2.43285 280.76V338.773H277.199V280.76C275.606 280.727 272.985 279.645 269.635 278.262C265.049 276.368 259.097 273.91 252.543 272.807C238.368 270.421 229.619 267.146 221.057 262.327C217.369 260.251 212.891 259.07 208.528 257.919C202.763 256.397 197.198 254.929 193.922 251.52C190.481 247.939 184.09 241.121 180.86 236.629C180.961 233.681 181.247 231.418 181.474 229.625C181.73 227.603 181.91 226.178 181.665 225.04C185.392 221.048 192.612 208.328 191.677 189.39C190.741 170.452 194.437 158.606 196.402 155.05L194.624 123.611C193.491 106.3 188.261 74.8145 136.05 74.8145C92.961 74.8145 77.8028 106.347 78.1303 123.611L78.411 156.454L85.8965 187.144Z" fill="#F8ED18"/>
<path d="M88.5165 206.42L88.9288 206.334L88.5165 206.42ZM85.8965 187.144L86.3158 187.105L86.3129 187.074L86.3056 187.045L85.8965 187.144ZM88.8724 208.237L88.4588 208.315V208.315L88.8724 208.237ZM95.6443 225.725L96.0646 225.75L96.073 225.612L95.9971 225.495L95.6443 225.725ZM82.2152 252.168L82.1162 251.758L82.2152 252.168ZM75.9782 254.233L76.1658 254.61L75.9782 254.233ZM51.0753 258.193L51.1068 258.613L51.0753 258.193ZM25.1233 262.327L24.9416 261.947L25.1233 262.327ZM11.0477 271.857L10.7926 271.522L10.7926 271.522L11.0477 271.857ZM-2.43285 280.76L-2.58108 280.366L-2.85391 280.469V280.76H-2.43285ZM-2.43285 338.773H-2.85391V339.194H-2.43285V338.773ZM277.199 338.773V339.194H277.62V338.773H277.199ZM277.199 280.76H277.62V280.348L277.208 280.339L277.199 280.76ZM269.635 278.262L269.474 278.651H269.474L269.635 278.262ZM252.543 272.807L252.473 273.222L252.543 272.807ZM221.057 262.327L221.264 261.96L221.057 262.327ZM208.528 257.919L208.421 258.326L208.528 257.919ZM193.922 251.52L193.619 251.812L193.922 251.52ZM180.86 236.629L180.439 236.614L180.434 236.758L180.518 236.875L180.86 236.629ZM181.474 229.625L181.056 229.572L181.474 229.625ZM181.665 225.04L181.357 224.753L181.207 224.913L181.253 225.129L181.665 225.04ZM191.677 189.39L192.097 189.369L191.677 189.39ZM196.402 155.05L196.77 155.254L196.829 155.147L196.822 155.026L196.402 155.05ZM194.624 123.611L195.044 123.587L195.044 123.583L194.624 123.611ZM78.1303 123.611L78.5514 123.607L78.5513 123.603L78.1303 123.611ZM78.411 156.454L77.99 156.457L77.9904 156.506L78.0019 156.553L78.411 156.454ZM88.9288 206.334C87.7363 200.558 86.69 191.112 86.3158 187.105L85.4773 187.183C85.8517 191.192 86.9013 200.679 88.1041 206.505L88.9288 206.334ZM89.286 208.158C89.1669 207.533 89.0509 206.925 88.9288 206.334L88.1041 206.505C88.2246 207.088 88.3395 207.69 88.4588 208.315L89.286 208.158ZM95.9971 225.495C91.1855 218.113 90.1418 212.642 89.286 208.158L88.4588 208.315C89.3216 212.837 90.3905 218.435 95.2916 225.955L95.9971 225.495ZM82.3143 252.577C85.7131 251.754 88.8721 251.001 91.3017 247.389C93.6998 243.825 95.3574 237.524 96.0646 225.75L95.224 225.7C94.5175 237.461 92.8642 243.558 90.603 246.919C88.3733 250.234 85.5246 250.934 82.1162 251.758L82.3143 252.577ZM76.1658 254.61C78.2948 253.551 80.3478 253.053 82.3143 252.577L82.1162 251.758C80.1557 252.233 78.0154 252.749 75.7906 253.857L76.1658 254.61ZM51.1068 258.613C56.1264 258.236 61.1291 257.861 65.4958 257.271C69.8514 256.682 73.626 255.874 76.1658 254.61L75.7906 253.857C73.3849 255.054 69.731 255.849 65.383 256.436C61.046 257.022 56.07 257.396 51.0438 257.773L51.1068 258.613ZM25.305 262.707C27.9517 261.441 31.8343 260.605 36.3646 259.992C40.8856 259.381 46.0053 258.996 51.1068 258.613L51.0438 257.773C45.9486 258.156 40.8024 258.542 36.2517 259.158C31.7103 259.772 27.7152 260.621 24.9416 261.947L25.305 262.707ZM11.3029 272.192C16.1609 268.491 21.1455 264.696 25.305 262.707L24.9416 261.947C20.6863 263.983 15.6244 267.841 10.7926 271.522L11.3029 272.192ZM-2.28461 281.154C-0.464492 280.47 1.67345 279.184 3.97297 277.604C6.27725 276.02 8.77103 274.12 11.3029 272.192L10.7926 271.522C8.25653 273.453 5.77999 275.34 3.49594 276.91C1.20712 278.483 -0.861285 279.719 -2.58108 280.366L-2.28461 281.154ZM-2.01178 338.773V280.76H-2.85391V338.773H-2.01178ZM277.199 338.352H-2.43285V339.194H277.199V338.352ZM276.778 280.76V338.773H277.62V280.76H276.778ZM269.474 278.651C271.146 279.341 272.65 279.963 273.936 280.415C275.213 280.864 276.321 281.163 277.19 281.181L277.208 280.339C276.483 280.324 275.485 280.067 274.215 279.62C272.955 279.177 271.474 278.566 269.796 277.873L269.474 278.651ZM252.473 273.222C258.973 274.316 264.884 276.756 269.474 278.651L269.796 277.873C265.214 275.98 259.22 273.504 252.613 272.392L252.473 273.222ZM220.851 262.694C229.46 267.54 238.256 270.829 252.473 273.222L252.613 272.392C238.48 270.013 229.778 266.752 221.264 261.96L220.851 262.694ZM208.421 258.326C212.796 259.48 217.218 260.65 220.851 262.694L221.264 261.96C217.52 259.853 212.987 258.66 208.636 257.511L208.421 258.326ZM193.619 251.812C195.316 253.579 197.59 254.825 200.139 255.819C202.686 256.813 205.543 257.566 208.421 258.326L208.636 257.511C205.748 256.749 202.939 256.008 200.445 255.035C197.95 254.062 195.804 252.87 194.226 251.228L193.619 251.812ZM180.518 236.875C183.769 241.395 190.181 248.235 193.619 251.812L194.226 251.228C190.781 247.643 184.412 240.846 181.202 236.383L180.518 236.875ZM181.056 229.572C180.829 231.367 180.541 233.646 180.439 236.614L181.281 236.643C181.381 233.716 181.665 231.47 181.892 229.678L181.056 229.572ZM181.253 225.129C181.48 226.18 181.316 227.52 181.056 229.572L181.892 229.678C182.144 227.686 182.34 226.176 182.076 224.951L181.253 225.129ZM191.256 189.411C192.186 208.241 185.003 220.847 181.357 224.753L181.972 225.327C185.781 221.248 193.038 208.416 192.097 189.369L191.256 189.411ZM196.033 154.846C194.018 158.493 190.318 170.424 191.256 189.411L192.097 189.369C191.164 170.479 194.855 158.719 196.77 155.254L196.033 154.846ZM194.204 123.635L195.981 155.074L196.822 155.026L195.044 123.587L194.204 123.635ZM136.05 75.2355C162.067 75.2355 176.288 83.076 184.162 92.9832C192.052 102.912 193.638 114.999 194.204 123.638L195.044 123.583C194.476 114.913 192.881 102.601 184.821 92.4593C176.744 82.296 162.244 74.3934 136.05 74.3934V75.2355ZM78.5513 123.603C78.2277 106.544 93.2264 75.2355 136.05 75.2355V74.3934C92.6957 74.3934 77.3779 106.15 77.7093 123.619L78.5513 123.603ZM78.832 156.45L78.5513 123.607L77.7093 123.614L77.99 156.457L78.832 156.45ZM86.3056 187.045L78.8201 156.354L78.0019 156.553L85.4875 187.244L86.3056 187.045Z" fill="black"/>
<path d="M120.33 246.28C124.868 248.526 138.192 247.749 143.956 251.38C151.161 255.918 155.98 256.198 161.968 254.514" stroke="black" stroke-width="1.02926"/>
<path d="M91.9785 207.542C93.3353 212.892 100.877 226.724 110.271 234.397" stroke="black" stroke-width="1.02926"/>
<path d="M191.677 182.606C191.817 189.094 191.527 203.884 189.244 211.145C186.39 220.221 174.834 238.186 157.851 243.941C140.868 249.695 119.301 243.426 115.464 240.339C111.628 237.251 106.809 229.765 104.423 220.455C102.514 213.007 96.7661 205.874 94.1306 203.238" stroke="black" stroke-width="0.935692"/>
<path d="M199.957 147.003C197.674 151.644 194.702 156.547 193.501 158.419C192.051 160.571 189.683 168.234 191.817 181.671V189.25C193.08 189.484 196.196 189.446 198.554 187.425C201.501 184.899 202.811 176.852 204.916 171.519C207.022 166.185 210.811 159.682 211.373 150.653C211.934 141.623 208.566 139.097 206.32 139.097C204.074 139.097 202.811 141.202 199.957 147.003Z" fill="#F8ED18" stroke="black" stroke-width="1.02926"/>
<path d="M196.495 177.647C197.634 174.575 199.227 167.327 196.495 162.91C198.429 160.992 202.839 155.92 205.01 150.98" stroke="black" stroke-width="0.935692"/>
<path d="M188.882 169.133C188.973 163.457 189.869 159.934 190.306 158.882C193.077 156.266 194.751 163.728 193.839 168.882C192.928 174.037 193.235 177.307 191.676 179.051C190.118 180.795 188.768 176.229 188.882 169.133Z" fill="#F8ED18"/>
<path d="M164.729 130.816C154.109 132.734 128.854 135.419 112.798 130.816" stroke="black" stroke-width="1.02926"/>
<path d="M164.729 124.079C154.109 125.997 128.854 128.682 112.798 124.079" stroke="black" stroke-width="1.02926"/>
<path d="M164.729 117.342C154.109 119.26 128.854 121.945 112.798 117.342" stroke="black" stroke-width="1.02926"/>
<path d="M83.8382 189.624C86.9821 189.324 86.8324 185.133 86.3646 183.074C87.45 177.086 84.2281 163.269 82.4814 157.109C81.343 155.315 78.1398 150.512 74.4345 145.646C69.8028 139.564 67.8846 140.64 66.9957 142.371C66.1068 144.102 66.7618 148.079 69.4285 153.553C72.0953 159.027 73.2181 165.53 75.183 172.688L75.2214 172.828C77.1839 179.977 79.9338 189.996 83.8382 189.624Z" fill="#F8ED18" stroke="black" stroke-width="1.02926"/>
<path d="M82.9962 169.132C81.7985 163.817 81.8733 160.337 82.0605 159.261C84.1658 156.22 87.4875 162.816 87.7682 167.822C88.0489 172.828 88.0957 176.15 86.9729 178.115C85.85 180.08 84.4933 175.776 82.9962 169.132Z" fill="#F8ED18"/>
<path d="M73.8263 153.413C74.4969 156.111 76.9235 162.199 81.2651 164.968C80.7037 166.076 79.9177 169.544 81.2651 174.559" stroke="black" stroke-width="0.935692"/>
<path d="M120.517 274.351C122.839 274.36 129.868 275.643 129.681 279.209C129.494 282.774 132.26 284.924 132.338 285.344" stroke="black" stroke-width="0.935692"/>
<path d="M154.389 274.211C152.132 274.219 145.698 275.643 145.88 279.209C146.061 282.774 143.845 284.879 143.769 285.299" stroke="black" stroke-width="0.935692"/>
<path d="M38.9247 335.966C40.2191 333.315 43.0605 326.984 44.071 322.866" stroke="black" stroke-width="0.935692"/>
<path d="M241.754 338.097C240.7 334.647 238.591 326.299 238.583 320.502" stroke="black" stroke-width="0.935692"/>
<path d="M115.885 207.449C119.332 198.705 123.605 192.228 125.804 189.156L124.353 193.788L124.54 196.735L126.271 198.373L130.529 199.262L131.324 200.571L133.991 203.145C134.365 203.457 135.694 204.071 138.014 204.034C140.335 203.996 143.317 200.93 144.517 199.402C147.605 200.104 151.161 198.373 152.003 195.425C152.677 193.067 151.286 190.263 150.506 189.156V188.548C152.346 190.45 156.625 195.098 159.021 198.466C162.015 202.677 164.775 212.969 162.576 207.776C160.817 203.622 156.666 198.341 154.623 195.893C153.687 200.534 148.525 202.568 146.108 202.677C145.562 204.813 142.964 209.021 136.938 208.759C130.913 208.497 128.845 204.345 128.564 202.303C126.243 202.228 124.572 200.961 124.026 200.338C121.078 202.583 113.359 213.858 115.885 207.449Z" fill="black" fill-opacity="0.2"/>
<path d="M139.278 206.42C139.48 207.714 139.764 210.78 139.278 212.689" stroke="black" stroke-width="1.02926"/>
<path d="M123.137 149.81C126.604 151.466 133.369 156.057 131.758 166.726C129.743 180.062 126.37 188.495 124.917 192.344C123.465 196.193 123.933 199.057 130.586 199.37C131.32 200.981 133.744 204.158 137.567 203.979C141.39 203.8 143.752 200.832 144.455 199.37C146.188 199.892 150.086 200.077 151.81 196.64C153.535 193.203 150.561 189.629 148.859 188.272" stroke="black" stroke-width="1.02926"/>
<path d="M126.318 188.127C124.525 190.232 119.881 197.212 115.651 208.291" stroke="black" stroke-width="0.842123"/>
<path d="M149.477 187.986C153.126 190.076 159.432 197.484 162.951 206.654" stroke="black" stroke-width="0.842123"/>
<path d="M145.687 151.354C144.829 151.853 143.151 154.61 143.301 161.647C143.451 168.683 144.58 175.245 145.126 177.647" stroke="black" stroke-width="0.842123"/>
<path d="M115.745 341.066L99.7446 261.345C99.7446 261.345 119.254 283.38 156.26 283.38C193.267 283.38 193.267 255.731 193.267 255.731L208.846 341.066H115.745Z" fill="white" stroke="black" stroke-width="0.935692"/>
<path d="M95.7211 242.537C95.7211 234.724 93.7562 227.644 95.7211 225.461C93.1948 225.648 87.6742 228.642 83.6507 234.771C79.6272 240.9 66.9954 252.503 59.1823 254.187C51.3693 255.871 41.9188 254.187 25.2635 260.924C11.9392 266.313 2.22987 268.222 -1.87158 269.86V337.697H137.126C132.837 326.984 123.034 302.384 118.131 289.696C112.002 273.836 95.7211 255.438 95.7211 242.537Z" fill="#1890FF" stroke="black" stroke-width="0.935692"/>
<path d="M188.916 276.129C185.398 265.424 183.068 246.436 181.618 238.748C185.766 243.052 194.231 250.762 200.706 254.655C208.799 259.52 215.677 257.836 234.625 265.462C249.783 271.563 268.793 274.928 275.935 275.38V337.51H205.571C204.792 334.204 202.727 324.729 200.706 313.276C198.179 298.96 193.314 289.509 188.916 276.129Z" fill="#1890FF" stroke="black" stroke-width="0.935692"/>
<path fill-rule="evenodd" clip-rule="evenodd" d="M80.8904 154.615C78.6448 151.17 73.748 144.865 71.5803 142.143C71.5803 129.671 71.5803 71.2122 136.283 71.2122C200.987 71.2122 204.355 130.792 204.355 139.99C204.355 147.347 197.057 154.78 193.407 157.577C195.216 147.274 191.918 139.342 188.515 134.629C188.382 135.367 188.263 136.142 188.168 136.945C187.613 141.597 188.07 148.47 188.617 156.675C188.669 157.463 188.722 158.262 188.776 159.074C188.826 159.846 188.879 160.622 188.932 161.397C189.513 169.909 190.078 178.177 187.419 178.349C185.161 178.495 185.653 172.46 186.202 165.719C186.359 163.8 186.52 161.823 186.624 159.916C187.063 151.825 186.594 145.387 186.225 140.33C186.201 140.007 186.178 139.689 186.156 139.377C185.911 135.976 185.461 133.117 185.211 131.533C185.173 131.289 185.139 131.075 185.112 130.894C185.07 130.86 185.028 130.826 184.986 130.792C191.237 114.176 189.504 104.532 185.209 98.0091C184.552 98.2237 183.552 99.274 183.863 102.184C183.883 102.369 183.904 102.564 183.927 102.768C184.377 106.901 185.224 114.675 182.46 114.675C180.027 114.675 180.355 109.061 181.243 102.184C181.837 97.5895 180.015 93.2845 178.544 90.9086C177.461 90.0175 176.372 89.182 175.316 88.3727C174.572 87.8023 173.845 87.245 173.15 86.6904C167.514 82.1964 162.612 83.8514 158.157 86.6482C157.747 87.7254 157.507 89.1639 157.265 90.6116C156.794 93.4281 156.318 96.279 154.576 96.5693C153.334 96.7764 152.311 96.2717 151.383 95.8137C150.005 95.1333 148.835 94.556 147.465 96.5693C146.291 98.2947 146.319 101.039 146.344 103.381C146.367 105.611 146.387 107.477 145.36 107.751C142.694 108.462 142.512 107.048 142.037 103.354L142.037 103.353C141.907 102.34 141.755 101.156 141.523 99.7975C141.072 97.1506 140.426 95.6207 138.918 94.9185C136.249 95.1885 133.317 95.2836 130.211 95.1611C126.805 96.2525 122.156 98.8249 121.266 103.494C120.186 109.151 120.706 113.298 121.434 119.115C121.622 120.61 121.823 122.215 122.014 123.985C122.95 132.64 122.529 136.336 119.722 136.336C116.915 136.336 116.868 131.424 117.476 123.985C117.71 121.124 117.832 118.204 117.944 115.509V115.509C118.124 111.195 118.28 107.457 118.833 105.458C119.015 104.798 119.196 104.167 119.369 103.563C120.775 98.6437 121.654 95.568 118.909 93.8048C118.174 93.6571 117.435 93.4969 116.694 93.3237C114.582 93.5583 111.909 94.6194 111.441 97.6923C111.17 99.4694 111.254 101.032 111.324 102.321C111.446 104.595 111.523 106.015 109.523 106.254C106.388 106.628 108.727 97.8794 109.523 95.5869C110.184 93.6815 109.229 91.6467 107.195 90.6379C96.3079 87.9747 91.6575 91.3816 90.6684 93.6444C78.9536 110.872 84.1342 127.502 88.1888 133.664C80.9653 136.786 80.3134 148.933 80.8904 154.615ZM121.733 141.966C121.733 142.741 120.896 143.915 119.862 143.915C118.828 143.915 117.991 142.741 117.991 141.966C117.991 141.191 118.828 138.769 119.862 138.769C120.896 138.769 121.733 141.191 121.733 141.966ZM154.67 104.897C155.703 104.897 156.541 103.723 156.541 102.948C156.541 102.173 155.703 99.7508 154.67 99.7508C153.636 99.7508 152.798 102.173 152.798 102.948C152.798 103.723 153.636 104.897 154.67 104.897ZM189.197 184.727C189.197 185.503 188.359 186.677 187.325 186.677C186.292 186.677 185.454 185.503 185.454 184.727C185.454 183.952 186.292 181.53 187.325 181.53C188.359 181.53 189.197 183.952 189.197 184.727Z" fill="#1890FF"/>
<path d="M71.5803 142.143H71.1125V142.307L71.2143 142.435L71.5803 142.143ZM80.8904 154.615L80.4985 154.871L81.3559 154.568L80.8904 154.615ZM193.407 157.577L192.947 157.496L192.739 158.678L193.692 157.948L193.407 157.577ZM188.515 134.629L188.895 134.355L188.25 133.463L188.055 134.546L188.515 134.629ZM188.168 136.945L188.632 137L188.168 136.945ZM188.617 156.675L189.084 156.644L188.617 156.675ZM188.776 159.074L188.309 159.104V159.104L188.776 159.074ZM188.932 161.397L188.466 161.429L188.932 161.397ZM187.419 178.349L187.449 178.816L187.419 178.349ZM186.202 165.719L186.669 165.757L186.202 165.719ZM186.624 159.916L186.156 159.89L186.624 159.916ZM186.225 140.33L186.692 140.296L186.225 140.33ZM186.156 139.377L186.622 139.344L186.156 139.377ZM185.211 131.533L185.674 131.46V131.46L185.211 131.533ZM185.112 130.894L185.575 130.824L185.548 130.647L185.409 130.533L185.112 130.894ZM184.986 130.792L184.548 130.628L184.429 130.946L184.694 131.158L184.986 130.792ZM185.209 98.0091L185.6 97.7518L185.403 97.4535L185.064 97.5643L185.209 98.0091ZM183.863 102.184L184.329 102.134V102.134L183.863 102.184ZM183.927 102.768L184.392 102.717V102.717L183.927 102.768ZM181.243 102.184L181.707 102.244L181.243 102.184ZM178.544 90.9086L178.942 90.6624L178.901 90.5966L178.841 90.5474L178.544 90.9086ZM175.316 88.3727L175.031 88.744L175.316 88.3727ZM173.15 86.6904L173.441 86.3247V86.3247L173.15 86.6904ZM158.157 86.6482L157.908 86.252L157.776 86.3353L157.72 86.4818L158.157 86.6482ZM157.265 90.6116L157.726 90.6887L157.265 90.6116ZM151.383 95.8137L151.59 95.3942L151.59 95.3942L151.383 95.8137ZM147.465 96.5693L147.852 96.8326L147.465 96.5693ZM146.344 103.381L145.876 103.386L146.344 103.381ZM145.36 107.751L145.48 108.203L145.36 107.751ZM142.037 103.354L142.501 103.294L142.5 103.284L142.037 103.354ZM142.037 103.353L141.573 103.413L141.575 103.423L142.037 103.353ZM141.523 99.7975L141.984 99.7189L141.984 99.7189L141.523 99.7975ZM138.918 94.9185L139.115 94.4944L138.999 94.4401L138.871 94.4531L138.918 94.9185ZM130.211 95.1611L130.229 94.6936L130.146 94.6903L130.068 94.7155L130.211 95.1611ZM121.266 103.494L120.806 103.406L121.266 103.494ZM121.434 119.115L121.899 119.057L121.434 119.115ZM122.014 123.985L122.479 123.935L122.014 123.985ZM117.476 123.985L117.942 124.023L117.476 123.985ZM117.944 115.509L118.411 115.528L118.412 115.518V115.509H117.944ZM117.944 115.509L117.477 115.489L117.476 115.499V115.509H117.944ZM118.833 105.458L119.284 105.583L118.833 105.458ZM119.369 103.563L119.818 103.691L119.369 103.563ZM118.909 93.8048L119.162 93.4112L119.088 93.3635L119.001 93.3461L118.909 93.8048ZM116.694 93.3237L116.801 92.8681L116.723 92.8498L116.643 92.8587L116.694 93.3237ZM111.441 97.6923L110.978 97.6218L111.441 97.6923ZM111.324 102.321L110.857 102.346L111.324 102.321ZM109.523 106.254L109.578 106.718L109.523 106.254ZM109.523 95.5869L109.965 95.7403L109.523 95.5869ZM107.195 90.6379L107.403 90.2188L107.356 90.1958L107.306 90.1835L107.195 90.6379ZM90.6684 93.6444L91.0553 93.9075L91.0797 93.8716L91.0971 93.8318L90.6684 93.6444ZM88.1888 133.664L88.3745 134.093L88.886 133.872L88.5797 133.407L88.1888 133.664ZM71.2143 142.435C73.3837 145.158 78.2668 151.447 80.4985 154.871L81.2824 154.36C79.0228 150.893 74.1123 144.571 71.9463 141.852L71.2143 142.435ZM136.283 70.7443C120.035 70.7443 107.814 74.4151 98.6293 80.1442C89.4446 85.8732 83.3249 93.6419 79.2498 101.791C71.108 118.073 71.1125 135.906 71.1125 142.143H72.0482C72.0482 135.908 72.0526 118.276 80.0866 102.21C84.0993 94.1854 90.1115 86.5599 99.1245 80.9381C108.137 75.3165 120.18 71.68 136.283 71.68V70.7443ZM204.823 139.99C204.823 135.357 203.978 118.07 194.992 101.924C190.495 93.8447 183.955 86.0444 174.459 80.2656C164.962 74.4861 152.534 70.7443 136.283 70.7443V71.68C152.385 71.68 164.641 75.3857 173.973 81.0649C183.307 86.7449 189.741 94.4144 194.174 102.379C203.048 118.323 203.887 135.425 203.887 139.99H204.823ZM193.692 157.948C195.548 156.526 198.317 153.937 200.628 150.769C202.932 147.61 204.823 143.814 204.823 139.99H203.887C203.887 143.523 202.129 147.123 199.872 150.218C197.62 153.305 194.916 155.831 193.123 157.205L193.692 157.948ZM188.136 134.903C191.478 139.532 194.73 147.339 192.947 157.496L193.868 157.657C195.703 147.209 192.357 139.151 188.895 134.355L188.136 134.903ZM188.055 134.546C187.92 135.292 187.8 136.077 187.703 136.889L188.632 137C188.727 136.208 188.844 135.441 188.976 134.712L188.055 134.546ZM187.703 136.889C187.142 141.596 187.605 148.522 188.15 156.706L189.084 156.644C188.536 148.418 188.084 141.599 188.632 137L187.703 136.889ZM188.15 156.706C188.202 157.494 188.256 158.293 188.309 159.104L189.243 159.043C189.189 158.231 189.136 157.432 189.084 156.644L188.15 156.706ZM188.309 159.104C188.36 159.877 188.413 160.654 188.466 161.429L189.399 161.365C189.346 160.591 189.293 159.815 189.243 159.043L188.309 159.104ZM188.466 161.429C188.757 165.694 189.04 169.861 188.923 172.983C188.864 174.549 188.705 175.809 188.415 176.676C188.118 177.566 187.752 177.859 187.389 177.882L187.449 178.816C188.415 178.753 188.976 177.948 189.302 176.973C189.636 175.975 189.798 174.605 189.858 173.018C189.978 169.835 189.689 165.612 189.399 161.365L188.466 161.429ZM187.389 177.882C187.221 177.893 187.099 177.849 186.991 177.762C186.872 177.665 186.747 177.492 186.633 177.21C186.402 176.638 186.27 175.754 186.225 174.598C186.136 172.3 186.393 169.139 186.669 165.757L185.736 165.681C185.462 169.04 185.198 172.267 185.29 174.635C185.336 175.812 185.471 176.831 185.765 177.56C185.914 177.928 186.116 178.256 186.4 178.487C186.696 178.728 187.052 178.841 187.449 178.816L187.389 177.882ZM186.669 165.757C186.825 163.839 186.987 161.856 187.091 159.941L186.156 159.89C186.053 161.791 185.893 163.761 185.736 165.681L186.669 165.757ZM187.091 159.941C187.532 151.818 187.061 145.355 186.692 140.296L185.758 140.364C186.127 145.419 186.594 151.831 186.156 159.89L187.091 159.941ZM186.692 140.296C186.668 139.973 186.645 139.656 186.622 139.344L185.689 139.411C185.712 139.723 185.735 140.041 185.758 140.364L186.692 140.296ZM186.622 139.344C186.376 135.922 185.923 133.046 185.674 131.46L184.749 131.605C184.998 133.188 185.446 136.031 185.689 139.411L186.622 139.344ZM185.674 131.46C185.635 131.216 185.602 131.003 185.575 130.824L184.65 130.964C184.677 131.147 184.711 131.362 184.749 131.605L185.674 131.46ZM184.694 131.158C184.734 131.19 184.774 131.222 184.815 131.256L185.409 130.533C185.365 130.497 185.322 130.461 185.278 130.427L184.694 131.158ZM184.818 98.2664C189.004 104.623 190.766 114.098 184.548 130.628L185.424 130.957C191.707 114.254 190.004 104.44 185.6 97.7518L184.818 98.2664ZM184.329 102.134C184.026 99.3114 185.012 98.5656 185.354 98.4539L185.064 97.5643C184.091 97.8817 183.077 99.2366 183.398 102.233L184.329 102.134ZM184.392 102.717C184.37 102.513 184.348 102.318 184.329 102.134L183.398 102.233C183.418 102.419 183.439 102.615 183.462 102.819L184.392 102.717ZM182.46 115.143C183.439 115.143 184.025 114.429 184.356 113.562C184.686 112.694 184.827 111.53 184.866 110.286C184.945 107.787 184.616 104.776 184.392 102.717L183.462 102.819C183.688 104.893 184.007 107.835 183.931 110.257C183.893 111.473 183.755 112.51 183.481 113.229C183.207 113.949 182.862 114.207 182.46 114.207V115.143ZM180.779 102.124C180.335 105.56 180.025 108.721 180.139 111.031C180.195 112.18 180.358 113.171 180.695 113.889C180.866 114.253 181.091 114.569 181.392 114.794C181.698 115.025 182.059 115.143 182.46 115.143V114.207C182.253 114.207 182.091 114.15 181.954 114.046C181.81 113.938 181.669 113.762 181.542 113.492C181.284 112.942 181.128 112.099 181.073 110.985C180.964 108.769 181.263 105.684 181.707 102.244L180.779 102.124ZM178.146 91.1549C179.587 93.4823 181.354 97.6773 180.779 102.124L181.707 102.244C182.32 97.5016 180.443 93.0868 178.942 90.6624L178.146 91.1549ZM175.031 88.744C176.088 89.554 177.171 90.3847 178.247 91.2698L178.841 90.5474C177.751 89.6503 176.655 88.81 175.601 88.0014L175.031 88.744ZM172.858 87.0562C173.558 87.6141 174.288 88.1742 175.031 88.744L175.601 88.0014C174.856 87.4305 174.133 86.876 173.441 86.3247L172.858 87.0562ZM158.406 87.0444C160.611 85.6604 162.873 84.5941 165.249 84.4016C167.603 84.2107 170.122 84.8746 172.858 87.0562L173.441 86.3247C170.542 84.0123 167.792 83.2567 165.173 83.469C162.575 83.6796 160.159 84.8392 157.908 86.252L158.406 87.0444ZM157.726 90.6887C157.971 89.2253 158.205 87.8388 158.594 86.8146L157.72 86.4818C157.29 87.6119 157.043 89.1026 156.804 90.5345L157.726 90.6887ZM154.653 97.0308C155.797 96.8403 156.433 95.8206 156.838 94.696C157.25 93.547 157.493 92.0837 157.726 90.6887L156.804 90.5345C156.566 91.956 156.335 93.3265 155.957 94.3796C155.57 95.4572 155.098 96.0081 154.499 96.1079L154.653 97.0308ZM151.176 96.2332C152.089 96.6837 153.242 97.266 154.653 97.0308L154.499 96.1079C153.426 96.2868 152.534 95.8596 151.59 95.3942L151.176 96.2332ZM147.852 96.8326C148.491 95.8931 149.007 95.664 149.437 95.6489C149.932 95.6316 150.456 95.8775 151.176 96.2332L151.59 95.3942C150.932 95.0694 150.182 94.6865 149.405 94.7138C148.563 94.7433 147.809 95.2322 147.078 96.3061L147.852 96.8326ZM146.812 103.376C146.799 102.199 146.787 100.957 146.92 99.7969C147.053 98.633 147.327 97.6037 147.852 96.8326L147.078 96.3061C146.429 97.2604 146.13 98.4657 145.99 99.6907C145.85 100.919 145.864 102.22 145.876 103.386L146.812 103.376ZM145.48 108.203C146.3 107.984 146.587 107.154 146.708 106.371C146.836 105.545 146.823 104.477 146.812 103.376L145.876 103.386C145.888 104.515 145.897 105.495 145.783 106.228C145.663 107.004 145.447 107.243 145.239 107.299L145.48 108.203ZM141.573 103.413C141.691 104.332 141.794 105.13 141.923 105.789C142.051 106.443 142.214 107.01 142.476 107.446C142.753 107.904 143.141 108.218 143.68 108.34C144.188 108.455 144.787 108.388 145.48 108.203L145.239 107.299C144.6 107.469 144.176 107.492 143.886 107.427C143.626 107.368 143.439 107.231 143.278 106.963C143.102 106.672 142.964 106.238 142.841 105.609C142.719 104.987 142.621 104.223 142.501 103.294L141.573 103.413ZM141.575 103.423L141.575 103.423L142.5 103.284L142.5 103.284L141.575 103.423ZM141.062 99.876C141.292 101.224 141.443 102.4 141.573 103.413L142.501 103.294C142.371 102.281 142.218 101.088 141.984 99.7189L141.062 99.876ZM138.72 95.3427C139.994 95.9354 140.612 97.2328 141.062 99.876L141.984 99.7189C141.533 97.0685 140.859 95.306 139.115 94.4944L138.72 95.3427ZM130.192 95.6286C133.32 95.7519 136.274 95.6563 138.965 95.384L138.871 94.4531C136.225 94.7207 133.315 94.8153 130.229 94.6936L130.192 95.6286ZM121.725 103.581C122.144 101.386 123.448 99.6663 125.088 98.3508C126.73 97.0333 128.688 96.1404 130.353 95.6066L130.068 94.7155C128.328 95.2732 126.258 96.2122 124.502 97.6209C122.744 99.0316 121.278 100.932 120.806 103.406L121.725 103.581ZM121.899 119.057C121.17 113.238 120.661 109.158 121.725 103.581L120.806 103.406C119.711 109.144 120.242 113.358 120.97 119.173L121.899 119.057ZM122.479 123.935C122.287 122.161 122.086 120.552 121.899 119.057L120.97 119.173C121.158 120.668 121.358 122.27 121.549 124.035L122.479 123.935ZM119.722 136.804C120.54 136.804 121.229 136.528 121.749 135.931C122.25 135.355 122.557 134.525 122.733 133.484C123.084 131.407 122.947 128.259 122.479 123.935L121.549 124.035C122.017 128.367 122.137 131.394 121.81 133.328C121.647 134.294 121.381 134.928 121.043 135.316C120.724 135.683 120.307 135.868 119.722 135.868V136.804ZM117.01 123.947C116.706 127.661 116.56 130.797 116.854 133.012C117.001 134.117 117.263 135.048 117.713 135.714C118.183 136.41 118.852 136.804 119.722 136.804V135.868C119.188 135.868 118.798 135.649 118.489 135.191C118.159 134.703 117.922 133.942 117.782 132.889C117.503 130.788 117.638 127.748 117.942 124.023L117.01 123.947ZM117.477 115.489C117.364 118.186 117.243 121.097 117.01 123.947L117.942 124.023C118.177 121.152 118.299 118.222 118.411 115.528L117.477 115.489ZM117.476 115.509V115.509H118.412V115.509H117.476ZM118.382 105.334C118.092 106.381 117.913 107.854 117.782 109.58C117.651 111.313 117.566 113.335 117.477 115.489L118.411 115.528C118.501 113.369 118.585 111.365 118.715 109.651C118.845 107.93 119.02 106.535 119.284 105.583L118.382 105.334ZM118.919 103.434C118.746 104.038 118.565 104.671 118.382 105.334L119.284 105.583C119.466 104.925 119.646 104.295 119.818 103.691L118.919 103.434ZM118.656 94.1984C119.277 94.5971 119.672 95.0547 119.911 95.5768C120.154 96.1044 120.252 96.7303 120.228 97.4851C120.178 99.018 119.628 100.952 118.919 103.434L119.818 103.691C120.515 101.255 121.108 99.1912 121.163 97.5157C121.191 96.6663 121.083 95.8851 120.762 95.1864C120.438 94.4822 119.914 93.8942 119.162 93.4112L118.656 94.1984ZM116.588 93.7793C117.334 93.9536 118.077 94.1149 118.817 94.2635L119.001 93.3461C118.271 93.1994 117.537 93.0402 116.801 92.8681L116.588 93.7793ZM111.903 97.7627C112.322 95.0128 114.702 94.0157 116.746 93.7887L116.643 92.8587C114.461 93.101 111.496 94.226 110.978 97.6218L111.903 97.7627ZM111.791 102.296C111.721 101.006 111.641 99.487 111.903 97.7627L110.978 97.6218C110.699 99.4518 110.787 101.058 110.857 102.346L111.791 102.296ZM109.578 106.718C110.13 106.652 110.586 106.5 110.944 106.234C111.309 105.963 111.533 105.603 111.665 105.194C111.793 104.795 111.836 104.343 111.843 103.868C111.85 103.392 111.821 102.86 111.791 102.296L110.857 102.346C110.888 102.919 110.914 103.417 110.908 103.854C110.901 104.293 110.861 104.637 110.774 104.907C110.69 105.167 110.566 105.349 110.386 105.483C110.2 105.621 109.916 105.736 109.467 105.789L109.578 106.718ZM109.081 95.4336C108.676 96.6009 107.882 99.3949 107.584 101.864C107.437 103.089 107.403 104.293 107.636 105.185C107.752 105.634 107.949 106.054 108.28 106.347C108.627 106.655 109.072 106.779 109.578 106.718L109.467 105.789C109.19 105.822 109.022 105.755 108.9 105.647C108.762 105.524 108.633 105.304 108.541 104.95C108.355 104.235 108.369 103.178 108.513 101.976C108.801 99.592 109.574 96.8654 109.965 95.7403L109.081 95.4336ZM106.987 91.0571C108.849 91.9806 109.651 93.7897 109.081 95.4336L109.965 95.7403C110.716 93.5732 109.608 91.3128 107.403 90.2188L106.987 91.0571ZM91.0971 93.8318C91.9466 91.8883 96.2746 88.4481 107.084 91.0924L107.306 90.1835C96.3413 87.5012 91.3684 90.875 90.2397 93.4571L91.0971 93.8318ZM88.5797 133.407C84.6054 127.367 79.4693 110.946 91.0553 93.9075L90.2816 93.3814C78.4378 110.799 83.6629 127.637 87.798 133.921L88.5797 133.407ZM81.3559 154.568C81.0713 151.765 81.0907 147.363 82.0693 143.289C83.0525 139.196 84.9697 135.565 88.3745 134.093L88.0032 133.234C84.1844 134.885 82.164 138.889 81.1595 143.07C80.1506 147.271 80.1326 151.783 80.425 154.663L81.3559 154.568ZM119.862 144.383C120.56 144.383 121.146 143.991 121.539 143.538C121.928 143.09 122.201 142.498 122.201 141.966H121.266C121.266 142.21 121.12 142.592 120.832 142.925C120.547 143.253 120.198 143.448 119.862 143.448V144.383ZM117.523 141.966C117.523 142.498 117.797 143.09 118.185 143.538C118.578 143.991 119.165 144.383 119.862 144.383V143.448C119.526 143.448 119.177 143.253 118.892 142.925C118.604 142.592 118.458 142.21 118.458 141.966H117.523ZM119.862 138.301C119.415 138.301 119.054 138.56 118.792 138.84C118.524 139.127 118.298 139.5 118.117 139.874C117.935 140.252 117.789 140.653 117.687 141.013C117.589 141.363 117.523 141.709 117.523 141.966H118.458C118.458 141.836 118.497 141.588 118.588 141.266C118.676 140.954 118.804 140.605 118.96 140.28C119.118 139.952 119.296 139.671 119.475 139.479C119.661 139.28 119.792 139.237 119.862 139.237V138.301ZM122.201 141.966C122.201 141.709 122.136 141.363 122.037 141.013C121.935 140.653 121.789 140.252 121.607 139.874C121.426 139.5 121.2 139.127 120.932 138.84C120.67 138.56 120.309 138.301 119.862 138.301V139.237C119.932 139.237 120.063 139.28 120.249 139.479C120.428 139.671 120.606 139.952 120.764 140.28C120.92 140.605 121.048 140.954 121.136 141.266C121.227 141.588 121.266 141.836 121.266 141.966H122.201ZM156.073 102.948C156.073 103.191 155.928 103.574 155.64 103.907C155.355 104.234 155.006 104.429 154.67 104.429V105.365C155.367 105.365 155.954 104.973 156.346 104.52C156.735 104.071 157.009 103.479 157.009 102.948H156.073ZM154.67 100.219C154.74 100.219 154.87 100.262 155.057 100.461C155.236 100.653 155.413 100.934 155.572 101.262C155.728 101.586 155.856 101.936 155.944 102.248C156.034 102.569 156.073 102.818 156.073 102.948H157.009C157.009 102.69 156.943 102.345 156.844 101.994C156.743 101.634 156.597 101.233 156.414 100.855C156.234 100.481 156.008 100.108 155.74 99.8215C155.478 99.5421 155.117 99.2829 154.67 99.2829V100.219ZM153.266 102.948C153.266 102.818 153.305 102.569 153.396 102.248C153.484 101.936 153.611 101.586 153.768 101.262C153.926 100.934 154.104 100.653 154.283 100.461C154.469 100.262 154.6 100.219 154.67 100.219V99.2829C154.223 99.2829 153.861 99.5421 153.6 99.8215C153.331 100.108 153.105 100.481 152.925 100.855C152.743 101.233 152.597 101.634 152.495 101.994C152.396 102.345 152.331 102.69 152.331 102.948H153.266ZM154.67 104.429C154.334 104.429 153.984 104.234 153.7 103.907C153.411 103.574 153.266 103.191 153.266 102.948H152.331C152.331 103.479 152.604 104.071 152.993 104.52C153.386 104.973 153.972 105.365 154.67 105.365V104.429ZM187.325 187.145C188.023 187.145 188.609 186.752 189.002 186.299C189.391 185.851 189.665 185.259 189.665 184.727H188.729C188.729 184.971 188.584 185.354 188.295 185.686C188.011 186.014 187.661 186.209 187.325 186.209V187.145ZM184.986 184.727C184.986 185.259 185.26 185.851 185.649 186.299C186.042 186.752 186.628 187.145 187.325 187.145V186.209C186.989 186.209 186.64 186.014 186.356 185.686C186.067 185.354 185.922 184.971 185.922 184.727H184.986ZM187.325 181.063C186.878 181.063 186.517 181.322 186.255 181.601C185.987 181.888 185.761 182.261 185.581 182.635C185.398 183.013 185.252 183.414 185.151 183.774C185.052 184.125 184.986 184.47 184.986 184.727H185.922C185.922 184.597 185.961 184.349 186.051 184.028C186.139 183.715 186.267 183.366 186.424 183.041C186.582 182.713 186.759 182.432 186.938 182.241C187.125 182.042 187.256 181.998 187.325 181.998V181.063ZM189.665 184.727C189.665 184.47 189.599 184.125 189.5 183.774C189.399 183.414 189.252 183.013 189.07 182.635C188.89 182.261 188.664 181.888 188.395 181.601C188.134 181.322 187.772 181.063 187.325 181.063V181.998C187.395 181.998 187.526 182.042 187.712 182.241C187.892 182.432 188.069 182.713 188.227 183.041C188.384 183.366 188.511 183.715 188.599 184.028C188.69 184.349 188.729 184.597 188.729 184.727H189.665Z" fill="black"/>
<path d="M126.365 231.59C127.3 229.438 130.887 226.911 137.753 226.911C144.62 226.911 148.43 229.438 149.477 231.59" stroke="black" stroke-width="1.02926"/>
<path d="M133.055 225.555C127.84 225.374 122.911 218.497 121.967 216.104C123.153 215.782 127.507 215.157 127.769 214.747C129.172 215.657 133.271 217.431 138.436 217.249C143.601 217.067 146.919 215.505 147.933 214.747L154.623 216.572C153.193 219.04 147.225 225.555 144.377 225.555C140.817 225.555 139.575 225.781 133.055 225.555Z" fill="black" fill-opacity="0.2"/>
<path d="M133.189 222.057C127.973 221.908 124.782 217.933 123.839 215.964C125.024 215.699 127.46 215.084 127.722 214.747C129.125 215.496 133.224 216.956 138.389 216.806C143.554 216.656 146.872 215.371 147.886 214.747L152.19 215.964C150.76 217.995 147.189 222.057 144.341 222.057C140.781 222.057 139.709 222.243 133.189 222.057Z" fill="#1890FF" stroke="black" stroke-width="1.02926"/>
<path d="M117.102 216.04C119.814 216.072 125.734 215.858 127.721 214.747C128.891 215.433 132.671 216.806 138.425 216.806C144.18 216.806 147.132 215.433 147.888 214.747C149.629 215.609 154.799 217.074 161.547 216.04" stroke="black" stroke-width="1.02926"/>
<path d="M123.418 161.46C120.423 163.05 118.739 164.267 112.938 164.267C107.137 164.267 103.534 162.957 102.131 161.46" stroke="black" stroke-width="1.2164"/>
<path d="M150.272 159.635C151.395 160.477 156.073 163.471 161.313 163.471C166.553 163.471 169.781 161.413 171.606 159.635" stroke="black" stroke-width="1.2164"/>
<path opacity="0.2" d="M114.803 172.959C120.338 171.275 122.822 166.93 123.476 164.715C123.445 167.182 121.977 172.576 116.353 174.425C110.73 176.274 105.751 174.634 103.965 173.583C105.202 174.245 109.268 174.643 114.803 172.959Z" fill="black"/>
<path opacity="0.2" d="M158.195 173.659C152.341 171.12 150.113 166.405 149.647 164.097C149.406 166.558 150.407 172.161 156.339 174.878C162.271 177.595 167.89 176.736 169.957 175.967C168.532 176.433 164.05 176.197 158.195 173.659Z" fill="black"/>
<path d="M153.894 146.494C149.909 146.774 146.662 149.964 145.537 151.524L149.994 151.283C151.582 151.196 157.711 149.949 160.717 150.701C163.723 151.454 167.451 153.281 169.97 153.224C171.986 153.179 176.911 152.53 179.121 152.211C178.429 151.97 176.502 151.422 174.328 151.157C171.611 150.827 167.517 147.149 165.014 145.891C162.512 144.634 158.876 146.144 153.894 146.494Z" fill="white" stroke="black" stroke-width="1.02926"/>
<path d="M100.164 150.001C96.38 151.638 93.45 152.729 92.458 153.069C101.532 154.017 106.405 154.193 108.962 153.585C111.518 152.977 116.588 152.632 120.619 153.219C123.843 153.69 127.173 154.265 128.435 154.494L127.291 152.833C124.353 149.445 118.783 147.822 112.967 147.214C107.15 146.607 104.893 147.954 100.164 150.001Z" fill="white" stroke="black" stroke-width="1.02926"/>
</g>
<defs>
<clipPath id="clip0_76_4356">
<rect width="275" height="336.101" fill="white" transform="translate(-6.10352e-05 0.192993)"/>
</clipPath>
</defs>
</svg>
