<svg width="310" height="348" viewBox="0 0 310 348" fill="none" xmlns="http://www.w3.org/2000/svg">
<g clip-path="url(#clip0_76_5089)">
<path fill-rule="evenodd" clip-rule="evenodd" d="M115.303 201.474C116.531 204.788 119.57 212.576 121.904 217.222C122.14 217.693 122.375 218.179 122.618 218.682C124.37 222.305 126.523 226.758 132.333 231.972C136.482 252.248 132.352 254.5 126.955 257.443C125.398 258.292 123.735 259.198 122.136 260.611C118.502 263.822 110.267 266.704 101.921 269.626C93.4489 272.592 84.8624 275.598 80.8555 279.028C77.7453 281.69 74.3555 286.075 71.0861 290.305C67.6662 294.73 64.378 298.984 61.679 300.917L74.8589 350.105L311.953 286.576L298.773 237.388C297.415 237.722 294.947 237.4 291.792 236.988C287.474 236.424 281.868 235.692 276.061 236.246C263.5 237.443 255.338 236.654 246.984 234.514C243.385 233.591 239.32 233.607 235.359 233.622C230.125 233.642 225.073 233.661 221.521 231.515C217.79 229.261 210.822 224.931 207.063 221.857C206.479 219.334 206.208 217.351 205.993 215.779C205.75 214.006 205.579 212.757 205.113 211.848C207.366 207.616 210.598 195.191 205.502 179.347C200.406 163.502 200.849 152.618 201.707 149.157L193.057 122.904C188.163 108.484 176.576 82.9761 132.307 94.838C95.773 104.627 90.0845 134.807 94.2843 149.37L101.984 177.153L115.303 201.474Z" fill="#ACC27E"/>
<path d="M121.904 217.222L121.573 217.388L121.904 217.222ZM115.303 201.474L115.65 201.346L115.64 201.321L115.627 201.297L115.303 201.474ZM122.618 218.682L122.951 218.521L122.618 218.682ZM132.333 231.972L132.695 231.898L132.671 231.778L132.58 231.697L132.333 231.972ZM126.955 257.443L127.131 257.767L127.131 257.767L126.955 257.443ZM122.136 260.611L122.38 260.888L122.136 260.611ZM101.921 269.626L102.043 269.975L101.921 269.626ZM80.8555 279.028L80.6152 278.747L80.8555 279.028ZM71.0861 290.305L70.7936 290.079L70.7936 290.079L71.0861 290.305ZM61.679 300.917L61.4638 300.617L61.2558 300.766L61.322 301.013L61.679 300.917ZM74.8589 350.105L74.5019 350.201L74.5976 350.558L74.9546 350.462L74.8589 350.105ZM311.953 286.576L312.049 286.933L312.406 286.837L312.31 286.48L311.953 286.576ZM298.773 237.388L299.13 237.292L299.036 236.943L298.685 237.029L298.773 237.388ZM291.792 236.988L291.84 236.621L291.792 236.988ZM276.061 236.246L276.096 236.614L276.061 236.246ZM246.984 234.514L247.076 234.155L246.984 234.514ZM235.359 233.622L235.361 233.992L235.361 233.992L235.359 233.622ZM221.521 231.515L221.33 231.831L221.521 231.515ZM207.063 221.857L206.703 221.94L206.732 222.063L206.829 222.143L207.063 221.857ZM205.993 215.779L206.359 215.729L206.359 215.729L205.993 215.779ZM205.113 211.848L204.786 211.674L204.695 211.845L204.784 212.017L205.113 211.848ZM201.707 149.157L202.066 149.246L202.091 149.142L202.058 149.041L201.707 149.157ZM193.057 122.904L193.408 122.788L193.407 122.785L193.057 122.904ZM94.2843 149.37L94.6405 149.271L94.6394 149.268L94.2843 149.37ZM101.984 177.153L101.628 177.252L101.639 177.293L101.66 177.331L101.984 177.153ZM122.234 217.057C119.91 212.43 116.877 204.658 115.65 201.346L114.957 201.603C116.185 204.917 119.23 212.722 121.573 217.388L122.234 217.057ZM122.951 218.521C122.708 218.019 122.472 217.53 122.234 217.057L121.573 217.388C121.808 217.856 122.042 218.34 122.286 218.843L122.951 218.521ZM132.58 231.697C126.823 226.531 124.696 222.129 122.951 218.521L122.286 218.843C124.044 222.481 126.223 226.985 132.087 232.247L132.58 231.697ZM127.131 257.767C129.826 256.298 132.334 254.941 133.573 251.327C134.797 247.76 134.771 242.041 132.695 231.898L131.971 232.046C134.044 242.179 134.028 247.724 132.874 251.087C131.736 254.404 129.48 255.645 126.778 257.118L127.131 257.767ZM122.38 260.888C123.945 259.506 125.572 258.618 127.131 257.767L126.778 257.118C125.223 257.966 123.526 258.89 121.891 260.334L122.38 260.888ZM102.043 269.975C106.213 268.515 110.369 267.06 113.938 265.568C117.497 264.079 120.514 262.537 122.38 260.888L121.891 260.334C120.123 261.896 117.206 263.4 113.653 264.886C110.108 266.368 105.974 267.816 101.798 269.278L102.043 269.975ZM81.0959 279.308C83.0524 277.634 86.1545 276.043 89.8564 274.494C93.5507 272.948 97.8042 271.459 102.043 269.975L101.798 269.278C97.5652 270.759 93.2896 272.256 89.5711 273.812C85.8601 275.365 82.6655 276.992 80.6152 278.747L81.0959 279.308ZM71.3785 290.531C74.6568 286.29 78.0211 281.94 81.0959 279.308L80.6152 278.747C77.4696 281.439 74.0543 285.861 70.7936 290.079L71.3785 290.531ZM61.8942 301.218C63.282 300.224 64.8026 298.648 66.3933 296.785C67.9872 294.919 69.67 292.742 71.3785 290.531L70.7936 290.079C69.0823 292.293 67.411 294.455 65.8311 296.305C64.2479 298.159 62.775 299.677 61.4638 300.617L61.8942 301.218ZM75.2159 350.009L62.036 300.821L61.322 301.013L74.5019 350.201L75.2159 350.009ZM311.857 286.219L74.7633 349.748L74.9546 350.462L312.049 286.933L311.857 286.219ZM298.416 237.484L311.596 286.672L312.31 286.48L299.13 237.292L298.416 237.484ZM291.744 237.354C293.318 237.56 294.735 237.745 295.928 237.836C297.113 237.927 298.12 237.929 298.861 237.747L298.685 237.029C298.068 237.181 297.162 237.189 295.985 237.099C294.815 237.01 293.421 236.828 291.84 236.621L291.744 237.354ZM276.096 236.614C281.856 236.065 287.422 236.79 291.744 237.354L291.84 236.621C287.525 236.058 281.881 235.32 276.026 235.878L276.096 236.614ZM246.892 234.872C255.292 237.024 263.498 237.815 276.096 236.614L276.026 235.878C263.502 237.072 255.384 236.284 247.076 234.155L246.892 234.872ZM235.361 233.992C239.333 233.976 243.348 233.963 246.892 234.872L247.076 234.155C243.423 233.219 239.308 233.237 235.358 233.252L235.361 233.992ZM221.33 231.831C223.171 232.944 225.382 233.484 227.769 233.748C230.155 234.012 232.749 234.002 235.361 233.992L235.358 233.252C232.736 233.262 230.187 233.272 227.85 233.013C225.514 232.755 223.424 232.232 221.713 231.199L221.33 231.831ZM206.829 222.143C210.612 225.237 217.603 229.58 221.33 231.831L221.713 231.199C217.977 228.942 211.033 224.626 207.297 221.57L206.829 222.143ZM205.627 215.829C205.842 217.403 206.115 219.4 206.703 221.94L207.423 221.773C206.844 219.268 206.574 217.299 206.359 215.729L205.627 215.829ZM204.784 212.017C205.215 212.856 205.38 214.03 205.627 215.829L206.359 215.729C206.12 213.983 205.944 212.658 205.441 211.679L204.784 212.017ZM205.15 179.46C210.217 195.214 206.99 207.535 204.786 211.674L205.439 212.022C207.741 207.698 210.979 195.169 205.854 179.233L205.15 179.46ZM201.348 149.068C200.468 152.617 200.041 163.574 205.15 179.46L205.854 179.233C200.771 163.429 201.229 152.619 202.066 149.246L201.348 149.068ZM192.706 123.02L201.356 149.273L202.058 149.041L193.408 122.788L192.706 123.02ZM132.403 95.195C154.462 89.2842 168.301 92.7011 177.228 99.3125C186.174 105.938 190.264 115.826 192.707 123.023L193.407 122.785C190.956 115.563 186.806 105.486 177.668 98.7185C168.51 91.9362 154.421 88.5299 132.211 94.481L132.403 95.195ZM94.6394 149.268C90.4895 134.877 96.0936 104.924 132.403 95.195L132.211 94.481C95.4523 104.331 89.6796 134.737 93.9292 149.473L94.6394 149.268ZM102.34 177.054L94.6405 149.271L93.9281 149.469L101.628 177.252L102.34 177.054ZM115.627 201.297L102.308 176.976L101.66 177.331L114.979 201.652L115.627 201.297Z" fill="black"/>
<path d="M157.934 243.792C162.292 244.665 173.413 240.979 179.124 242.748C186.264 244.959 190.414 244.102 195.109 241.313" stroke="black" stroke-width="0.903476"/>
<path d="M125.094 217.388C127.46 221.615 136.997 231.63 146.705 236.001" stroke="black" stroke-width="0.903476"/>
<path d="M203.961 173.595C205.554 179.063 208.668 191.67 208.382 198.345C208.024 206.689 202.308 224.546 189.216 233.284C176.124 242.021 156.413 241.606 152.458 239.859C148.504 238.113 142.718 232.861 138.579 225.509C135.269 219.627 128.774 214.885 125.941 213.25" stroke="black" stroke-width="0.821341"/>
<path d="M202.894 141.526C202.012 145.98 200.606 150.812 200.013 152.672C199.272 154.826 199.006 161.862 203.867 172.769L205.589 179.196C206.713 179.107 209.347 178.367 210.887 176.118C212.812 173.306 212.095 166.186 212.668 161.185C213.241 156.185 214.977 149.81 213.402 142.027C211.826 134.243 208.396 132.867 206.492 133.377C204.588 133.887 203.995 135.959 202.894 141.526Z" fill="#ACC27E" stroke="black" stroke-width="0.903476"/>
<path d="M206.92 168.295C207.187 165.432 206.892 158.924 203.572 155.8C204.776 153.734 207.363 148.432 208.081 143.75" stroke="black" stroke-width="0.821341"/>
<path d="M198.53 162.806C197.318 157.972 197.278 154.781 197.41 153.79C199.164 150.943 202.279 156.889 202.677 161.467C203.076 166.045 204.079 168.747 203.153 170.58C202.228 172.413 200.046 168.848 198.53 162.806Z" fill="#ACC27E"/>
<path d="M169.346 135.805C160.777 139.844 139.975 147.858 125.315 147.603" stroke="black" stroke-width="0.903476"/>
<path d="M167.816 130.093C159.247 134.132 138.444 142.146 123.784 141.891" stroke="black" stroke-width="0.903476"/>
<path d="M166.285 124.38C157.716 128.42 136.914 136.434 122.254 136.179" stroke="black" stroke-width="0.903476"/>
<path d="M114.121 204.045C116.719 203.076 115.64 199.556 114.775 197.917C114.335 192.593 108.464 181.61 105.584 176.784C104.211 175.522 100.404 172.177 96.1568 168.893C90.8479 164.789 89.466 166.137 89.1056 167.807C88.7451 169.476 90.2039 172.699 93.7086 176.734C97.2132 180.77 99.6427 186.028 102.935 191.651L102.999 191.761C106.288 197.377 110.895 205.247 114.121 204.045Z" fill="#ACC27E" stroke="black" stroke-width="0.903476"/>
<path d="M108.752 186.861C106.529 182.627 105.801 179.659 105.716 178.704C106.81 175.647 111.125 180.486 112.5 184.667C113.875 188.847 114.67 191.653 114.164 193.574C113.659 195.495 111.53 192.154 108.752 186.861Z" fill="#ACC27E"/>
<path d="M97.4055 175.616C98.587 177.751 102.028 182.362 106.338 183.724C106.114 184.791 106.235 187.91 108.517 191.856" stroke="black" stroke-width="0.821341"/>
<path d="M164.47 267.55C166.44 267.03 172.692 266.521 173.343 269.586C173.995 272.652 176.828 273.847 176.99 274.185" stroke="black" stroke-width="0.821341"/>
<path d="M193.157 259.735C191.245 260.256 186.114 262.924 187.078 265.906C188.042 268.888 186.641 271.177 186.672 271.549" stroke="black" stroke-width="0.821341"/>
<path d="M109.287 338.329C109.783 335.787 110.753 329.773 110.675 326.053" stroke="black" stroke-width="0.821341"/>
<path d="M281.747 294.055C280.069 291.369 276.384 284.77 275.061 279.857" stroke="black" stroke-width="0.821341"/>
<ellipse cx="198.413" cy="174.343" rx="3.16216" ry="4.32867" transform="rotate(-5.87607 198.413 174.343)" fill="#96AB6B"/>
<ellipse cx="103.731" cy="141.93" rx="3.16216" ry="4.32867" transform="rotate(-20.7001 103.731 141.93)" fill="#96AB6B"/>
<ellipse cx="107.614" cy="151.403" rx="1.39278" ry="1.90656" transform="rotate(-20.7001 107.614 151.403)" fill="#96AB6B"/>
<path d="M201.846 184.068C201.92 184.787 201.772 185.445 201.491 185.927C201.21 186.408 200.813 186.69 200.383 186.734C199.952 186.778 199.506 186.583 199.133 186.169C198.76 185.755 198.481 185.141 198.407 184.421C198.333 183.702 198.481 183.044 198.762 182.562C199.043 182.081 199.44 181.799 199.87 181.755C200.301 181.711 200.746 181.905 201.12 182.32C201.493 182.734 201.772 183.348 201.846 184.068Z" stroke="#96AB6B" stroke-width="0.739207"/>
<path d="M145.343 211.877C146.279 203.68 148.43 197.218 149.597 194.114L149.419 198.37L150.248 200.827L152.087 201.822L155.899 201.608L156.871 202.538L159.717 204.114C160.105 204.294 161.371 204.513 163.33 203.954C165.289 203.395 167.121 200.118 167.792 198.549C170.569 198.443 173.191 196.167 173.235 193.477C173.271 191.325 171.454 189.263 170.541 188.502L170.403 187.986C172.396 189.181 177.08 192.149 179.876 194.461C183.371 197.351 188.05 205.451 185.006 201.547C182.571 198.424 177.851 194.89 175.563 193.278C175.824 197.426 171.909 200.323 169.884 200.965C169.907 202.9 168.66 207.058 163.491 208.205C158.323 209.352 155.626 206.302 154.924 204.633C152.939 205.097 151.234 204.403 150.63 203.998C148.641 206.572 144.657 217.886 145.343 211.877Z" fill="black" fill-opacity="0.2"/>
<path d="M164.943 205.69C165.409 206.741 166.346 209.276 166.368 211.005" stroke="black" stroke-width="0.903476"/>
<path d="M138.397 161.359C141.713 161.975 148.492 164.331 149.549 173.743C150.871 185.508 149.927 193.425 149.57 197.018C149.213 200.611 150.26 202.933 155.973 201.687C156.961 202.887 159.738 205.03 162.939 204.01C166.14 202.989 167.467 199.936 167.731 198.537C169.32 198.586 172.667 197.857 173.348 194.551C174.029 191.245 170.696 188.89 168.944 188.126" stroke="black" stroke-width="0.903476"/>
<path d="M149.799 193.124C148.757 195.317 146.405 202.29 145.336 212.644" stroke="black" stroke-width="0.739207"/>
<path d="M169.403 187.744C172.972 188.687 180.002 193.534 185.068 200.51" stroke="black" stroke-width="0.739207"/>
<path d="M157.867 157.545C157.254 158.163 156.457 160.882 158.183 166.814C159.908 172.746 162.357 178.053 163.365 179.966" stroke="black" stroke-width="0.739207"/>
</g>
<defs>
<clipPath id="clip0_76_5089">
<rect width="241.392" height="295.026" fill="white" transform="translate(0 62.4769) rotate(-15)"/>
</clipPath>
</defs>
</svg>
