<svg width="1366" height="546" viewBox="0 0 1366 546" fill="none" xmlns="http://www.w3.org/2000/svg">
<mask id="mask0_92_1050" style="mask-type:alpha" maskUnits="userSpaceOnUse" x="0" y="0" width="1366" height="546">
<rect width="1366" height="546" fill="#E466F9"/>
</mask>
<g mask="url(#mask0_92_1050)">
<mask id="path-2-outside-1_92_1050" maskUnits="userSpaceOnUse" x="932.633" y="212.541" width="370.239" height="277.92" fill="black">
<rect fill="white" x="932.633" y="212.541" width="370.239" height="277.92"/>
<path fill-rule="evenodd" clip-rule="evenodd" d="M1185.3 438.031C1149.48 398.959 1134.35 373.557 1131.26 365.74L1019.37 322.965L1006.3 325.391C1004.14 324.773 1000.91 323.822 997.192 322.722L996.59 324.296C998.099 325.454 998.738 327.506 998.024 329.374C997.154 331.65 994.603 332.79 992.326 331.92C990.049 331.05 988.909 328.499 989.78 326.222C990.494 324.354 992.338 323.252 994.235 323.396L994.767 322.003C991.562 321.053 988.114 320.027 984.755 319.028L984.755 319.027C979.601 317.494 974.658 316.023 971.127 314.984C970.273 314.732 969.485 314.443 968.757 314.122L968.012 316.071C969.521 317.229 970.159 319.281 969.445 321.148C968.575 323.425 966.024 324.565 963.747 323.694C961.47 322.824 960.33 320.273 961.201 317.996C961.915 316.129 963.759 315.026 965.656 315.17L966.515 312.923C961.341 309.594 960.348 304.461 960.621 301.856L967.373 284.194C969.283 281.552 975.274 277.299 983.955 281.427C986.689 282.727 990.33 284.448 994.243 286.295L995.281 283.581C993.772 282.423 993.133 280.371 993.847 278.504C994.717 276.227 997.269 275.087 999.545 275.957C1001.82 276.828 1002.96 279.379 1002.09 281.656C1001.38 283.523 999.533 284.626 997.636 284.482L996.53 287.375L996.806 287.505C1004.64 291.205 1013 295.149 1017.1 297.133L1025.22 307.659L1137.12 350.433C1144.63 346.672 1172.84 337.85 1225.59 332.651C1278.33 327.452 1292.83 328.005 1293.49 328.931C1296.25 329.65 1300.86 333.5 1297.17 343.152L1245.63 477.968C1241.94 487.626 1235.94 487.426 1233.4 486.118C1232.29 486.369 1221.12 477.104 1185.3 438.031Z"/>
</mask>
<path fill-rule="evenodd" clip-rule="evenodd" d="M1185.3 438.031C1149.48 398.959 1134.35 373.557 1131.26 365.74L1019.37 322.965L1006.3 325.391C1004.14 324.773 1000.91 323.822 997.192 322.722L996.59 324.296C998.099 325.454 998.738 327.506 998.024 329.374C997.154 331.65 994.603 332.79 992.326 331.92C990.049 331.05 988.909 328.499 989.78 326.222C990.494 324.354 992.338 323.252 994.235 323.396L994.767 322.003C991.562 321.053 988.114 320.027 984.755 319.028L984.755 319.027C979.601 317.494 974.658 316.023 971.127 314.984C970.273 314.732 969.485 314.443 968.757 314.122L968.012 316.071C969.521 317.229 970.159 319.281 969.445 321.148C968.575 323.425 966.024 324.565 963.747 323.694C961.47 322.824 960.33 320.273 961.201 317.996C961.915 316.129 963.759 315.026 965.656 315.17L966.515 312.923C961.341 309.594 960.348 304.461 960.621 301.856L967.373 284.194C969.283 281.552 975.274 277.299 983.955 281.427C986.689 282.727 990.33 284.448 994.243 286.295L995.281 283.581C993.772 282.423 993.133 280.371 993.847 278.504C994.717 276.227 997.269 275.087 999.545 275.957C1001.82 276.828 1002.96 279.379 1002.09 281.656C1001.38 283.523 999.533 284.626 997.636 284.482L996.53 287.375L996.806 287.505C1004.64 291.205 1013 295.149 1017.1 297.133L1025.22 307.659L1137.12 350.433C1144.63 346.672 1172.84 337.85 1225.59 332.651C1278.33 327.452 1292.83 328.005 1293.49 328.931C1296.25 329.65 1300.86 333.5 1297.17 343.152L1245.63 477.968C1241.94 487.626 1235.94 487.426 1233.4 486.118C1232.29 486.369 1221.12 477.104 1185.3 438.031Z" fill="#F9A824"/>
<path d="M1131.26 365.74L1131.85 365.508L1131.75 365.25L1131.49 365.151L1131.26 365.74ZM1185.3 438.031L1185.76 437.605L1185.3 438.031ZM1019.37 322.965L1019.6 322.376L1019.43 322.313L1019.26 322.345L1019.37 322.965ZM1006.3 325.391L1006.12 325.997L1006.27 326.038L1006.41 326.011L1006.3 325.391ZM997.192 322.722L997.371 322.117L996.812 321.952L996.603 322.497L997.192 322.722ZM996.59 324.296L996.001 324.071L995.834 324.51L996.207 324.797L996.59 324.296ZM994.235 323.396L994.187 324.024L994.656 324.06L994.824 323.621L994.235 323.396ZM994.767 322.003L995.356 322.228L995.599 321.592L994.946 321.399L994.767 322.003ZM984.755 319.028L984.575 319.632L984.576 319.632L984.755 319.028ZM984.755 319.027L984.935 318.423L984.935 318.423L984.755 319.027ZM971.127 314.984L971.305 314.379L971.305 314.379L971.127 314.984ZM968.757 314.122L969.011 313.545L968.405 313.277L968.168 313.897L968.757 314.122ZM968.012 316.071L967.423 315.846L967.255 316.285L967.628 316.571L968.012 316.071ZM961.201 317.996L961.79 318.221L961.201 317.996ZM965.656 315.17L965.608 315.799L966.077 315.834L966.245 315.395L965.656 315.17ZM966.515 312.923L967.104 313.148L967.287 312.669L966.856 312.392L966.515 312.923ZM960.621 301.856L960.032 301.63L960.003 301.708L959.994 301.79L960.621 301.856ZM967.373 284.194L966.862 283.825L966.813 283.892L966.784 283.969L967.373 284.194ZM983.955 281.427L983.684 281.996L983.955 281.427ZM994.243 286.295L993.974 286.865L994.589 287.156L994.832 286.52L994.243 286.295ZM995.281 283.581L995.87 283.806L996.038 283.367L995.665 283.081L995.281 283.581ZM997.636 284.482L997.684 283.853L997.215 283.817L997.047 284.256L997.636 284.482ZM996.53 287.375L995.941 287.15L995.733 287.696L996.261 287.945L996.53 287.375ZM996.806 287.505L996.537 288.075L996.537 288.075L996.806 287.505ZM1017.1 297.133L1017.6 296.748L1017.51 296.63L1017.37 296.565L1017.1 297.133ZM1025.22 307.659L1024.73 308.044L1024.83 308.185L1025 308.248L1025.22 307.659ZM1137.12 350.433L1136.89 351.022L1137.15 351.121L1137.4 350.997L1137.12 350.433ZM1225.59 332.651L1225.52 332.024L1225.59 332.651ZM1293.49 328.931L1292.98 329.296L1293.11 329.483L1293.33 329.541L1293.49 328.931ZM1233.4 486.118L1233.69 485.558L1233.49 485.453L1233.26 485.503L1233.4 486.118ZM1130.68 365.971C1133.81 373.898 1149 399.37 1184.84 438.457L1185.76 437.605C1149.96 398.548 1134.89 373.215 1131.85 365.508L1130.68 365.971ZM1019.15 323.554L1131.04 366.329L1131.49 365.151L1019.6 322.376L1019.15 323.554ZM1006.41 326.011L1019.49 323.585L1019.26 322.345L1006.18 324.771L1006.41 326.011ZM997.013 323.326C1000.73 324.427 1003.97 325.378 1006.12 325.997L1006.47 324.785C1004.32 324.168 1001.09 323.218 997.371 322.117L997.013 323.326ZM997.179 324.521L997.781 322.947L996.603 322.497L996.001 324.071L997.179 324.521ZM998.613 329.599C999.429 327.464 998.698 325.119 996.974 323.796L996.207 324.797C997.501 325.789 998.047 327.549 997.435 329.148L998.613 329.599ZM992.101 332.509C994.703 333.504 997.619 332.201 998.613 329.599L997.435 329.148C996.689 331.1 994.503 332.077 992.551 331.331L992.101 332.509ZM989.191 325.997C988.196 328.599 989.499 331.514 992.101 332.509L992.551 331.331C990.6 330.585 989.623 328.398 990.369 326.447L989.191 325.997ZM994.283 322.767C992.116 322.602 990.007 323.862 989.191 325.997L990.369 326.447C990.98 324.847 992.561 323.901 994.187 324.024L994.283 322.767ZM994.178 321.778L993.646 323.171L994.824 323.621L995.356 322.228L994.178 321.778ZM984.576 319.632C987.934 320.631 991.382 321.657 994.588 322.608L994.946 321.399C991.741 320.448 988.294 319.422 984.935 318.423L984.576 319.632ZM984.574 319.631L984.575 319.632L984.936 318.424L984.935 318.423L984.574 319.631ZM970.949 315.588C974.479 316.628 979.42 318.098 984.575 319.632L984.935 318.423C979.781 316.89 974.837 315.419 971.305 314.379L970.949 315.588ZM968.502 314.699C969.256 315.031 970.07 315.33 970.949 315.588L971.305 314.379C970.476 314.135 969.713 313.855 969.011 313.545L968.502 314.699ZM968.601 316.296L969.346 314.347L968.168 313.897L967.423 315.846L968.601 316.296ZM970.034 321.373C970.85 319.238 970.12 316.893 968.395 315.571L967.628 316.571C968.922 317.564 969.468 319.323 968.856 320.923L970.034 321.373ZM963.522 324.283C966.124 325.278 969.04 323.975 970.034 321.373L968.856 320.923C968.11 322.874 965.924 323.851 963.972 323.105L963.522 324.283ZM960.612 317.771C959.617 320.373 960.92 323.289 963.522 324.283L963.972 323.105C962.021 322.359 961.044 320.173 961.79 318.221L960.612 317.771ZM965.704 314.541C963.537 314.377 961.428 315.636 960.612 317.771L961.79 318.221C962.401 316.621 963.982 315.675 965.608 315.799L965.704 314.541ZM965.926 312.697L965.067 314.945L966.245 315.395L967.104 313.148L965.926 312.697ZM959.994 301.79C959.701 304.585 960.764 309.973 966.174 313.453L966.856 312.392C961.919 309.216 960.995 304.336 961.248 301.921L959.994 301.79ZM966.784 283.969L960.032 301.63L961.21 302.081L967.962 284.419L966.784 283.969ZM984.226 280.858C975.221 276.576 968.917 280.982 966.862 283.825L967.884 284.564C969.649 282.121 975.326 278.022 983.684 281.996L984.226 280.858ZM994.512 285.725C990.599 283.878 986.959 282.158 984.226 280.858L983.684 281.996C986.42 283.297 990.061 285.018 993.974 286.865L994.512 285.725ZM994.692 283.356L993.654 286.07L994.832 286.52L995.87 283.806L994.692 283.356ZM993.258 278.279C992.442 280.414 993.173 282.758 994.897 284.081L995.665 283.081C994.371 282.088 993.824 280.329 994.436 278.729L993.258 278.279ZM999.77 275.369C997.168 274.374 994.253 275.677 993.258 278.279L994.436 278.729C995.182 276.778 997.369 275.8 999.32 276.546L999.77 275.369ZM1002.68 281.881C1003.68 279.279 1002.37 276.363 999.77 275.369L999.32 276.546C1001.27 277.292 1002.25 279.479 1001.5 281.431L1002.68 281.881ZM997.589 285.11C999.756 285.275 1001.86 284.016 1002.68 281.881L1001.5 281.431C1000.89 283.03 999.31 283.977 997.684 283.853L997.589 285.11ZM997.119 287.6L998.225 284.707L997.047 284.256L995.941 287.15L997.119 287.6ZM997.075 286.935L996.799 286.805L996.261 287.945L996.537 288.075L997.075 286.935ZM1017.37 296.565C1013.27 294.58 1004.91 290.634 997.075 286.935L996.537 288.075C1004.38 291.776 1012.73 295.718 1016.82 297.7L1017.37 296.565ZM1025.72 307.274L1017.6 296.748L1016.6 297.518L1024.73 308.044L1025.72 307.274ZM1137.34 349.844L1025.45 307.07L1025 308.248L1136.89 351.022L1137.34 349.844ZM1225.52 332.024C1172.76 337.225 1144.45 346.055 1136.83 349.869L1137.4 350.997C1144.81 347.289 1172.92 338.476 1225.65 333.278L1225.52 332.024ZM1294.01 328.566C1293.91 328.435 1293.79 328.352 1293.7 328.3C1293.61 328.245 1293.51 328.202 1293.41 328.167C1293.2 328.097 1292.95 328.039 1292.65 327.99C1292.05 327.89 1291.2 327.811 1290.05 327.76C1287.75 327.658 1284.2 327.666 1279.05 327.864C1268.73 328.261 1251.9 329.423 1225.52 332.024L1225.65 333.278C1252.01 330.679 1268.81 329.519 1279.1 329.124C1284.24 328.926 1287.74 328.92 1289.99 329.02C1291.12 329.07 1291.92 329.146 1292.44 329.233C1292.71 329.277 1292.89 329.321 1292.99 329.359C1293.02 329.368 1293.04 329.375 1293.05 329.381C1293.07 329.387 1293.07 329.391 1293.07 329.391C1293.07 329.39 1293.07 329.389 1293.07 329.386C1293.06 329.383 1293.06 329.379 1293.05 329.372C1293.03 329.359 1293.01 329.335 1292.98 329.296L1294.01 328.566ZM1297.76 343.377C1299.64 338.446 1299.45 334.886 1298.32 332.429C1297.2 329.981 1295.2 328.723 1293.65 328.321L1293.33 329.541C1294.55 329.858 1296.23 330.885 1297.18 332.954C1298.12 335.015 1298.38 338.207 1296.58 342.927L1297.76 343.377ZM1246.22 478.193L1297.76 343.377L1296.58 342.927L1245.04 477.743L1246.22 478.193ZM1233.11 486.679C1234.53 487.41 1236.87 487.81 1239.33 486.733C1241.81 485.652 1244.33 483.128 1246.22 478.193L1245.04 477.743C1243.23 482.467 1240.91 484.671 1238.83 485.577C1236.74 486.488 1234.81 486.134 1233.69 485.558L1233.11 486.679ZM1184.84 438.457C1202.75 457.998 1214.51 470.093 1221.93 477.274C1225.64 480.864 1228.27 483.233 1230.06 484.693C1230.95 485.421 1231.64 485.934 1232.15 486.259C1232.4 486.421 1232.63 486.547 1232.83 486.63C1232.93 486.672 1233.03 486.708 1233.14 486.731C1233.24 486.752 1233.38 486.769 1233.54 486.733L1233.26 485.503C1233.31 485.493 1233.34 485.492 1233.36 485.493C1233.38 485.493 1233.38 485.494 1233.39 485.495C1233.39 485.495 1233.4 485.496 1233.4 485.496C1233.4 485.496 1233.39 485.495 1233.37 485.49C1233.36 485.485 1233.34 485.478 1233.32 485.468C1233.21 485.423 1233.05 485.338 1232.82 485.194C1232.37 484.909 1231.73 484.433 1230.85 483.717C1229.11 482.29 1226.51 479.947 1222.81 476.368C1215.41 469.211 1203.67 457.137 1185.76 437.605L1184.84 438.457Z" fill="black" mask="url(#path-2-outside-1_92_1050)"/>
<path d="M1235.55 371.915L1219 415.199L1221.06 415.987L1224.22 407.743L1230.66 404.131L1236.74 388.23L1233.9 382.42L1237.61 372.703L1235.55 371.915Z" fill="#790215" stroke="black" stroke-width="0.630469"/>
<rect x="1257.67" y="420.869" width="29.632" height="9.45704" transform="rotate(-69.079 1257.67 420.869)" fill="#790215" stroke="black" stroke-width="0.630469"/>
<path d="M1025.32 307.409L1019.47 322.721L1131.36 365.495L1137.21 350.184L1025.32 307.409Z" fill="#790215" stroke="black" stroke-width="0.630469"/>
<ellipse cx="1046.54" cy="324.295" rx="2.52188" ry="2.52188" transform="rotate(110.921 1046.54 324.295)" fill="#F9A824"/>
<ellipse cx="1078.34" cy="336.452" rx="2.52188" ry="2.52188" transform="rotate(110.921 1078.34 336.452)" fill="#F9A824"/>
<ellipse cx="1099.54" cy="344.557" rx="2.52188" ry="2.52188" transform="rotate(110.921 1099.54 344.557)" fill="#F9A824"/>
<rect x="1027.35" y="325.059" width="14.5008" height="1.26094" rx="0.630469" transform="rotate(-69.079 1027.35 325.059)" fill="#F9A824"/>
<rect x="1037.95" y="329.111" width="14.5008" height="1.26094" rx="0.630469" transform="rotate(-69.079 1037.95 329.111)" fill="#F9A824"/>
<rect x="1048.55" y="333.164" width="14.5008" height="1.26094" rx="0.630469" transform="rotate(-69.079 1048.55 333.164)" fill="#F9A824"/>
<rect x="1059.15" y="337.216" width="14.5008" height="1.26094" rx="0.630469" transform="rotate(-69.079 1059.15 337.216)" fill="#F9A824"/>
<rect x="1069.75" y="341.268" width="14.5008" height="1.26094" rx="0.630469" transform="rotate(-69.079 1069.75 341.268)" fill="#F9A824"/>
<rect x="1080.35" y="345.32" width="14.5008" height="1.26094" rx="0.630469" transform="rotate(-69.079 1080.35 345.32)" fill="#F9A824"/>
<rect x="1090.95" y="349.373" width="14.5008" height="1.26094" rx="0.630469" transform="rotate(-69.079 1090.95 349.373)" fill="#F9A824"/>
<rect x="1101.55" y="353.425" width="14.5008" height="1.26094" rx="0.630469" transform="rotate(-69.079 1101.55 353.425)" fill="#F9A824"/>
<rect x="1112.15" y="357.477" width="14.5008" height="1.26094" rx="0.630469" transform="rotate(-69.079 1112.15 357.477)" fill="#F9A824"/>
<rect x="1122.75" y="361.53" width="14.5008" height="1.26094" rx="0.630469" transform="rotate(-69.079 1122.75 361.53)" fill="#F9A824"/>
<circle cx="1176.1" cy="373.824" r="18.5988" transform="rotate(-69.079 1176.1 373.824)" fill="#790215" stroke="black" stroke-width="0.630469"/>
<circle cx="1176.1" cy="373.824" r="9.1418" transform="rotate(-69.079 1176.1 373.824)" fill="#222222" stroke="black" stroke-width="0.630469"/>
<path d="M975.021 303.031L1021.85 314.857L1271.5 410.295" stroke="black" stroke-width="0.630469"/>
<path d="M994.61 297.695L1273.53 404.994" stroke="black" stroke-width="0.630469"/>
<ellipse cx="972.259" cy="302.312" rx="3.46758" ry="3.46758" transform="rotate(110.921 972.259 302.312)" fill="#790215"/>
<ellipse cx="991.259" cy="296.751" rx="3.46758" ry="3.46758" transform="rotate(110.921 991.259 296.751)" fill="#790215"/>
<ellipse cx="999.037" cy="315.249" rx="3.46758" ry="3.46758" transform="rotate(110.921 999.037 315.249)" fill="#790215"/>
<path d="M1269.43 416.59L1002.07 314.382" stroke="black" stroke-width="0.630469"/>
<circle cx="300.804" cy="-2.9497" r="106.314" fill="#DCD6A1" stroke="black" stroke-width="2"/>
<path fill-rule="evenodd" clip-rule="evenodd" d="M333.423 93.0442C329.673 97.1863 321.721 106.713 319.921 111.684L302.668 111.684L285.665 111.684C283.21 106.713 272.367 97.1863 267.253 93.0442L302.668 93.0442L309.192 93.0442L333.423 93.0442Z" fill="#DCD6A1"/>
<path d="M319.921 111.684L319.921 112.684L320.622 112.684L320.861 112.024L319.921 111.684ZM333.423 93.0442L334.165 93.7155L335.678 92.0442L333.423 92.0442L333.423 93.0442ZM302.668 111.684L302.668 112.684L302.668 111.684ZM285.665 111.684L284.769 112.127L285.044 112.684L285.665 112.684L285.665 111.684ZM267.253 93.0442L267.253 92.0442L264.429 92.0442L266.623 93.8213L267.253 93.0442ZM302.668 93.0442L302.668 94.0442L302.668 93.0442ZM309.192 93.0442L309.192 92.0442L309.192 93.0442ZM320.861 112.024C321.702 109.702 324.047 106.19 326.736 102.659C329.398 99.1649 332.305 95.7695 334.165 93.7155L332.682 92.373C330.791 94.4611 327.847 97.9002 325.145 101.447C322.471 104.959 319.94 108.695 318.981 111.343L320.861 112.024ZM302.668 112.684L319.921 112.684L319.921 110.684L302.668 110.684L302.668 112.684ZM302.668 110.684L285.665 110.684L285.665 112.684L302.668 112.684L302.668 110.684ZM286.562 111.241C285.889 109.879 284.682 108.273 283.226 106.601C281.758 104.914 279.991 103.105 278.15 101.333C274.468 97.7885 270.457 94.3522 267.882 92.2671L266.623 93.8213C269.163 95.8784 273.13 99.2767 276.763 102.774C278.579 104.522 280.302 106.286 281.717 107.913C283.145 109.554 284.214 111.003 284.769 112.127L286.562 111.241ZM267.253 94.0442L302.668 94.0442L302.668 92.0442L267.253 92.0442L267.253 94.0442ZM302.668 94.0442L309.192 94.0442L309.192 92.0442L302.668 92.0442L302.668 94.0442ZM333.423 92.0442L309.192 92.0442L309.192 94.0442L333.423 94.0442L333.423 92.0442Z" fill="black"/>
<ellipse cx="300.804" cy="77.6666" rx="56.8508" ry="23.7655" fill="#DCD6A1"/>
<path fill-rule="evenodd" clip-rule="evenodd" d="M396.798 -36.501C400.94 -32.7504 410.467 -24.799 415.438 -22.9987L415.438 -5.74568L415.438 11.2573C410.467 13.7122 400.94 24.555 396.798 29.6696L396.798 -5.74568L396.798 -12.2695L396.798 -36.501Z" fill="#DCD6A1"/>
<path d="M415.438 -22.9986L416.438 -22.9986L416.438 -23.7L415.778 -23.9389L415.438 -22.9986ZM396.798 -36.501L397.469 -37.2422L395.798 -38.7555L395.798 -36.501L396.798 -36.501ZM415.438 -5.74564L416.438 -5.74564L415.438 -5.74564ZM415.438 11.2573L415.881 12.1539L416.438 11.8787L416.438 11.2573L415.438 11.2573ZM396.798 29.6696L395.798 29.6696L395.798 32.4933L397.575 30.299L396.798 29.6696ZM396.798 -5.74564L395.798 -5.74564L396.798 -5.74564ZM415.778 -23.9389C413.456 -24.7801 409.944 -27.1249 406.413 -29.8139C402.919 -32.4755 399.523 -35.3823 397.469 -37.2422L396.127 -35.7597C398.215 -33.869 401.654 -30.9247 405.201 -28.2229C408.712 -25.5485 412.449 -23.0175 415.097 -22.0584L415.778 -23.9389ZM416.438 -5.74564L416.438 -22.9986L414.438 -22.9986L414.438 -5.74564L416.438 -5.74564ZM414.438 -5.74564L414.438 11.2573L416.438 11.2573L416.438 -5.74564L414.438 -5.74564ZM414.995 10.3607C413.633 11.0332 412.027 12.2407 410.354 13.6963C408.668 15.164 406.859 16.9319 405.087 18.7725C401.542 22.4541 398.106 26.4656 396.021 29.0402L397.575 30.299C399.632 27.759 403.031 23.7919 406.528 20.1597C408.276 18.3435 410.04 16.6207 411.667 15.2051C413.308 13.7773 414.757 12.7089 415.881 12.1539L414.995 10.3607ZM397.798 29.6696L397.798 -5.74564L395.798 -5.74564L395.798 29.6696L397.798 29.6696ZM397.798 -5.74564L397.798 -12.2695L395.798 -12.2695L395.798 -5.74564L397.798 -5.74564ZM395.798 -36.501L395.798 -12.2695L397.798 -12.2695L397.798 -36.501L395.798 -36.501Z" fill="black"/>
<path fill-rule="evenodd" clip-rule="evenodd" d="M203.878 29.6697C199.736 25.919 190.209 17.9676 185.239 16.1673L185.239 5.4382L185.239 -1.08566L185.239 -18.0886C190.209 -20.5436 199.736 -31.3864 203.878 -36.5009L203.878 -1.08566L203.878 5.4382L203.878 29.6697Z" fill="#DCD6A1"/>
<path d="M185.239 16.1673L184.239 16.1673L184.239 16.8687L184.898 17.1076L185.239 16.1673ZM203.878 29.6697L203.207 30.4109L204.878 31.9242L204.878 29.6697L203.878 29.6697ZM185.239 -1.08566L184.239 -1.08566L185.239 -1.08566ZM185.239 -18.0886L184.796 -18.9852L184.239 -18.71L184.239 -18.0886L185.239 -18.0886ZM203.878 -36.5009L204.878 -36.5009L204.878 -39.3246L203.101 -37.1303L203.878 -36.5009ZM203.878 -1.08566L202.878 -1.08566L203.878 -1.08566ZM203.878 5.4382L204.878 5.4382L203.878 5.4382ZM184.898 17.1076C187.221 17.9488 190.733 20.2936 194.263 22.9827C197.758 25.6442 201.153 28.551 203.207 30.4109L204.549 28.9284C202.461 27.0377 199.022 24.0935 195.475 21.3916C191.964 18.7173 188.227 16.1862 185.579 15.2271L184.898 17.1076ZM184.239 -1.08566L184.239 16.1673L186.239 16.1673L186.239 -1.08566L184.239 -1.08566ZM186.239 -1.08566L186.239 -18.0886L184.239 -18.0886L184.239 -1.08566L186.239 -1.08566ZM185.682 -17.192C187.043 -17.8645 188.649 -19.072 190.322 -20.5276C192.009 -21.9953 193.817 -23.7632 195.59 -25.6038C199.134 -29.2854 202.57 -33.2969 204.655 -35.8715L203.101 -37.1303C201.044 -34.5903 197.646 -30.6232 194.149 -26.991C192.4 -25.1748 190.636 -23.452 189.009 -22.0364C187.368 -20.6086 185.92 -19.5402 184.796 -18.9852L185.682 -17.192ZM202.878 -36.5009L202.878 -1.08566L204.878 -1.08566L204.878 -36.5009L202.878 -36.5009ZM202.878 -1.08566L202.878 5.4382L204.878 5.4382L204.878 -1.08566L202.878 -1.08566ZM204.878 29.6697L204.878 5.4382L202.878 5.4382L202.878 29.6697L204.878 29.6697Z" fill="black"/>
<path d="M350.094 83.243C355.875 83.3196 368.659 84.0093 373.542 86.1549L392.647 67.0506C390.136 62.5319 387.834 51.361 386.997 46.3403L350.094 83.243Z" fill="#DCD6A1" stroke="black" stroke-width="2"/>
<path d="M348.801 88.8504C354.02 86.6137 362.159 82.3264 365.576 80.4623C370.547 75.8025 381.607 64.8053 386.08 58.095C390.554 51.3848 391.361 45.358 391.206 43.1833C382.663 45.0473 362.874 51.8508 352.063 64.1529C338.549 79.5306 342.277 91.6462 348.801 88.8504Z" fill="#DCD6A1"/>
<path fill-rule="evenodd" clip-rule="evenodd" d="M213.679 46.3404C213.603 52.1216 212.913 64.9051 210.767 69.7889L223.888 82.9096L223.888 82.9096L229.872 88.8931C234.39 86.3824 245.561 84.0803 250.582 83.2431L233.43 66.0911L233.43 66.0911L213.679 46.3404Z" fill="#DCD6A1"/>
<path d="M210.767 69.789L209.852 69.3868L209.577 70.0127L210.06 70.4961L210.767 69.789ZM213.679 46.3405L214.386 45.6333L212.711 43.9577L212.679 46.3272L213.679 46.3405ZM223.888 82.9097L223.181 83.6168L223.888 84.3239L224.595 83.6168L223.888 82.9097ZM223.888 82.9096L224.595 82.2025L223.888 81.4954L223.181 82.2025L223.888 82.9096ZM229.872 88.8932L229.165 89.6003L229.698 90.1337L230.357 89.7673L229.872 88.8932ZM250.582 83.2431L250.746 84.2295L252.663 83.9099L251.289 82.536L250.582 83.2431ZM233.43 66.0912L234.137 65.3841L233.43 64.677L232.723 65.3841L233.43 66.0912ZM233.43 66.0912L232.723 66.7983L233.43 67.5054L234.137 66.7983L233.43 66.0912ZM211.683 70.1912C212.828 67.5839 213.546 63.0142 213.994 58.5002C214.448 53.9376 214.641 49.2673 214.679 46.3537L212.679 46.3272C212.641 49.1948 212.451 53.8069 212.004 58.3023C211.552 62.8463 210.852 67.1103 209.852 69.3868L211.683 70.1912ZM224.595 82.2025L211.474 69.0819L210.06 70.4961L223.181 83.6168L224.595 82.2025ZM223.181 82.2025L223.181 82.2025L224.595 83.6168L224.595 83.6167L223.181 82.2025ZM223.181 83.6167L229.165 89.6003L230.579 88.1861L224.595 82.2025L223.181 83.6167ZM230.357 89.7673C232.488 88.5836 236.291 87.4061 240.281 86.4109C244.236 85.4243 248.258 84.6445 250.746 84.2295L250.417 82.2568C247.886 82.679 243.811 83.4689 239.797 84.4703C235.816 85.4632 231.774 86.6921 229.386 88.0191L230.357 89.7673ZM251.289 82.536L234.137 65.3841L232.723 66.7983L249.875 83.9502L251.289 82.536ZM232.723 65.3841L232.723 65.3841L234.137 66.7983L234.137 66.7983L232.723 65.3841ZM212.972 47.0476L232.723 66.7983L234.137 65.3841L214.386 45.6333L212.972 47.0476Z" fill="black"/>
<ellipse cx="220.188" cy="-2.94965" rx="56.8508" ry="23.7655" transform="rotate(-90 220.188 -2.94965)" fill="#DCD6A1"/>
<ellipse cx="230.988" cy="37.3586" rx="56.8508" ry="23.7655" transform="rotate(-120 230.988 37.3586)" fill="#DCD6A1"/>
<path opacity="0.23" d="M202.019 -22.5213C204.256 -38.9242 209.475 -49.8594 211.805 -53.2766C205.281 -26.7152 202.019 7.30231 215.999 50.6394C206.679 36.8461 200.932 21.282 199.223 15.2241L190.369 7.30231L199.223 -0.619518L190.369 -5.27942L199.223 -12.7353C196.272 -12.8906 190.369 -13.574 190.369 -15.0652C190.369 -16.5564 198.136 -20.6572 202.019 -22.5213Z" fill="#AFAA7E"/>
<ellipse cx="381.42" cy="-2.94965" rx="56.8508" ry="23.7655" transform="rotate(-90 381.42 -2.94965)" fill="#DCD6A1"/>
<ellipse cx="370.62" cy="-43.2578" rx="56.8508" ry="23.7655" transform="rotate(-120 370.62 -43.2578)" fill="#DCD6A1"/>
<ellipse cx="351.566" cy="60.3116" rx="22.6941" ry="16.9142" transform="rotate(-178.464 351.566 60.3116)" fill="#AFAA7E"/>
<ellipse cx="353.703" cy="65.3302" rx="20.5182" ry="15.2925" transform="rotate(-178.464 353.703 65.3302)" fill="#DCD6A1"/>
<path opacity="0.3" d="M319.785 17.5479C309.027 31.5816 295.257 32.686 289.717 31.4839C297.418 36.2122 315.691 34.6111 323.726 22.8711C335.144 6.18731 328.385 -5.82807 325.262 -8.77889C327.919 -5.85066 330.544 3.51422 319.785 17.5479Z" fill="#AFAA7E"/>
<path opacity="0.3" d="M331.042 42.4391C344.527 31.0007 358.219 32.8361 363.379 35.1836C356.853 28.9323 338.655 26.6292 328.318 36.4024C313.627 50.2912 317.689 63.4651 320.116 67.01C318.139 63.5857 317.557 53.8774 331.042 42.4391Z" fill="#AFAA7E"/>
<path opacity="0.3" d="M250.412 -14.5705C245.379 -0.508066 234.588 3.93171 229.822 4.3938C237.236 6.21044 251.52 0.209709 254.955 -11.3053C259.835 -27.6694 251.3 -35.5904 248.027 -37.1584C250.92 -35.4885 255.446 -28.633 250.412 -14.5705Z" fill="#AFAA7E"/>
<ellipse cx="353.704" cy="65.8444" rx="13.8534" ry="8.6524" transform="rotate(165 353.704 65.8444)" fill="#AFAA7E"/>
<ellipse rx="25.0342" ry="22.4632" transform="matrix(0.126189 -0.992006 0.97263 0.232358 295.311 -2.5521)" fill="#AFAA7E"/>
<ellipse rx="20.8737" ry="16.6746" transform="matrix(0.126189 -0.992006 0.97263 0.232358 292.346 -2.49932)" fill="#DCD6A1"/>
<ellipse rx="14.5373" ry="11.6129" transform="matrix(0.126189 -0.992006 0.97263 0.232358 293.43 -2.49915)" fill="#AFAA7E"/>
<ellipse cx="231.576" cy="-20.5213" rx="18.5627" ry="13.835" transform="rotate(-78.6321 231.576 -20.5213)" fill="#AFAA7E"/>
<ellipse cx="237.215" cy="52.7228" rx="18.5627" ry="13.835" transform="rotate(-135 237.215 52.7228)" fill="#AFAA7E"/>
<ellipse cx="234.754" cy="55.5945" rx="16.3967" ry="12.2234" transform="rotate(-135 234.754 55.5945)" fill="#DCD6A1"/>
<ellipse cx="233.516" cy="56.5021" rx="11.9262" ry="10.2046" transform="rotate(-135 233.516 56.5021)" fill="#AFAA7E"/>
<ellipse cx="291.746" cy="82.718" rx="14.908" ry="11.1111" transform="rotate(-180 291.746 82.718)" fill="#AFAA7E"/>
<ellipse cx="291.979" cy="85.7469" rx="13.1685" ry="9.81683" transform="rotate(-180 291.979 85.7469)" fill="#DCD6A1"/>
<ellipse cx="292.416" cy="86.9865" rx="9.3198" ry="6.98985" transform="rotate(180 292.416 86.9865)" fill="#AFAA7E"/>
<ellipse cx="386.472" cy="-3.92136" rx="14.908" ry="11.1111" transform="rotate(90 386.472 -3.92136)" fill="#AFAA7E"/>
<ellipse cx="389.501" cy="-4.15426" rx="13.1685" ry="9.81683" transform="rotate(90 389.501 -4.15426)" fill="#DCD6A1"/>
<ellipse cx="391.211" cy="-4.81341" rx="10.2518" ry="7.92183" transform="rotate(90 391.211 -4.81341)" fill="#AFAA7E"/>
<path d="M401 256C415 253.2 421.5 241.167 423 235C425.4 249.4 438.667 255.667 445 257C429.8 258.2 424 271.167 423 278C421 265.6 407.5 258.167 401 256Z" fill="#E984FA"/>
<path d="M54 102C68 99.2 74.5 87.1667 76 81C78.4 95.4 91.6667 101.667 98 103C82.8 104.2 77 117.167 76 124C74 111.6 60.5 104.167 54 102Z" fill="#E984FA"/>
<path d="M284 488.163C293.545 486.274 297.977 478.159 299 474C300.636 483.712 309.682 487.938 314 488.837C303.636 489.647 299.682 498.391 299 503C297.636 494.637 288.432 489.624 284 488.163Z" fill="#CA59DD"/>
<path d="M195 208.302C200.727 207.195 203.386 202.438 204 200C204.982 205.693 210.409 208.171 213 208.698C206.782 209.172 204.409 214.298 204 217C203.182 212.098 197.659 209.159 195 208.302Z" fill="#CA59DD"/>
<path opacity="0.2" d="M896 352.163C905.545 350.274 909.977 342.159 911 338C912.636 347.712 921.682 351.938 926 352.837C915.636 353.647 911.682 362.391 911 367C909.636 358.637 900.432 353.624 896 352.163Z" fill="white"/>
<path opacity="0.2" d="M937 59.6046C948.136 57.3907 953.307 47.876 954.5 43C956.409 54.3861 966.962 59.3411 972 60.3954C959.909 61.3442 955.295 71.5969 954.5 77C952.909 67.1953 942.17 61.3178 937 59.6046Z" fill="white"/>
<path opacity="0.2" d="M1296 59.6046C1307.14 57.3907 1312.31 47.876 1313.5 43C1315.41 54.3861 1325.96 59.3411 1331 60.3954C1318.91 61.3442 1314.3 71.5969 1313.5 77C1311.91 67.1953 1301.17 61.3178 1296 59.6046Z" fill="white"/>
<path d="M1243 237.674C1252.23 235.851 1256.51 228.016 1257.5 224C1259.08 233.377 1267.83 237.457 1272 238.326C1261.98 239.107 1258.16 247.55 1257.5 252C1256.18 243.926 1247.28 239.085 1243 237.674Z" fill="#CA59DD"/>
<path opacity="0.12" d="M78 334.674C87.2273 332.851 91.5114 325.016 92.5 321C94.0818 330.377 102.826 334.457 107 335.326C96.9818 336.107 93.1591 344.55 92.5 349C91.1818 340.926 82.2841 336.085 78 334.674Z" fill="white"/>
</g>
<circle cx="261.5" cy="366.5" r="56.5" fill="#EF8FFF"/>
<path d="M275.5 345C291.9 335.4 291.333 322.333 289 317C298.2 319.8 305.833 330.5 308.5 335.5C303.333 338.333 292.3 346.1 289.5 354.5C286 365 274.5 379.5 258.5 388C245.7 394.8 223.5 397.167 214 397.5L210.5 390C211.5 388.5 216.6 384.8 229 382C244.5 378.5 269.5 366.5 250 368.5C230.5 370.5 216 366 215.5 359C215 352 229 346.5 224.5 352C220 357.5 255 357 275.5 345Z" fill="#F2A7FF"/>
<path opacity="0.6" d="M271.542 394.494C260.398 400.097 241.204 402.432 233 402.899C233 404.767 262.255 414.106 274.793 405.234C287.331 396.362 295.225 385.621 299.404 371.612C303.583 357.604 314.728 352 307.763 352C302.19 352 298.011 358.226 296.618 361.339C292.903 370.056 282.687 388.89 271.542 394.494Z" fill="#F2A7FF"/>
<ellipse cx="271.105" cy="333.741" rx="11.9566" ry="5.5" transform="rotate(-30 271.105 333.741)" fill="#F19DFF"/>
<path d="M221 337C227.8 325 240.167 315.667 245.5 312.5C246 312.167 247.9 311.4 251.5 311C255.1 310.6 265.333 310.5 270 310.5C249.5 314 229.5 337 239.5 336.5C247.5 336.1 253.833 327.667 256 323.5C257.667 325.667 258.7 331.6 249.5 338C238 346 212.5 352 221 337Z" fill="#F2A7FF"/>
<mask id="path-78-outside-2_92_1050" maskUnits="userSpaceOnUse" x="1080.52" y="-45.5651" width="144.585" height="142.476" fill="black">
<rect fill="white" x="1080.52" y="-45.5651" width="144.585" height="142.476"/>
<path fill-rule="evenodd" clip-rule="evenodd" d="M1147 43.9333L1143.8 45.5096L1119.61 69.0726L1121.03 77.4747L1116.06 85.9902L1113.33 88.6513L1109.89 89.097L1107.73 85.9801L1105.22 86.3889L1103.69 83.8195L1103.86 82.0077L1101.04 80.01L1098.43 80.9077L1098.21 79.1889L1098.81 77.7259L1095.58 73.5166L1093.48 73.3422L1091.29 72.0881L1091.57 69.3952L1088.99 67.6459L1089.04 63.7243L1091.77 61.0632L1101.1 56.4284L1109.02 58.1981L1133.2 34.6351L1134.96 31.5691L1135.17 30.2971C1141.35 20.3021 1154.95 -1.25072 1159.85 -7.50189C1165.99 -15.3159 1178.22 -28.3948 1184.7 -32.9684C1185.1 -33.2548 1185.53 -33.5409 1185.97 -33.8263L1188.75 -34.879L1193.62 -34.7205L1197.76 -32.4656L1198.67 -29.7665L1201.74 -29.9257L1206.02 -28.7803L1210.4 -25.3136L1213.55 -22.0977L1212.98 -19.9605L1215.96 -20.7153L1218.25 -18.5492L1218.87 -14.5213C1218.07 -12.8052 1217.22 -11.1695 1216.36 -9.71072C1211.25 -1.05006 1197.1 12.3472 1189.58 17.6427C1183.57 21.8792 1168.2 31.7306 1161.27 36.1268L1147 43.9333Z"/>
</mask>
<path fill-rule="evenodd" clip-rule="evenodd" d="M1147 43.9333L1143.8 45.5096L1119.61 69.0726L1121.03 77.4747L1116.06 85.9902L1113.33 88.6513L1109.89 89.097L1107.73 85.9801L1105.22 86.3889L1103.69 83.8195L1103.86 82.0077L1101.04 80.01L1098.43 80.9077L1098.21 79.1889L1098.81 77.7259L1095.58 73.5166L1093.48 73.3422L1091.29 72.0881L1091.57 69.3952L1088.99 67.6459L1089.04 63.7243L1091.77 61.0632L1101.1 56.4284L1109.02 58.1981L1133.2 34.6351L1134.96 31.5691L1135.17 30.2971C1141.35 20.3021 1154.95 -1.25072 1159.85 -7.50189C1165.99 -15.3159 1178.22 -28.3948 1184.7 -32.9684C1185.1 -33.2548 1185.53 -33.5409 1185.97 -33.8263L1188.75 -34.879L1193.62 -34.7205L1197.76 -32.4656L1198.67 -29.7665L1201.74 -29.9257L1206.02 -28.7803L1210.4 -25.3136L1213.55 -22.0977L1212.98 -19.9605L1215.96 -20.7153L1218.25 -18.5492L1218.87 -14.5213C1218.07 -12.8052 1217.22 -11.1695 1216.36 -9.71072C1211.25 -1.05006 1197.1 12.3472 1189.58 17.6427C1183.57 21.8792 1168.2 31.7306 1161.27 36.1268L1147 43.9333Z" fill="#C4C4C4"/>
<path d="M1143.8 45.5096L1143.38 44.6586L1143.24 44.7251L1143.13 44.8304L1143.8 45.5096ZM1147 43.9333L1147.42 44.7844L1147.44 44.7752L1147.46 44.7653L1147 43.9333ZM1119.61 69.0726L1118.95 68.3934L1118.6 68.7399L1118.68 69.2296L1119.61 69.0726ZM1121.03 77.4747L1121.84 77.9523L1122.02 77.6559L1121.96 77.3176L1121.03 77.4747ZM1116.06 85.9902L1116.72 86.6694L1116.82 86.5793L1116.88 86.4678L1116.06 85.9902ZM1113.33 88.6513L1113.45 89.5917L1113.77 89.5511L1113.99 89.3305L1113.33 88.6513ZM1109.89 89.097L1109.11 89.6381L1109.44 90.1115L1110.01 90.0374L1109.89 89.097ZM1107.73 85.9801L1108.51 85.439L1108.16 84.9479L1107.57 85.0442L1107.73 85.9801ZM1105.22 86.3889L1104.41 86.8754L1104.74 87.4286L1105.37 87.3248L1105.22 86.3889ZM1103.69 83.8195L1102.74 83.7306L1102.71 84.0396L1102.87 84.306L1103.69 83.8195ZM1103.86 82.0077L1104.8 82.0966L1104.85 81.551L1104.4 81.2341L1103.86 82.0077ZM1101.04 80.01L1101.59 79.2364L1101.19 78.9551L1100.73 79.1133L1101.04 80.01ZM1098.43 80.9077L1097.49 81.0297L1097.64 82.1826L1098.74 81.8045L1098.43 80.9077ZM1098.21 79.1889L1097.33 78.8253L1097.23 79.0594L1097.26 79.3108L1098.21 79.1889ZM1098.81 77.7259L1099.69 78.0895L1099.9 77.5833L1099.56 77.1486L1098.81 77.7259ZM1095.58 73.5166L1096.33 72.9393L1096.08 72.6062L1095.66 72.5716L1095.58 73.5166ZM1093.48 73.3422L1093.01 74.1652L1093.19 74.2699L1093.4 74.2873L1093.48 73.3422ZM1091.29 72.0881L1090.34 71.99L1090.28 72.6042L1090.82 72.9111L1091.29 72.0881ZM1091.57 69.3952L1092.51 69.4933L1092.57 68.9293L1092.1 68.6108L1091.57 69.3952ZM1088.99 67.6459L1088.04 67.6336L1088.04 68.1437L1088.46 68.4303L1088.99 67.6459ZM1089.04 63.7243L1088.38 63.0451L1088.1 63.3192L1088.09 63.712L1089.04 63.7243ZM1091.77 61.0632L1091.35 60.214L1091.22 60.2802L1091.11 60.384L1091.77 61.0632ZM1101.1 56.4284L1101.31 55.5029L1100.98 55.4297L1100.68 55.5792L1101.1 56.4284ZM1109.02 58.1981L1108.81 59.1236L1109.31 59.2355L1109.68 58.8773L1109.02 58.1981ZM1133.2 34.6351L1133.86 35.3143L1133.96 35.2216L1134.02 35.1064L1133.2 34.6351ZM1134.96 31.5691L1135.78 32.0404L1135.86 31.893L1135.89 31.7255L1134.96 31.5691ZM1135.17 30.2971L1134.36 29.7982L1134.26 29.9568L1134.23 30.1408L1135.17 30.2971ZM1159.85 -7.50189L1159.11 -8.08732L1159.85 -7.50189ZM1184.7 -32.9684L1184.15 -33.7432L1184.15 -33.7432L1184.7 -32.9684ZM1185.97 -33.8263L1185.63 -34.7133L1185.53 -34.677L1185.45 -34.6211L1185.97 -33.8263ZM1188.75 -34.879L1188.78 -35.8268L1188.59 -35.833L1188.42 -35.7661L1188.75 -34.879ZM1193.62 -34.7205L1194.07 -35.5533L1193.87 -35.661L1193.65 -35.6683L1193.62 -34.7205ZM1197.76 -32.4656L1198.66 -32.7694L1198.54 -33.1209L1198.21 -33.2984L1197.76 -32.4656ZM1198.67 -29.7665L1197.77 -29.4626L1198 -28.7823L1198.72 -28.8195L1198.67 -29.7665ZM1201.74 -29.9257L1201.99 -30.8417L1201.84 -30.8805L1201.69 -30.8728L1201.74 -29.9257ZM1206.02 -28.7803L1206.6 -29.5245L1206.45 -29.6457L1206.26 -29.6963L1206.02 -28.7803ZM1210.4 -25.3136L1211.08 -25.9768L1211.04 -26.0201L1210.99 -26.0577L1210.4 -25.3136ZM1213.55 -22.0977L1214.47 -21.8523L1214.61 -22.3745L1214.23 -22.761L1213.55 -22.0977ZM1212.98 -19.9605L1212.06 -20.2059L1211.65 -18.6447L1213.21 -19.0411L1212.98 -19.9605ZM1215.96 -20.7153L1216.62 -21.4032L1216.24 -21.7627L1215.73 -21.6346L1215.96 -20.7153ZM1218.25 -18.5492L1219.18 -18.6938L1219.13 -19.0141L1218.9 -19.2371L1218.25 -18.5492ZM1218.87 -14.5213L1219.73 -14.1195L1219.85 -14.3808L1219.81 -14.6659L1218.87 -14.5213ZM1216.36 -9.71072L1217.18 -9.2286L1217.18 -9.2286L1216.36 -9.71072ZM1189.58 17.6427L1189.04 16.8673L1189.58 17.6427ZM1161.27 36.1268L1161.73 36.9588L1161.76 36.944L1161.78 36.9276L1161.27 36.1268ZM1144.21 46.3607L1147.42 44.7844L1146.59 43.0822L1143.38 44.6586L1144.21 46.3607ZM1120.28 69.7518L1144.46 46.1888L1143.13 44.8304L1118.95 68.3934L1120.28 69.7518ZM1121.96 77.3176L1120.55 68.9156L1118.68 69.2296L1120.09 77.6317L1121.96 77.3176ZM1116.88 86.4678L1121.84 77.9523L1120.21 76.9971L1115.24 85.5126L1116.88 86.4678ZM1113.99 89.3305L1116.72 86.6694L1115.4 85.311L1112.67 87.9721L1113.99 89.3305ZM1110.01 90.0374L1113.45 89.5917L1113.21 87.7109L1109.77 88.1565L1110.01 90.0374ZM1106.95 86.5213L1109.11 89.6381L1110.67 88.5558L1108.51 85.439L1106.95 86.5213ZM1105.37 87.3248L1107.88 86.9161L1107.57 85.0442L1105.07 85.453L1105.37 87.3248ZM1102.87 84.306L1104.41 86.8754L1106.03 85.9024L1104.5 83.333L1102.87 84.306ZM1102.91 81.9188L1102.74 83.7306L1104.63 83.9084L1104.8 82.0966L1102.91 81.9188ZM1100.49 80.7837L1103.31 82.7813L1104.4 81.2341L1101.59 79.2364L1100.49 80.7837ZM1098.74 81.8045L1101.35 80.9068L1100.73 79.1133L1098.12 80.011L1098.74 81.8045ZM1097.26 79.3108L1097.49 81.0297L1099.37 80.7858L1099.15 79.0669L1097.26 79.3108ZM1097.94 77.3623L1097.33 78.8253L1099.08 79.5524L1099.69 78.0895L1097.94 77.3623ZM1094.83 74.094L1098.06 78.3032L1099.56 77.1486L1096.33 72.9393L1094.83 74.094ZM1093.4 74.2873L1095.5 74.4617L1095.66 72.5716L1093.55 72.3972L1093.4 74.2873ZM1090.82 72.9111L1093.01 74.1652L1093.95 72.5193L1091.76 71.2652L1090.82 72.9111ZM1090.62 69.2971L1090.34 71.99L1092.23 72.1862L1092.51 69.4933L1090.62 69.2971ZM1088.46 68.4303L1091.03 70.1797L1092.1 68.6108L1089.52 66.8614L1088.46 68.4303ZM1088.09 63.712L1088.04 67.6336L1089.94 67.6582L1089.99 63.7366L1088.09 63.712ZM1091.11 60.384L1088.38 63.0451L1089.7 64.4035L1092.43 61.7424L1091.11 60.384ZM1100.68 55.5792L1091.35 60.214L1092.19 61.9124L1101.52 57.2776L1100.68 55.5792ZM1109.23 57.2726L1101.31 55.5029L1100.89 57.3539L1108.81 59.1236L1109.23 57.2726ZM1132.54 33.9559L1108.36 57.5189L1109.68 58.8773L1133.86 35.3143L1132.54 33.9559ZM1134.13 31.0979L1132.38 34.1639L1134.02 35.1064L1135.78 32.0404L1134.13 31.0979ZM1134.23 30.1408L1134.02 31.4128L1135.89 31.7255L1136.1 30.4535L1134.23 30.1408ZM1159.11 -8.08732C1154.16 -1.7839 1140.53 19.8261 1134.36 29.7982L1135.98 30.7961C1142.17 20.7781 1155.74 -0.71754 1160.6 -6.91647L1159.11 -8.08732ZM1184.15 -33.7432C1180.83 -31.4001 1176.1 -26.9294 1171.46 -22.1077C1166.81 -17.2727 1162.2 -12.0252 1159.11 -8.08732L1160.6 -6.91647C1163.64 -10.7925 1168.21 -15.9915 1172.83 -20.7929C1177.46 -25.6075 1182.08 -29.9631 1185.25 -32.1935L1184.15 -33.7432ZM1185.45 -34.6211C1185 -34.3298 1184.57 -34.037 1184.15 -33.7432L1185.25 -32.1935C1185.64 -32.4725 1186.05 -32.752 1186.48 -33.0315L1185.45 -34.6211ZM1186.3 -32.9392L1189.09 -33.992L1188.42 -35.7661L1185.63 -34.7133L1186.3 -32.9392ZM1188.72 -33.9312L1193.59 -33.7727L1193.65 -35.6683L1188.78 -35.8268L1188.72 -33.9312ZM1193.16 -33.8877L1197.3 -31.6327L1198.21 -33.2984L1194.07 -35.5533L1193.16 -33.8877ZM1196.86 -32.1617L1197.77 -29.4626L1199.57 -30.0704L1198.66 -32.7694L1196.86 -32.1617ZM1198.72 -28.8195L1201.79 -28.9787L1201.69 -30.8728L1198.62 -30.7135L1198.72 -28.8195ZM1201.5 -29.0097L1205.77 -27.8644L1206.26 -29.6963L1201.99 -30.8417L1201.5 -29.0097ZM1205.43 -28.0362L1209.82 -24.5694L1210.99 -26.0577L1206.6 -29.5245L1205.43 -28.0362ZM1209.73 -24.6503L1212.87 -21.4344L1214.23 -22.761L1211.08 -25.9768L1209.73 -24.6503ZM1212.64 -22.3432L1212.06 -20.2059L1213.9 -19.715L1214.47 -21.8523L1212.64 -22.3432ZM1213.21 -19.0411L1216.2 -19.796L1215.73 -21.6346L1212.75 -20.8798L1213.21 -19.0411ZM1215.31 -20.0274L1217.59 -17.8612L1218.9 -19.2371L1216.62 -21.4032L1215.31 -20.0274ZM1217.31 -18.4046L1217.93 -14.3766L1219.81 -14.6659L1219.18 -18.6938L1217.31 -18.4046ZM1217.18 -9.2286C1218.06 -10.7203 1218.92 -12.3842 1219.73 -14.1195L1218.01 -14.9231C1217.22 -13.2261 1216.39 -11.6188 1215.55 -10.1928L1217.18 -9.2286ZM1190.13 18.4181C1193.95 15.7289 1199.41 11.0161 1204.54 5.89993C1209.67 0.792922 1214.56 -4.79068 1217.18 -9.2286L1215.55 -10.1928C1213.05 -5.9701 1208.31 -0.524746 1203.21 4.55592C1198.11 9.62745 1192.74 14.261 1189.04 16.8673L1190.13 18.4181ZM1161.78 36.9276C1168.71 32.5353 1184.09 22.6705 1190.13 18.4181L1189.04 16.8673C1183.04 21.0878 1167.7 30.926 1160.77 35.3261L1161.78 36.9276ZM1147.46 44.7653L1161.73 36.9588L1160.82 35.2949L1146.55 43.1013L1147.46 44.7653Z" fill="black" mask="url(#path-78-outside-2_92_1050)"/>
<mask id="mask1_92_1050" style="mask-type:alpha" maskUnits="userSpaceOnUse" x="1088" y="-35" width="131" height="125">
<path fill-rule="evenodd" clip-rule="evenodd" d="M1147 43.9333L1143.8 45.5096L1119.61 69.0726L1121.03 77.4747L1116.06 85.9902L1113.33 88.6513L1109.89 89.097L1107.73 85.9801L1105.22 86.3889L1103.69 83.8195L1103.86 82.0077L1101.04 80.01L1098.43 80.9077L1098.21 79.1889L1098.81 77.7259L1095.58 73.5166L1093.48 73.3422L1091.29 72.0881L1091.57 69.3952L1088.99 67.6459L1089.04 63.7243L1091.77 61.0632L1101.1 56.4284L1109.02 58.1981L1133.2 34.6351L1134.96 31.5691L1135.17 30.2971C1141.35 20.3021 1154.95 -1.25072 1159.85 -7.50189C1165.99 -15.3159 1178.22 -28.3948 1184.7 -32.9684C1185.1 -33.2548 1185.53 -33.5409 1185.97 -33.8263L1188.75 -34.879L1193.62 -34.7205L1197.76 -32.4656L1198.67 -29.7665L1201.74 -29.9257L1206.02 -28.7803L1210.4 -25.3136L1213.55 -22.0977L1212.98 -19.9605L1215.96 -20.7153L1218.25 -18.5492L1218.87 -14.5213C1218.07 -12.8052 1217.22 -11.1695 1216.36 -9.71072C1211.25 -1.05006 1197.1 12.3472 1189.58 17.6427C1183.57 21.8792 1168.2 31.7306 1161.27 36.1268L1147 43.9333Z" fill="#C4C4C4"/>
</mask>
<g mask="url(#mask1_92_1050)">
<path d="M1113 64.4998L1108.5 57.9998L1101 56L1091.5 60.5L1088.5 63.5V68L1091 69.5V72L1093 73.5L1095.5 74L1098.5 77.5L1097.5 79L1098 81.5L1101 80.5L1103.5 82L1103 84L1105 87L1107.5 86.5L1109.5 89.5L1113.5 89L1115.5 87L1117.5 84.5L1121.5 77L1120.5 72L1119.5 69L1113 64.4998Z" fill="#272935"/>
<path d="M1089.87 72.3811L1093.64 74.5888L1096.85 73.3438L1110.34 61.3761L1109.8 60.9367L1102.8 60.5037L1090.83 69.2353L1089.87 72.3811Z" fill="#4A4D5E" stroke="black" stroke-width="0.948305"/>
<path d="M1108.06 56.4848C1109.67 62.9374 1117.88 68.3879 1121.79 70.3066L1135.32 64.3619C1140.2 59.1789 1149.28 48.4984 1146.54 47.2408C1143.8 45.9832 1136 37.2169 1132.44 32.991C1123.64 38.1337 1106.46 50.0322 1108.06 56.4848Z" fill="#4A4D5E" stroke="black" stroke-width="1.58051"/>
<path d="M1131.44 32.1498C1134.65 37.5251 1141.98 44.6018 1145.25 47.4683L1148.62 50.1703C1151.12 49.6948 1154.7 48.003 1149.01 45.0396C1143.33 42.0763 1136.9 33.558 1134.39 29.6692L1132.24 27.6203C1130.64 26.8904 1128.23 26.7745 1131.44 32.1498Z" fill="#A4A5AA" stroke="black" stroke-width="1.58051"/>
<path d="M1110.48 70.059L1113.45 64.799L1112.83 64.0602L1097.51 78.7737L1098.08 81.5436L1101.07 80.4629L1110.48 70.059Z" fill="#4A4D5E" stroke="black" stroke-width="0.948305"/>
<path d="M1133.52 29.271C1136.9 35.9374 1145.5 43.4979 1149.47 46.0632L1176.68 34.291L1207.12 10.1324L1226.1 -14.5642L1217.76 -29.5606L1194.7 -38.7663L1172.58 -34.0587L1146.47 0.179181C1140.74 7.09875 1130.13 22.6045 1133.52 29.271Z" fill="#91934B" stroke="black" stroke-width="1.73856"/>
<path d="M1188.74 20.4236C1184.73 14.7141 1172.53 0.176648 1155.78 -12.2967" stroke="black" stroke-width="0.948305"/>
<path d="M1190.94 17.4128C1186.93 11.7033 1174.73 -2.83409 1157.98 -15.3075" stroke="black" stroke-width="0.948305"/>
<path d="M1194.69 15.6355C1190.68 9.92597 1178.48 -4.61144 1161.73 -17.0848" stroke="black" stroke-width="0.948305"/>
<path d="M1197.14 13.1851C1193.14 7.47553 1180.94 -7.06188 1164.19 -19.5353" stroke="black" stroke-width="0.948305"/>
<path d="M1200.32 11.0913C1196.32 5.38178 1184.12 -9.15563 1167.37 -21.629" stroke="black" stroke-width="0.948305"/>
<path d="M1104.71 87.3653L1102.65 83.5074L1104.02 80.3511L1116.51 67.346L1116.93 67.9035L1117.09 74.9061L1107.89 86.5281L1104.71 87.3653Z" fill="#4A4D5E" stroke="black" stroke-width="0.948305"/>
<path d="M1108.5 57.9998L1112 62.9998L1116.5 67L1120 69.5L1121.5 77.5L1116.5 86L1113.5 89L1109.5 89.5L1107.5 86.5L1105 87" stroke="black"/>
</g>
</svg>
